<svg width="133" height="25" viewBox="0 0 133 25" fill="none" xmlns="http://www.w3.org/2000/svg">
<path d="M0 0H3V11H0V0Z" fill="#303030"/>
<path d="M4 0H6.73834L10.43 5.66106C10.9506 6.44237 11.0656 6.63427 11.5051 7.42243L11.5524 7.40872C11.4915 6.46293 11.478 6.22305 11.478 5.22243V0H14V11H11.14L7.56998 5.54455C7.0426 4.72897 6.93442 4.55078 6.49493 3.76947L6.4476 3.79689C6.50845 4.72897 6.52197 4.96199 6.52197 5.98318V11H4V0Z" fill="#303030"/>
<path d="M21.7636 0C23.5447 0 24.7843 0.458904 25.625 1.41781C26.4372 2.36301 27 4.00685 27 5.5C27 7.14384 26.4657 8.63014 25.5039 9.68493C24.7131 10.5411 23.5447 11 22.1626 11H16V0H21.7636ZM21.5356 8.70548C23.1386 8.70548 24.1289 7.49315 24.1289 5.5274C24.1289 3.66438 23.0602 2.33562 21.5784 2.33562H18.9495C18.807 2.33562 18.7429 2.32192 18.6075 2.26027C18.6431 2.43836 18.6574 2.47945 18.6574 2.65753V8.70548H21.5356Z" fill="#303030"/>
<path d="M28 0H36.9656V2.36744H30.5596V3.60948C30.5596 3.77417 30.5459 3.82907 30.5115 3.99376C30.6491 3.95259 30.6835 3.932 30.828 3.932H35.9197V6.29944H30.5596V8.31004C30.5596 8.47474 30.5459 8.52963 30.5115 8.69432C30.6491 8.65315 30.6835 8.63256 30.828 8.63256H37V11H28V0Z" fill="#303030"/>
<path d="M43.4322 0C44.9993 0 45.8637 0.150779 46.4961 0.520872C47.3746 1.04174 48 2.30966 48 3.58442C48 4.9757 47.4589 6.09969 46.5453 6.61371C45.9339 6.95639 45.1328 7.10031 43.8398 7.10031H40.8953C40.7477 7.10031 40.7056 7.0866 40.572 7.03863C40.6072 7.20312 40.6212 7.24424 40.6212 7.42243V11H38V0H43.4322ZM40.9023 2.33707C40.7547 2.33707 40.7126 2.32336 40.5791 2.27539C40.6142 2.43988 40.6283 2.481 40.6283 2.65919V4.33146C40.6283 4.50966 40.6142 4.55078 40.5791 4.71527C40.7196 4.67414 40.7547 4.65358 40.9023 4.65358H43.5868C44.7885 4.65358 45.3015 4.3109 45.3015 3.50218C45.3015 2.6866 44.8096 2.33707 43.6852 2.33707H40.9023Z" fill="#303030"/>
<path d="M49 0H57.9656V2.36744H51.5596V3.60948C51.5596 3.77417 51.5459 3.82907 51.5115 3.99376C51.6491 3.95259 51.6835 3.932 51.828 3.932H56.9197V6.29944H51.5596V8.31004C51.5596 8.47474 51.5459 8.52963 51.5115 8.69432C51.6491 8.65315 51.6835 8.63256 51.828 8.63256H58V11H49V0Z" fill="#303030"/>
<path d="M61.7432 0L65.4324 5.66106C65.9527 6.44237 66.0676 6.63427 66.5068 7.42243L66.5541 7.40872C66.4932 6.46293 66.4797 6.22305 66.4797 5.22243V0H69V11H66.1351L62.5676 5.54455C62.0405 4.72897 61.9324 4.55078 61.4932 3.76947L61.4459 3.79689C61.5068 4.72897 61.5203 4.96199 61.5203 5.98318V11H59V0H61.7432Z" fill="#303030"/>
<path d="M76.767 0C78.5469 0 79.7858 0.458904 80.6259 1.41781C81.4375 2.36301 82 4.00685 82 5.5C82 7.14384 81.466 8.63014 80.5049 9.68493C79.7146 10.5411 78.5469 11 77.1657 11H71V0H76.767ZM76.5392 8.70548C78.1411 8.70548 79.1307 7.49315 79.1307 5.5274C79.1307 3.66438 78.0628 2.33562 76.5819 2.33562H73.9547C73.8123 2.33562 73.7482 2.32192 73.6129 2.26027C73.6485 2.43836 73.6628 2.47945 73.6628 2.65753V8.70548H76.5392Z" fill="#303030"/>
<path d="M83 0H91.9656V2.36744H85.5646V3.60948C85.5646 3.77417 85.5508 3.82907 85.5164 3.99376C85.6539 3.95259 85.6883 3.932 85.8327 3.932H90.9206V6.29944H85.5646V8.31004C85.5646 8.47474 85.5508 8.52963 85.5164 8.69432C85.6539 8.65315 85.6883 8.63256 85.8327 8.63256H92V11H83V0Z" fill="#303030"/>
<path d="M93 0H95.7383L99.43 5.66106C99.9506 6.44237 100.066 6.63427 100.505 7.42243L100.552 7.40872C100.492 6.46293 100.478 6.22305 100.478 5.22243V0H103V11H100.14L96.57 5.54455C96.0426 4.72897 95.9344 4.55078 95.4949 3.76947L95.4476 3.79689C95.5085 4.72897 95.522 4.96199 95.522 5.98318V11H93V0Z" fill="#303030"/>
<path d="M105 0H115V2.41246H111.643C111.491 2.41246 111.447 2.39875 111.31 2.35078C111.346 2.51526 111.36 2.55639 111.36 2.73458V11H108.661V2.73458C108.661 2.55639 108.676 2.51526 108.712 2.35078C108.567 2.3919 108.531 2.41246 108.379 2.41246H105V0Z" fill="#303030"/>
<path d="M0 13H6.7374C8.60743 13 9.59549 13.919 9.59549 15.6334C9.59549 16.7444 9.26393 17.3616 8.40186 17.8828V17.9239C9.50265 18.5754 10 19.4464 10 20.7631C10 21.7575 9.60875 22.6901 8.8992 23.3074C8.34218 23.808 7.77851 24 6.80371 24H0V13ZM2.7321 15.3385C2.59284 15.3385 2.55305 15.3248 2.42706 15.2768C2.46021 15.4414 2.47347 15.4825 2.47347 15.6608V16.6827C2.47347 16.861 2.46021 16.9021 2.42706 17.0667C2.55968 17.0256 2.6061 17.005 2.7321 17.005H5.91512C6.57825 17.005 6.82361 16.7855 6.82361 16.2232C6.82361 15.6471 6.47878 15.3385 5.8687 15.3385H2.7321ZM2.47347 21.3186C2.47347 21.4969 2.46021 21.538 2.42706 21.7026C2.55968 21.6615 2.59284 21.6409 2.7321 21.6409H5.92175C6.79708 21.6409 7.1618 21.2843 7.1618 20.4408C7.1618 19.6247 6.75066 19.2269 5.92175 19.2269H2.47347V21.3186Z" fill="#303030"/>
<path d="M23 18.8132C23 22.7796 20.8474 25 16.9928 25C15.1979 25 13.8462 24.5832 12.8522 23.6994C11.6508 22.6287 11 21.0048 11 19.0503C11 15.2635 13.3099 13 17.1716 13C20.7402 13 23 15.2419 23 18.8132ZM14.0465 18.8922C14.0465 21.206 15.2479 22.7653 17.0286 22.7653C18.8379 22.7653 19.9464 21.3569 19.9464 19.0287C19.9464 16.6575 18.8737 15.2778 17.0143 15.2778C15.1692 15.2778 14.0465 16.6431 14.0465 18.8922Z" fill="#303030"/>
<path d="M36 18.8132C36 22.7796 33.8474 25 29.9928 25C28.1979 25 26.8462 24.5832 25.8522 23.6994C24.6508 22.6287 24 21.0048 24 19.0503C24 15.2635 26.3099 13 30.1716 13C33.7473 13 36 15.2419 36 18.8132ZM27.0536 18.8922C27.0536 21.206 28.2551 22.7653 30.0358 22.7653C31.8451 22.7653 32.9535 21.3569 32.9535 19.0287C32.9535 16.6575 31.8808 15.2778 30.0215 15.2778C28.1692 15.2778 27.0536 16.6431 27.0536 18.8922Z" fill="#303030"/>
<path d="M36 13H46V15.4125H42.6425C42.4906 15.4125 42.4472 15.3988 42.3097 15.3508C42.3459 15.5153 42.3603 15.5564 42.3603 15.7346V24H39.6614V15.7346C39.6614 15.5564 39.6758 15.5153 39.712 15.3508C39.5673 15.3919 39.5311 15.4125 39.3792 15.4125H36V13Z" fill="#303030"/>
<path d="M48.7468 20.5907C48.9752 22.0628 49.7408 22.6948 51.2586 22.6948C52.5749 22.6948 53.2196 22.3357 53.2196 21.6104C53.2196 20.9928 52.7428 20.605 51.769 20.447L49.8281 20.1239C47.5379 19.7217 46.3559 18.5871 46.3559 16.763C46.3559 15.6284 47.0477 14.4075 48.0215 13.8043C48.8744 13.2801 49.9221 13 51.0839 13C52.7361 13 54.1464 13.6176 55.0463 14.702C55.5165 15.2765 55.6911 15.693 55.8858 16.6266L53.1927 17.3734C52.8368 15.6858 52.3331 15.219 50.8825 15.219C49.7475 15.219 49.096 15.6715 49.096 16.4758C49.096 17.1077 49.5259 17.4237 50.7213 17.6391L52.4473 17.9479C53.4412 18.1347 54.3882 18.5224 54.9725 19.0036C55.5836 19.4991 56 20.4901 56 21.4022C56 22.4578 55.4829 23.5422 54.7307 24.1167C53.8778 24.7702 52.9577 25 51.2317 25C49.2774 25 48.4446 24.7989 47.6185 24.1311C46.7656 23.4345 46.3156 22.6733 46 21.3591L48.7468 20.5907Z" fill="#303030"/>
<path d="M56 13H66V15.4125H62.6425C62.4906 15.4125 62.4472 15.3988 62.3097 15.3508C62.3459 15.5153 62.3603 15.5564 62.3603 15.7346V24H59.6614V15.7346C59.6614 15.5564 59.6758 15.5153 59.712 15.3508C59.5673 15.3919 59.5311 15.4125 59.3792 15.4125H56V13Z" fill="#303030"/>
<path d="M67 13H73.8014C75.2269 13 76.078 13.3086 76.7092 14.063C77.2057 14.6527 77.4681 15.4688 77.4681 16.4152C77.4681 18.1434 76.7376 19.1652 75.1773 19.6247C75.4326 19.947 75.4964 20.0362 75.7234 20.4065L78 24H74.6738L72.0851 19.8716H69.922C69.7731 19.8716 69.7305 19.8579 69.5957 19.8098C69.6312 19.9744 69.6454 20.0156 69.6454 20.1939V24H67V13ZM69.922 15.3385C69.7943 15.3385 69.7305 15.3248 69.5957 15.2768C69.6312 15.4414 69.6454 15.4825 69.6454 15.6608V17.2176C69.6454 17.3822 69.6312 17.437 69.5957 17.6016C69.7376 17.5605 69.7731 17.5399 69.922 17.5399H73.1702C73.9787 17.5399 74.2695 17.4988 74.5248 17.3204C74.8014 17.1284 74.9574 16.8198 74.9574 16.4358C74.9574 15.6197 74.6312 15.3385 73.6809 15.3385H69.922Z" fill="#303030"/>
<path d="M82.0222 13H85.0253L89 24H86.2143L85.4873 21.8274H81.4991L80.7721 24H78L82.0222 13ZM84.0198 19.8056C84.4342 19.8056 84.5157 19.8056 84.8826 19.8467C84.7128 19.4629 84.6788 19.3601 84.5225 18.9009L84.0741 17.5371C83.7955 16.7078 83.7344 16.5022 83.5306 15.6866H83.483C83.2792 16.5022 83.2044 16.7215 82.9395 17.5371L82.491 18.9009C82.3348 19.3738 82.294 19.4629 82.1309 19.8467C82.491 19.8056 82.5794 19.8056 82.9938 19.8056H84.0198Z" fill="#303030"/>
<path d="M90 13H95.4252C96.9923 13 97.8566 13.1508 98.4961 13.5209C99.3746 14.0417 100 15.3097 100 16.5844C100 17.9757 99.4589 19.0997 98.5453 19.6137C97.9339 19.9564 97.1328 20.1003 95.8398 20.1003H92.8953C92.7477 20.1003 92.7055 20.0866 92.572 20.0386C92.6072 20.2031 92.6212 20.2442 92.6212 20.4224V24H90V13ZM92.8883 15.3371C92.7407 15.3371 92.6985 15.3234 92.565 15.2754C92.6001 15.4399 92.6142 15.481 92.6142 15.6592V17.3315C92.6142 17.5097 92.6001 17.5508 92.565 17.7153C92.7056 17.6741 92.7407 17.6536 92.8883 17.6536H95.5727C96.7744 17.6536 97.2874 17.3109 97.2874 16.5022C97.2874 15.6866 96.7955 15.3371 95.6711 15.3371H92.8883Z" fill="#303030"/>
<path d="M101 13H106.425C107.992 13 108.857 13.1508 109.496 13.5209C110.375 14.0417 111 15.3097 111 16.5844C111 17.9757 110.459 19.0997 109.545 19.6137C108.934 19.9564 108.133 20.1003 106.84 20.1003H103.895C103.748 20.1003 103.706 20.0866 103.572 20.0386C103.607 20.2031 103.621 20.2442 103.621 20.4224V24H101V13ZM103.895 15.3371C103.748 15.3371 103.706 15.3234 103.572 15.2754C103.607 15.4399 103.621 15.481 103.621 15.6592V17.3315C103.621 17.5097 103.607 17.5508 103.572 17.7153C103.713 17.6741 103.748 17.6536 103.895 17.6536H106.58C107.781 17.6536 108.294 17.3109 108.294 16.5022C108.294 15.6866 107.803 15.3371 106.678 15.3371H103.895Z" fill="#303030"/>
<path d="M120.966 13V15.3674H114.565V16.6095C114.565 16.7742 114.551 16.8291 114.516 16.9938C114.654 16.9526 114.688 16.932 114.833 16.932H119.921V19.2994H114.565V21.31C114.565 21.4747 114.551 21.5296 114.516 21.6943C114.654 21.6532 114.688 21.6326 114.833 21.6326H121V24H112V13H120.966Z" fill="#303030"/>
<path d="M127.764 13C129.545 13 130.784 13.4589 131.625 14.4178C132.437 15.363 133 17.0068 133 18.5C133 20.1438 132.466 21.6301 131.504 22.6849C130.713 23.5411 129.545 24 128.163 24H122V13H127.764ZM127.528 21.7055C129.131 21.7055 130.122 20.4932 130.122 18.5274C130.122 16.6644 129.053 15.3356 127.571 15.3356H124.942C124.8 15.3356 124.736 15.3219 124.6 15.2603C124.636 15.4384 124.65 15.4795 124.65 15.6575V21.7055H127.528Z" fill="#303030"/>
<path d="M123 0H120V11H123V0Z" fill="#303030"/>
<path d="M127 8V5H116V8H127Z" fill="#303030"/>
</svg>
