<svg width="168" height="31" viewBox="0 0 168 31" fill="none" xmlns="http://www.w3.org/2000/svg">
<g clip-path="url(#clip0)">
<path d="M0.0175781 0H3.2577V13.9761H0.0175781V0Z" fill="#595959"/>
<path d="M5.24707 0H8.76517L13.5081 7.1927C14.177 8.18539 14.3246 8.42921 14.8893 9.43062L14.9501 9.4132C14.8719 8.21152 14.8545 7.90674 14.8545 6.63539V0H18.0946V13.9761H14.4202L9.83363 7.04466C9.15607 6.00843 9.01708 5.78202 8.45245 4.78933L8.39164 4.82416C8.46982 6.00843 8.48719 6.30449 8.48719 7.60197V13.9761H5.24707V0Z" fill="#595959"/>
<path d="M27.4406 0C29.6123 0 31.1237 0.583427 32.1488 1.80253C33.139 3.00421 33.8253 5.0941 33.8253 6.99242C33.8253 9.0823 33.1738 10.9719 32.0011 12.3129C31.0369 13.4014 29.6123 13.9848 27.927 13.9848H20.4131V0H27.4406ZM27.1626 11.0677C29.1171 11.0677 30.3246 9.5264 30.3246 7.02725C30.3246 4.65871 29.0216 2.96938 27.2147 2.96938H24.0094C23.8356 2.96938 23.7575 2.95197 23.5924 2.8736C23.6358 3.1 23.6532 3.15225 23.6532 3.37865V11.0677H27.1626Z" fill="#595959"/>
<path d="M35.2324 0H46.5511V3.00421H38.4639V4.58034C38.4639 4.78933 38.4465 4.85899 38.4031 5.06798C38.5768 5.01573 38.6202 4.98961 38.8026 4.98961H45.2308V7.99382H38.4639V10.5452C38.4639 10.7542 38.4465 10.8239 38.4031 11.0329C38.5768 10.9806 38.6202 10.9545 38.8026 10.9545H46.5946V13.9587H35.2324V0Z" fill="#595959"/>
<path d="M54.9345 0C56.8716 0 57.9401 0.191573 58.7219 0.661798C59.8077 1.3236 60.5808 2.93455 60.5808 4.55421C60.5808 6.32191 59.912 7.75 58.7827 8.40309C58.027 8.83848 57.0367 9.02135 55.4383 9.02135H51.7986C51.6162 9.02135 51.5641 9.00393 51.399 8.94298C51.4425 9.15197 51.4599 9.20421 51.4599 9.43062V13.9761H48.2197V0H54.9345ZM51.8073 2.96938C51.6249 2.96938 51.5728 2.95197 51.4077 2.89101C51.4512 3.1 51.4685 3.15225 51.4685 3.37865V5.50337C51.4685 5.72977 51.4512 5.78202 51.4077 5.99101C51.5815 5.93876 51.6249 5.91264 51.8073 5.91264H55.1256C56.611 5.91264 57.2452 5.47725 57.2452 4.44972C57.2452 3.41348 56.6371 2.96938 55.2472 2.96938H51.8073Z" fill="#595959"/>
<path d="M62.1016 0H73.4203V3.00421H65.333V4.58034C65.333 4.78933 65.3156 4.85899 65.2722 5.06798C65.4459 5.01573 65.4894 4.98961 65.6718 4.98961H72.0999V7.99382H65.333V10.5452C65.333 10.7542 65.3156 10.8239 65.2722 11.0329C65.4459 10.9806 65.4894 10.9545 65.6718 10.9545H73.4637V13.9587H62.1016V0Z" fill="#595959"/>
<path d="M78.6147 0L83.3576 7.1927C84.0265 8.18539 84.1741 8.42921 84.7388 9.43062L84.7996 9.4132C84.7214 8.21152 84.704 7.90674 84.704 6.63539V0H87.9442V13.9761H84.261L79.6744 7.04466C78.9969 6.00843 78.8579 5.78202 78.2933 4.78933L78.2325 4.82416C78.3106 6.00843 78.328 6.30449 78.328 7.60197V13.9761H75.0879V0H78.6147Z" fill="#595959"/>
<path d="M97.2901 0C99.4618 0 100.973 0.583427 101.998 1.80253C102.989 3.00421 103.675 5.0941 103.675 6.99242C103.675 9.0823 103.023 10.9719 101.851 12.3129C100.886 13.4014 99.4618 13.9848 97.7765 13.9848H90.2539V0H97.2901ZM97.0121 11.0677C98.9666 11.0677 100.174 9.5264 100.174 7.02725C100.174 4.65871 98.8711 2.96938 97.0642 2.96938H93.8589C93.6851 2.96938 93.607 2.95197 93.4419 2.8736C93.4853 3.1 93.5027 3.15225 93.5027 3.37865V11.0677H97.0121Z" fill="#595959"/>
<path d="M105.074 0H116.402V3.00421H108.314V4.58034C108.314 4.78933 108.297 4.85899 108.254 5.06798C108.427 5.01573 108.471 4.98961 108.653 4.98961H115.081V7.99382H108.314V10.5452C108.314 10.7542 108.297 10.8239 108.254 11.0329C108.427 10.9806 108.471 10.9545 108.653 10.9545H116.445V13.9587H105.074V0Z" fill="#595959"/>
<path d="M118.068 0H121.586L126.329 7.1927C126.998 8.18539 127.146 8.42921 127.711 9.43062L127.771 9.4132C127.693 8.21152 127.676 7.90674 127.676 6.63539V0H130.916V13.9761H127.241L122.655 7.04466C121.977 6.00843 121.838 5.78202 121.274 4.78933L121.213 4.82416C121.291 6.00843 121.308 6.30449 121.308 7.60197V13.9761H118.068V0Z" fill="#595959"/>
<path d="M132.289 0H144.294V3.06517H140.263C140.081 3.06517 140.029 3.04775 139.864 2.9868C139.907 3.19579 139.925 3.24803 139.925 3.47444V13.9761H136.685V3.47444C136.685 3.24803 136.702 3.19579 136.745 2.9868C136.572 3.03904 136.528 3.06517 136.346 3.06517H132.289V0Z" fill="#595959"/>
<path d="M0 16.7194H8.82565C11.2753 16.7194 12.5696 17.8863 12.5696 20.0632C12.5696 21.4739 12.1353 22.2576 11.006 22.9194V22.9717C12.448 23.7989 13.0995 24.9048 13.0995 26.5767C13.0995 27.8394 12.587 29.0236 11.6575 29.8073C10.9278 30.443 10.1895 30.6868 8.91251 30.6868H0V16.7194ZM3.5789 19.6888C3.39648 19.6888 3.34436 19.6714 3.17932 19.6104C3.22275 19.8194 3.24012 19.8717 3.24012 20.0981V21.3955C3.24012 21.6219 3.22275 21.6742 3.17932 21.8832C3.35305 21.8309 3.41386 21.8048 3.5789 21.8048H7.7485C8.61717 21.8048 8.93857 21.5261 8.93857 20.8121C8.93857 20.0806 8.48687 19.6888 7.68769 19.6888H3.5789ZM3.24012 27.282C3.24012 27.5084 3.22275 27.5607 3.17932 27.7697C3.35305 27.7174 3.39648 27.6913 3.5789 27.6913H7.75719C8.90383 27.6913 9.38159 27.2385 9.38159 26.1674C9.38159 25.1312 8.84302 24.6261 7.75719 24.6261H3.24012V27.282Z" fill="#595959"/>
<path d="M28.7608 23.485C28.7608 28.2917 26.1461 30.9825 21.464 30.9825C19.2836 30.9825 17.6419 30.4774 16.4344 29.4063C14.9751 28.1089 14.1846 26.1409 14.1846 23.7723C14.1846 19.1833 16.9904 16.4403 21.6812 16.4403C26.0158 16.4403 28.7608 19.1572 28.7608 23.485ZM17.8851 23.5808C17.8851 26.3847 19.3444 28.2743 21.5074 28.2743C23.7052 28.2743 25.0516 26.5676 25.0516 23.7462C25.0516 20.8726 23.7486 19.2007 21.4901 19.2007C19.2489 19.2007 17.8851 20.8552 17.8851 23.5808Z" fill="#595959"/>
<path d="M44.711 23.485C44.711 28.2917 42.0963 30.9825 37.4142 30.9825C35.2338 30.9825 33.5921 30.4774 32.3846 29.4063C30.9253 28.1089 30.1348 26.1409 30.1348 23.7723C30.1348 19.1833 32.9406 16.4403 37.6314 16.4403C41.9747 16.4403 44.711 19.1572 44.711 23.485ZM33.844 23.5808C33.844 26.3847 35.3033 28.2743 37.4663 28.2743C39.664 28.2743 41.0105 26.5676 41.0105 23.7462C41.0105 20.8726 39.7075 19.2007 37.4489 19.2007C35.1991 19.2007 33.844 20.8552 33.844 23.5808Z" fill="#595959"/>
<path d="M45.3965 16.7194H57.4015V19.7846H53.3708C53.1884 19.7846 53.1363 19.7672 52.9713 19.7062C53.0147 19.9152 53.0321 19.9674 53.0321 20.1938V30.6955H49.7919V20.1938C49.7919 19.9674 49.8093 19.9152 49.8527 19.7062C49.679 19.7585 49.6356 19.7846 49.4532 19.7846H45.3965V16.7194Z" fill="#595959"/>
<path d="M61.172 25.6445C61.4673 27.4296 62.4576 28.1959 64.4208 28.1959C66.1234 28.1959 66.9573 27.7605 66.9573 26.8811C66.9573 26.1322 66.3406 25.662 65.081 25.4704L62.5705 25.0785C59.6084 24.5909 58.0795 23.215 58.0795 21.0032C58.0795 19.6274 58.9743 18.1471 60.2338 17.4156C61.337 16.7799 62.6922 16.4403 64.1949 16.4403C66.3319 16.4403 68.1561 17.1892 69.3201 18.5041C69.9281 19.2007 70.154 19.7058 70.4059 20.8378L66.9226 21.7434C66.4622 19.6971 65.8107 19.1311 63.9343 19.1311C62.4663 19.1311 61.6237 19.6796 61.6237 20.6549C61.6237 21.4212 62.1796 21.8044 63.7259 22.0656L65.9583 22.44C67.244 22.6664 68.4688 23.1367 69.2245 23.7201C70.015 24.3209 70.5536 25.5226 70.5536 26.6285C70.5536 27.9086 69.8847 29.2235 68.9118 29.9201C67.8086 30.7125 66.6185 30.9912 64.3861 30.9912C61.8582 30.9912 60.7811 30.7473 59.7126 29.9375C58.6094 29.0928 58.0274 28.1698 57.6191 26.5763L61.172 25.6445Z" fill="#595959"/>
<path d="M71.1787 16.7194H83.1837V19.7846H79.1531C78.9706 19.7846 78.9185 19.7672 78.7535 19.7062C78.7969 19.9152 78.8143 19.9674 78.8143 20.1938V30.6955H75.5742V20.1938C75.5742 19.9674 75.5915 19.9152 75.635 19.7062C75.4612 19.7585 75.4178 19.7846 75.2354 19.7846H71.1787V16.7194Z" fill="#595959"/>
<path d="M84.4951 16.7194H92.8256C94.5716 16.7194 95.614 17.1113 96.3872 18.0691C96.9952 18.818 97.3166 19.8542 97.3166 21.0559C97.3166 23.2503 96.4219 24.5478 94.5108 25.1312C94.8236 25.5405 94.9017 25.6537 95.1797 26.1239L97.9681 30.6868H93.8941L90.7235 25.4447H88.074C87.8916 25.4447 87.8395 25.4273 87.6744 25.3663C87.7179 25.5753 87.7352 25.6276 87.7352 25.854V30.6868H84.4951V16.7194ZM88.074 19.6888C87.9177 19.6888 87.8395 19.6714 87.6744 19.6104C87.7179 19.8194 87.7352 19.8717 87.7352 20.0981V22.0747C87.7352 22.2837 87.7179 22.3534 87.6744 22.5624C87.8482 22.5101 87.8916 22.484 88.074 22.484H92.0525C93.0428 22.484 93.3989 22.4318 93.7117 22.2054C94.0504 21.9615 94.2416 21.5697 94.2416 21.082C94.2416 20.0458 93.842 19.6888 92.678 19.6888H88.074Z" fill="#595959"/>
<path d="M103.502 16.7194H107.341L112.423 30.6955H108.862L107.932 27.9351H102.833L101.904 30.6955H98.3594L103.502 16.7194ZM106.056 25.3663C106.586 25.3663 106.69 25.3663 107.159 25.4186C106.942 24.9309 106.898 24.8003 106.699 24.2169L106.125 22.484C105.769 21.4304 105.691 21.1691 105.43 20.1329H105.37C105.109 21.1691 105.013 21.4478 104.675 22.484L104.101 24.2169C103.901 24.8177 103.849 24.9309 103.641 25.4186C104.101 25.3663 104.214 25.3663 104.744 25.3663H106.056Z" fill="#595959"/>
<path d="M113.491 16.7194H120.197C122.134 16.7194 123.203 16.911 123.993 17.3812C125.079 18.043 125.852 19.654 125.852 21.2736C125.852 23.0413 125.183 24.4694 124.054 25.1225C123.298 25.5579 122.308 25.7408 120.71 25.7408H117.07C116.888 25.7408 116.836 25.7233 116.671 25.6624C116.714 25.8714 116.731 25.9236 116.731 26.15V30.6955H113.491V16.7194ZM117.061 19.6888C116.879 19.6888 116.827 19.6714 116.662 19.6104C116.705 19.8194 116.723 19.8717 116.723 20.0981V22.2228C116.723 22.4492 116.705 22.5014 116.662 22.7104C116.836 22.6582 116.879 22.632 117.061 22.632H120.38C121.865 22.632 122.499 22.1967 122.499 21.1691C122.499 20.1329 121.891 19.6888 120.501 19.6888H117.061Z" fill="#595959"/>
<path d="M127.364 16.7194H134.07C136.007 16.7194 137.076 16.911 137.866 17.3812C138.952 18.043 139.725 19.654 139.725 21.2736C139.725 23.0413 139.057 24.4694 137.927 25.1225C137.172 25.5579 136.181 25.7408 134.583 25.7408H130.943C130.761 25.7408 130.709 25.7233 130.544 25.6624C130.587 25.8714 130.604 25.9236 130.604 26.15V30.6955H127.364V16.7194ZM130.943 19.6888C130.761 19.6888 130.709 19.6714 130.544 19.6104C130.587 19.8194 130.604 19.8717 130.604 20.0981V22.2228C130.604 22.4492 130.587 22.5014 130.544 22.7104C130.717 22.6582 130.761 22.632 130.943 22.632H134.261C135.747 22.632 136.381 22.1967 136.381 21.1691C136.381 20.1329 135.773 19.6888 134.383 19.6888H130.943Z" fill="#595959"/>
<path d="M152.556 16.7194V19.7236H144.469V21.2997C144.469 21.5087 144.451 21.5784 144.408 21.7874C144.582 21.7351 144.625 21.709 144.807 21.709H151.236V24.7132H144.469V27.2646C144.469 27.4736 144.451 27.5433 144.408 27.7523C144.582 27.7 144.625 27.6739 144.807 27.6739H152.599V30.6781H141.229V16.7194H152.556Z" fill="#595959"/>
<path d="M161.564 16.7194C163.735 16.7194 165.247 17.3028 166.272 18.5219C167.262 19.7236 167.948 21.8135 167.948 23.7118C167.948 25.8017 167.297 27.6913 166.124 29.0323C165.16 30.1208 163.735 30.7042 162.05 30.7042H154.536V16.7194H161.564ZM161.277 27.7871C163.231 27.7871 164.439 26.2458 164.439 23.7467C164.439 21.3781 163.136 19.6888 161.329 19.6888H158.124C157.95 19.6888 157.872 19.6714 157.707 19.593C157.75 19.8194 157.768 19.8717 157.768 20.0981V27.7871H161.277Z" fill="#595959"/>
<path d="M155.318 0.278595H152.061V14.2112H155.318V0.278595Z" fill="#595959"/>
<path d="M160.645 8.87864V5.61317H146.746V8.87864H160.645Z" fill="#595959"/>
</g>
<defs>
<clipPath id="clip0">
<rect width="168" height="31" fill="white"/>
</clipPath>
</defs>
</svg>
