<svg width="89" height="30" viewBox="0 0 89 30" fill="none" xmlns="http://www.w3.org/2000/svg">
<path d="M15 0L15.4721 1.52788H17L15.764 2.47212L16.2361 4L15 3.05515L13.7643 4L14.2364 2.47212L13 1.52788H14.5279L15 0Z" fill="#303030"/>
<path d="M15 26L15.4721 27.5283H17L15.764 28.4724L16.2361 30L15 29.056L13.7643 30L14.2364 28.4724L13 27.5283H14.5279L15 26Z" fill="#303030"/>
<path d="M21 2L21.4719 3.52786H23L21.7637 4.47248L22.2359 6L21 5.05538L19.7638 6L20.2359 4.47248L19 3.52786H20.5281L21 2Z" fill="#303030"/>
<path d="M27.0002 19L27.4721 20.5284H29L27.7639 21.4726L28.2363 23L27.0002 22.0562L25.764 23L26.2362 21.4726L25 20.5284H26.528L27.0002 19Z" fill="#303030"/>
<path d="M28.0001 13L28.472 14.5277H30L28.7639 15.4719L29.236 17L28.0001 16.0562L26.764 17L27.2364 15.4719L26 14.5277H27.5277L28.0001 13Z" fill="#303030"/>
<path d="M2.00029 13L2.47218 14.5277H4L2.76379 15.4719L3.23625 17L2.00029 16.0562L0.763991 17L1.23621 15.4719L0 14.5277H1.52806L2.00029 13Z" fill="#303030"/>
<path d="M3.00029 19L3.47218 20.5284H5L3.76411 21.4726L4.23593 23L3.00029 22.0562L1.76407 23L2.23621 21.4726L1 20.5284H2.52814L3.00029 19Z" fill="#303030"/>
<path d="M27.0002 6L27.4721 7.52838H29L27.7639 8.47257L28.2363 10L27.0002 9.05616L25.764 10L26.2362 8.47257L25 7.52838H26.528L27.0002 6Z" fill="#303030"/>
<path d="M4.00029 6L4.47218 7.52838H6L4.76411 8.47257L5.23593 10L4.00029 9.05616L2.76407 10L3.23621 8.47257L2 7.52838H3.52814L4.00029 6Z" fill="#303030"/>
<path d="M23.0001 25L23.472 26.5276H25L23.7636 27.4724L24.236 29L23.0001 28.0559L21.7637 29L22.2362 27.4724L21 26.5276H22.528L23.0001 25Z" fill="#303030"/>
<path d="M8.00004 2L8.47185 3.52786H10L8.76379 4.47248L9.23625 6L8.00004 5.05538L6.76407 6L7.23621 4.47248L6 3.52786H7.52782L8.00004 2Z" fill="#303030"/>
<path d="M6.99988 25L7.47198 26.5284H9L7.76389 27.4723L8.23599 29L6.99988 28.0564L5.76401 29L6.23611 27.4723L5 26.5284H6.52769L6.99988 25Z" fill="#303030"/>
<path fill-rule="evenodd" clip-rule="evenodd" d="M39 10C39 13.0725 41.2834 15 44.0883 15C45.8642 15 47.2315 14.2609 48.2463 13.1159V9.33333H43.7077V11.4058H45.8642V12.2174C45.4837 12.5362 44.8212 12.7971 44.0883 12.7971C42.5519 12.7971 41.4666 11.5797 41.4666 10C41.4666 8.42029 42.5519 7.2029 44.0883 7.2029C44.9763 7.2029 45.6951 7.71014 46.0757 8.34783L48.1053 7.24638C47.4147 6.04348 46.1461 5 44.0883 5C41.2834 5 39 6.92754 39 10ZM49.6699 14.8261V5.15942H53.6165C56.5764 5.15942 58.7047 6.98551 58.7047 9.98551C58.7047 12.9855 56.5764 14.8261 53.6306 14.8261H49.6699ZM52.0942 12.6522H53.6165C55.2656 12.6522 56.224 11.4203 56.224 9.98551C56.224 8.49275 55.3501 7.33333 53.6306 7.33333H52.0942V12.6522ZM59.9169 14.8261V5.15942H64.6246C66.7389 5.15942 67.8947 6.62319 67.8947 8.37681C67.8947 10.1159 66.7389 11.5507 64.6246 11.5507H62.3412V14.8261H59.9169ZM65.428 8.36232C65.428 7.69565 64.9488 7.26087 64.3004 7.26087H62.3412V9.43478H64.3004C64.9488 9.43478 65.428 9.01449 65.428 8.36232ZM74.2233 14.8261L72.6447 11.5507H71.4043V14.8261H68.98V5.15942H73.6877C75.7737 5.15942 76.9577 6.57971 76.9577 8.37681C76.9577 10.058 75.957 10.9565 75.0831 11.2754L77 14.8261H74.2233ZM74.4911 8.34783C74.4911 7.68116 73.9555 7.26087 73.3212 7.26087H71.4043V9.43478H73.3212C73.9555 9.43478 74.4911 9.01449 74.4911 8.34783Z" fill="#303030"/>
<path d="M18.1429 14.375H17.7143V12.9687C17.7143 11.332 16.4964 10 15 10C13.5036 10 12.2857 11.332 12.2857 12.9687V14.375H11.8571C11.3839 14.375 11 14.7949 11 15.3125V19.0625C11 19.5801 11.3839 20 11.8571 20H18.1429C18.6161 20 19 19.5801 19 19.0625V15.3125C19 14.7949 18.6161 14.375 18.1429 14.375ZM16.2857 14.375H13.7143V12.9687C13.7143 12.1934 14.2911 11.5625 15 11.5625C15.7089 11.5625 16.2857 12.1934 16.2857 12.9687V14.375Z" fill="#303030"/>
<path d="M43.8978 21.7862H44.7C44.6549 21.4654 44.5592 21.1839 44.4129 20.9418C44.2665 20.6941 44.0835 20.4886 43.864 20.3254C43.6444 20.1621 43.3939 20.0383 43.1124 19.9538C42.8309 19.8694 42.5326 19.8271 42.2173 19.8271C41.7557 19.8271 41.3447 19.9116 40.9844 20.0805C40.6298 20.2437 40.3314 20.4689 40.0893 20.756C39.8529 21.0431 39.6727 21.3809 39.5489 21.7694C39.425 22.1522 39.3631 22.5631 39.3631 23.0022C39.3631 23.4413 39.4194 23.8523 39.532 24.2351C39.6502 24.6179 39.8247 24.9501 40.0556 25.2316C40.2864 25.513 40.5763 25.7354 40.9253 25.8987C41.2744 26.0563 41.6825 26.1351 42.1498 26.1351C42.921 26.1351 43.529 25.924 43.9738 25.5018C44.4185 25.0796 44.6803 24.4885 44.7591 23.7285H43.9569C43.94 23.9762 43.8893 24.207 43.8049 24.4209C43.7204 24.6348 43.6022 24.8206 43.4502 24.9782C43.3038 25.1302 43.1265 25.2513 42.9182 25.3413C42.7155 25.4258 42.4819 25.468 42.2173 25.468C41.857 25.468 41.5474 25.4004 41.2884 25.2653C41.0295 25.1302 40.8155 24.9501 40.6467 24.7249C40.4834 24.4941 40.3624 24.2267 40.2835 23.9227C40.2047 23.613 40.1653 23.2865 40.1653 22.9431C40.1653 22.6279 40.2047 22.3239 40.2835 22.0311C40.3624 21.7384 40.4834 21.4794 40.6467 21.2542C40.8155 21.0234 41.0267 20.8405 41.28 20.7054C41.5389 20.5703 41.8486 20.5027 42.2089 20.5027C42.6311 20.5027 42.9942 20.6097 43.2982 20.8236C43.6078 21.0375 43.8077 21.3584 43.8978 21.7862ZM46.2173 22.9853C46.2173 22.6814 46.2567 22.383 46.3355 22.0902C46.4143 21.7919 46.5381 21.5245 46.707 21.288C46.8759 21.0516 47.0927 20.863 47.3573 20.7222C47.6218 20.5759 47.9371 20.5027 48.303 20.5027C48.6689 20.5027 48.9842 20.5759 49.2488 20.7222C49.5134 20.863 49.7301 21.0516 49.899 21.288C50.0679 21.5245 50.1918 21.7919 50.2706 22.0902C50.3494 22.383 50.3888 22.6814 50.3888 22.9853C50.3888 23.2893 50.3494 23.5905 50.2706 23.8889C50.1918 24.1816 50.0679 24.4462 49.899 24.6827C49.7301 24.9191 49.5134 25.1105 49.2488 25.2569C48.9842 25.3976 48.6689 25.468 48.303 25.468C47.9371 25.468 47.6218 25.3976 47.3573 25.2569C47.0927 25.1105 46.8759 24.9191 46.707 24.6827C46.5381 24.4462 46.4143 24.1816 46.3355 23.8889C46.2567 23.5905 46.2173 23.2893 46.2173 22.9853ZM45.415 22.9853C45.415 23.3963 45.4742 23.7932 45.5924 24.176C45.7162 24.5532 45.8992 24.8882 46.1413 25.1809C46.3833 25.4736 46.6845 25.7073 47.0448 25.8818C47.4051 26.0507 47.8245 26.1351 48.303 26.1351C48.7815 26.1351 49.2009 26.0507 49.5612 25.8818C49.9215 25.7073 50.2227 25.4736 50.4648 25.1809C50.7069 24.8882 50.887 24.5532 51.0052 24.176C51.1291 23.7932 51.191 23.3963 51.191 22.9853C51.191 22.5744 51.1291 22.1803 51.0052 21.8031C50.887 21.4203 50.7069 21.0825 50.4648 20.7898C50.2227 20.4971 49.9215 20.2634 49.5612 20.0889C49.2009 19.9144 48.7815 19.8271 48.303 19.8271C47.8245 19.8271 47.4051 19.9144 47.0448 20.0889C46.6845 20.2634 46.3833 20.4971 46.1413 20.7898C45.8992 21.0825 45.7162 21.4203 45.5924 21.8031C45.4742 22.1803 45.415 22.5744 45.415 22.9853ZM52.1855 19.9707V26H52.9455V20.984H52.9624L54.8455 26H55.5295L57.4126 20.984H57.4294V26H58.1894V19.9707H57.0917L55.1832 25.0373L53.2832 19.9707H52.1855ZM60.3267 22.8587V20.6462H61.8973C62.3533 20.6462 62.6855 20.742 62.8938 20.9334C63.1077 21.1191 63.2146 21.3922 63.2146 21.7525C63.2146 22.1128 63.1077 22.3886 62.8938 22.58C62.6855 22.7714 62.3533 22.8643 61.8973 22.8587H60.3267ZM59.5244 19.9707V26H60.3267V23.5342H62.1675C62.7755 23.5399 63.2344 23.3851 63.544 23.0698C63.8592 22.7545 64.0169 22.3154 64.0169 21.7525C64.0169 21.1895 63.8592 20.7532 63.544 20.4436C63.2344 20.1283 62.7755 19.9707 62.1675 19.9707H59.5244ZM65.0001 19.9707V26H68.9943V25.3244H65.8023V19.9707H65.0001ZM69.7261 19.9707V26H70.5284V19.9707H69.7261ZM72.9163 23.5089L73.9381 20.6969H73.955L74.9599 23.5089H72.9163ZM73.5159 19.9707L71.1684 26H71.9875L72.663 24.1845H75.2132L75.8719 26H76.7585L74.4026 19.9707H73.5159ZM77.3449 19.9707V26H78.1049V21.1614H78.1218L81.2715 26H82.1498V19.9707H81.3898V24.86H81.3729L78.1978 19.9707H77.3449ZM84.8155 20.6462V26H85.6177V20.6462H87.6275V19.9707H82.8057V20.6462H84.8155Z" fill="#303030"/>
</svg>
