<svg width="27" height="27" viewBox="0 0 27 27" fill="none" xmlns="http://www.w3.org/2000/svg">
<circle cx="13.5" cy="13.5" r="13.5" fill="#FFFBF1"/>
<path d="M13.5005 9.83984C12.5296 9.83984 11.5985 10.2255 10.912 10.912C10.2255 11.5985 9.83984 12.5296 9.83984 13.5005C9.83984 14.4714 10.2255 15.4025 10.912 16.089C11.5985 16.7755 12.5296 17.1612 13.5005 17.1612C14.4714 17.1612 15.4025 16.7755 16.089 16.089C16.7755 15.4025 17.1612 14.4714 17.1612 13.5005C17.1612 12.5296 16.7755 11.5985 16.089 10.912C15.4025 10.2255 14.4714 9.83984 13.5005 9.83984ZM13.5005 15.8779C12.8698 15.8779 12.2649 15.6273 11.8189 15.1813C11.3729 14.7353 11.1223 14.1304 11.1223 13.4997C11.1223 12.869 11.3729 12.2641 11.8189 11.8181C12.2649 11.3721 12.8698 11.1216 13.5005 11.1216C14.1312 11.1216 14.7361 11.3721 15.1821 11.8181C15.6281 12.2641 15.8787 12.869 15.8787 13.4997C15.8787 14.1304 15.6281 14.7353 15.1821 15.1813C14.7361 15.6273 14.1312 15.8779 13.5005 15.8779Z" fill="black"/>
<path d="M17.3065 10.5584C17.7779 10.5584 18.16 10.1763 18.16 9.70498C18.16 9.23365 17.7779 8.85156 17.3065 8.85156C16.8352 8.85156 16.4531 9.23365 16.4531 9.70498C16.4531 10.1763 16.8352 10.5584 17.3065 10.5584Z" fill="black"/>
<path d="M20.2537 8.83782C20.0704 8.36455 19.7904 7.93475 19.4314 7.57595C19.0725 7.21715 18.6426 6.93725 18.1692 6.75416C17.6153 6.54623 17.0302 6.4338 16.4387 6.42166C15.6763 6.38841 15.4348 6.37891 13.5016 6.37891C11.5683 6.37891 11.3205 6.37891 10.5645 6.42166C9.97343 6.43318 9.38868 6.54563 8.8355 6.75416C8.36203 6.93703 7.93202 7.21686 7.57306 7.57569C7.21409 7.93452 6.9341 8.36443 6.75104 8.83782C6.54307 9.39168 6.4309 9.9769 6.41933 10.5684C6.38529 11.33 6.375 11.5714 6.375 13.5055C6.375 15.4387 6.375 15.6849 6.41933 16.4426C6.43121 17.0347 6.54283 17.619 6.75104 18.1739C6.93461 18.6472 7.21488 19.0769 7.57393 19.4357C7.93298 19.7945 8.36293 20.0744 8.83629 20.2576C9.38843 20.4739 9.97342 20.5944 10.5661 20.6139C11.3285 20.6471 11.5699 20.6574 13.5032 20.6574C15.4364 20.6574 15.6842 20.6574 16.4402 20.6139C17.0317 20.6018 17.6168 20.4897 18.1708 20.2822C18.6441 20.0986 19.0738 19.8185 19.4327 19.4596C19.7916 19.1007 20.0718 18.6709 20.2553 18.1977C20.4635 17.6435 20.5751 17.0593 20.587 16.4671C20.621 15.7055 20.6313 15.4641 20.6313 13.53C20.6313 11.596 20.6313 11.3506 20.587 10.5929C20.5778 9.99308 20.465 9.39931 20.2537 8.83782ZM19.2895 16.384C19.2844 16.8402 19.2011 17.2922 19.0432 17.7203C18.9244 18.0282 18.7424 18.3077 18.5089 18.541C18.2755 18.7743 17.9958 18.9562 17.6879 19.0749C17.2646 19.232 16.8174 19.3152 16.3658 19.3211C15.6137 19.3559 15.4016 19.3646 13.4731 19.3646C11.543 19.3646 11.3459 19.3646 10.5795 19.3211C10.1282 19.3155 9.68126 19.2323 9.25825 19.0749C8.94925 18.9569 8.66846 18.7754 8.43404 18.542C8.19962 18.3087 8.01679 18.0288 7.89737 17.7203C7.74177 17.2968 7.65854 16.8502 7.65117 16.399C7.61712 15.6469 7.60921 15.4348 7.60921 13.5063C7.60921 11.577 7.60921 11.3799 7.65117 10.6127C7.65628 10.1568 7.73956 9.70503 7.89737 9.2772C8.13883 8.65257 8.63362 8.16095 9.25825 7.92186C9.68147 7.76523 10.1283 7.68196 10.5795 7.67566C11.3324 7.64161 11.5438 7.63211 13.4731 7.63211C15.4024 7.63211 15.6003 7.63211 16.3658 7.67566C16.8174 7.68109 17.2647 7.76438 17.6879 7.92186C17.9958 8.04083 18.2754 8.22286 18.5089 8.45626C18.7423 8.68967 18.9243 8.9693 19.0432 9.2772C19.1989 9.7007 19.2821 10.1474 19.2895 10.5985C19.3235 11.3514 19.3322 11.5627 19.3322 13.492C19.3322 15.4205 19.3322 15.6279 19.2982 16.3848H19.2895V16.384Z" fill="black"/>
</svg>
