<svg width="27" height="27" viewBox="0 0 27 27" fill="none" xmlns="http://www.w3.org/2000/svg">
<circle cx="13.5" cy="13.5" r="13.5" fill="#FFFBF1"/>
<path d="M8.5 8C9.32843 8 10 7.32843 10 6.5C10 5.67157 9.32843 5 8.5 5C7.67157 5 7 5.67157 7 6.5C7 7.32843 7.67157 8 8.5 8Z" fill="black"/>
<path d="M11.8025 10.2412V19.9992H14.7495V15.1736C14.7495 13.9003 14.9825 12.6672 16.5181 12.6672C18.0327 12.6672 18.0514 14.123 18.0514 15.254V20H21V14.6487C21 12.0201 20.4495 10 17.4611 10C16.0263 10 15.0646 10.8095 14.6713 11.5756H14.6314V10.2412H11.8025ZM7 10.2412H9.95169V19.9992H7V10.2412Z" fill="black"/>
</svg>
