<svg width="237" height="12" viewBox="0 0 237 12" fill="none" xmlns="http://www.w3.org/2000/svg">
<path opacity="0.6" d="M235.329 9.06275C235.648 9.05062 235.956 8.98368 236.215 8.86972C236.31 8.83366 236.382 8.77927 236.42 8.71532C236.458 8.65136 236.459 8.58157 236.423 8.51722L233.126 3.48154C233.001 3.28851 232.503 3.17101 231.935 3.19619C194.465 4.87475 156.649 4.36279 118.778 3.45637C80.9061 2.54995 42.8546 1.25746 4.59533 1.25746C4.36383 1.24093 4.12939 1.26543 3.92041 1.328C3.71143 1.39056 3.53688 1.4885 3.41791 1.60996L0.647506 7.06527C0.624812 7.13214 0.638133 7.20166 0.685509 7.2636C0.732885 7.32554 0.811816 7.37664 0.910695 7.40938C1.1805 7.51129 1.49318 7.56375 1.81108 7.56044C39.544 7.40937 77.8587 8.65989 116.783 9.56631C155.707 10.4727 195.296 11.0351 235.329 9.06275Z" fill="#FFBA0A"/>
<path opacity="0.65" d="M172.879 1.02065C172.879 1.63431 154.675 1.8281 136.458 1.92499C118.241 2.02188 100.01 2.0461 99.9962 2.65169C99.9962 2.74858 90.8945 2.70014 74.1159 2.54673C57.3373 2.39331 32.8679 2.10263 2.1878 2.07841C1.82172 2.06779 1.46191 2.13683 1.17804 2.27219C1.12831 2.2972 1.0884 2.32819 1.06105 2.36303C1.03369 2.39786 1.01953 2.43573 1.01953 2.47405C1.01953 2.51237 1.03369 2.55025 1.06105 2.58508C1.0884 2.61992 1.12831 2.65089 1.17804 2.67591L4.67762 4.82372C4.96379 4.9695 5.33571 5.04475 5.71504 5.03365C81.0182 4.83179 156.626 6.74545 232.358 5.2436C232.576 5.25389 232.794 5.23013 232.991 5.17479C233.188 5.11945 233.356 5.03451 233.478 4.92869L236.051 1.08524C236.083 1.02032 236.077 0.951134 236.034 0.888365C235.992 0.825597 235.915 0.772758 235.816 0.738041C235.532 0.639116 235.205 0.591358 234.875 0.600776C215.012 0.915681 199.52 0.947972 189.007 0.972195C178.495 0.996419 172.879 0.988354 172.879 1.02065Z" fill="#FFBA0A"/>
<path opacity="0.6" d="M0.637241 9.44079C0.637241 9.59086 1.0249 9.71592 1.4541 9.71592C79.54 9.82431 157.28 11.5251 234.895 10.9165C235.213 10.9198 235.525 10.8677 235.795 10.7664C235.894 10.7339 235.972 10.6832 236.02 10.6216C236.067 10.5601 236.081 10.491 236.058 10.4246C235.31 8.75714 234.673 7.17305 233.981 5.52227C233.898 5.3055 233.358 5.15543 232.735 5.1721C156.061 7.48153 78.6262 7.54823 1.24642 9.19901C0.886451 9.20735 0.623396 9.29072 0.637241 9.44079Z" fill="#FFBA0A"/>
</svg>
