<svg width="265" height="11" viewBox="0 0 265 11" fill="none" xmlns="http://www.w3.org/2000/svg">
<path opacity="0.6" d="M263.741 8.46315C264.1 8.45101 264.446 8.38407 264.737 8.27011C264.844 8.23406 264.925 8.17966 264.967 8.11571C265.01 8.05175 265.011 7.98196 264.971 7.91761L261.266 2.88193C261.126 2.6889 260.565 2.5714 259.927 2.59658C217.82 4.27514 175.323 3.76318 132.764 2.85676C90.2048 1.95034 47.4435 0.657852 4.44859 0.657852C4.18844 0.64132 3.92498 0.665824 3.69013 0.728389C3.45528 0.790954 3.25913 0.888893 3.12544 1.01035L0.0121226 6.46566C-0.0133806 6.53253 0.00158876 6.60205 0.054829 6.66399C0.108069 6.72593 0.19677 6.77703 0.307887 6.80977C0.611083 6.91168 0.962474 6.96414 1.31971 6.96083C43.723 6.80976 86.7802 8.06028 130.522 8.9667C174.264 9.87313 218.754 10.4354 263.741 8.46315Z" fill="#FFBA0A"/>
<path opacity="0.65" d="M193.561 0.421043C193.561 1.0347 173.104 1.22849 152.632 1.32538C132.16 1.42227 111.673 1.44649 111.657 2.05208C111.657 2.14897 101.429 2.10053 82.5736 1.94712C63.7182 1.7937 36.2201 1.50302 1.74256 1.4788C1.33117 1.46818 0.926821 1.53722 0.607816 1.67258C0.551927 1.69759 0.507082 1.72858 0.476341 1.76342C0.445601 1.79825 0.429688 1.83612 0.429688 1.87444C0.429687 1.91276 0.445601 1.95064 0.476341 1.98547C0.507082 2.02031 0.551927 2.05129 0.607816 2.0763L4.54056 4.22411C4.86215 4.36989 5.2801 4.44514 5.70639 4.43404C90.3303 4.23218 175.296 6.14584 260.402 4.64399C260.647 4.65428 260.892 4.63052 261.114 4.57518C261.335 4.51984 261.524 4.4349 261.661 4.32908L264.552 0.485628C264.588 0.420715 264.581 0.351525 264.533 0.288756C264.486 0.225987 264.399 0.173149 264.288 0.138431C263.969 0.0395069 263.602 -0.00825114 263.231 0.00116688C240.909 0.316071 223.499 0.348362 211.686 0.372586C199.872 0.396809 193.561 0.388745 193.561 0.421043Z" fill="#FFBA0A"/>
<path opacity="0.6" d="M0.00058665 8.84118C0.00058665 8.99125 0.43623 9.11631 0.918549 9.11631C88.6695 9.2247 176.032 10.9255 263.254 10.3169C263.611 10.3202 263.962 10.2681 264.265 10.1668C264.376 10.1343 264.465 10.0835 264.518 10.022C264.571 9.96048 264.586 9.89142 264.56 9.82499C263.72 8.15753 263.005 6.57344 262.227 4.92266C262.133 4.70589 261.527 4.55582 260.826 4.57249C174.662 6.88192 87.6427 6.94862 0.685169 8.5994C0.280643 8.60774 -0.014972 8.69111 0.00058665 8.84118Z" fill="#FFBA0A"/>
</svg>
