<svg width="27" height="27" viewBox="0 0 27 27" fill="none" xmlns="http://www.w3.org/2000/svg">
<circle cx="13.5" cy="13.5" r="13.5" fill="#FFFBF1"/>
<path d="M7.7789 10.4485C7.78802 10.357 7.77558 10.2646 7.74259 10.1789C7.7096 10.0932 7.657 10.0165 7.58906 9.9551L6.18904 8.25505V8H10.5378L13.8994 15.4283L16.8545 8H21V8.25425L19.8017 9.41073C19.7515 9.45009 19.7128 9.50227 19.6894 9.56184C19.666 9.62141 19.6589 9.68619 19.6688 9.74947V18.2505C19.6587 18.3138 19.6658 18.3787 19.6891 18.4383C19.7125 18.4979 19.7514 18.55 19.8017 18.5893L20.9715 19.7457V20H15.0899V19.7457L16.2993 18.5606C16.4195 18.441 16.4195 18.4052 16.4195 18.2226V11.3507L13.0507 19.9721H12.5959L8.67428 11.3507V17.1283C8.64185 17.3714 8.72174 17.6161 8.89179 17.7922L10.4674 19.7186V19.9729H6V19.7186L7.57562 17.7922C7.65851 17.7052 7.72006 17.5998 7.75535 17.4846C7.79065 17.3693 7.79871 17.2473 7.7789 17.1283V10.4485Z" fill="black"/>
</svg>
