<svg width="27" height="27" viewBox="0 0 27 27" fill="none" xmlns="http://www.w3.org/2000/svg">
<circle cx="13.5" cy="13.5" r="13.5" fill="#FFFBF1"/>
<path d="M13.0101 6C9.1384 6 6 9.13085 6 12.9932C6 15.9556 7.84813 18.4849 10.4563 19.5034C10.3945 18.9495 10.3396 18.1021 10.4791 17.4983C10.6072 16.9514 11.3014 14.0231 11.3014 14.0231C11.3014 14.0231 11.0913 13.6014 11.0913 12.984C11.0913 12.0132 11.658 11.2865 12.3593 11.2865C12.9579 11.2865 13.2478 11.7332 13.2478 12.2709C13.2478 12.8703 12.8662 13.7681 12.6676 14.5998C12.5009 15.295 13.0171 15.862 13.7048 15.862C14.9499 15.862 15.909 14.5516 15.909 12.6603C15.909 10.992 14.703 9.82081 12.9807 9.82081C10.9865 9.82081 9.81687 11.3158 9.81687 12.8537C9.81687 13.4552 10.0476 14.1023 10.3379 14.451C10.3949 14.5215 10.4019 14.5831 10.3857 14.654C10.3331 14.8728 10.2142 15.3536 10.1914 15.4494C10.1594 15.5794 10.091 15.6065 9.95633 15.5452C9.08358 15.1418 8.53317 13.8656 8.53317 12.8357C8.53317 10.6324 10.1414 8.60408 13.1658 8.60408C15.5963 8.60408 17.4874 10.3358 17.4874 12.6419C17.4874 15.0552 15.9639 16.9965 13.8442 16.9965C13.1338 16.9965 12.4667 16.6294 12.2316 16.1919L11.7931 17.8531C11.6356 18.4617 11.2058 19.2247 10.9159 19.6876C11.5738 19.888 12.2658 20 12.9921 20C16.8572 20 20 16.8713 20 13.0068C20 9.14441 16.8568 6.01575 12.9921 6.01575L13.0101 6Z" fill="black"/>
</svg>
