<svg width="27" height="27" viewBox="0 0 27 27" fill="none" xmlns="http://www.w3.org/2000/svg">
<circle cx="13.5" cy="13.5" r="13.5" fill="#FFFBF1"/>
<path d="M21.6745 9.72945C21.5835 9.39769 21.4055 9.09514 21.1584 8.85191C20.9112 8.60867 20.6035 8.43324 20.2659 8.34307C19.014 8.0055 14.0055 8.00001 14.0055 8.00001C14.0055 8.00001 8.99788 7.99451 7.74517 8.31716C7.40775 8.41148 7.10068 8.5894 6.85345 8.83382C6.60622 9.07825 6.42713 9.38099 6.33337 9.71296C6.0032 10.9423 6 13.4921 6 13.4921C6 13.4921 5.9968 16.0545 6.32457 17.2713C6.50844 17.9441 7.04806 18.4756 7.73397 18.6569C8.99868 18.9945 13.9935 19 13.9935 19C13.9935 19 19.002 19.0055 20.2539 18.6836C20.5917 18.5936 20.8997 18.4186 21.1474 18.1758C21.3952 17.9331 21.5741 17.6311 21.6665 17.2996C21.9975 16.071 21.9999 13.522 21.9999 13.522C21.9999 13.522 22.0159 10.9588 21.6745 9.72945ZM12.4035 15.8543L12.4075 11.1441L16.5701 13.5031L12.4035 15.8543Z" fill="black"/>
</svg>
