<svg width="57" height="57" viewBox="0 0 57 57" fill="none" xmlns="http://www.w3.org/2000/svg">
<g clip-path="url(#clip0_364_3878)">
<path d="M47.5416 22.7128L43.2328 15.2499L34.6659 23.6787L28.6956 27.1257L29.9882 29.3646L35.9585 25.9176L47.5416 22.7128Z" fill="url(#paint0_linear_364_3878)"/>
<path d="M46.6392 23.7319L41.8996 15.5227C41.6618 15.1107 41.8031 14.5833 42.215 14.3455C42.627 14.1077 43.1544 14.249 43.3922 14.6609L48.1318 22.8701C48.3697 23.2821 48.2283 23.8095 47.8164 24.0473C47.4044 24.2852 46.8771 24.1439 46.6392 23.7319Z" fill="#EBA600"/>
<path d="M30.5636 26.0485L11.9062 36.8203L13.1989 39.0592L17.3184 36.6808C17.276 37.7103 17.5094 38.7696 18.0652 39.7323C18.6211 40.695 19.4217 41.4268 20.342 41.9005C21.9833 42.744 24.0078 42.7692 25.7168 41.7825L36.165 35.7503C38.8367 34.2078 39.7577 30.7705 38.2152 28.0987C36.6727 25.427 33.2353 24.506 30.5636 26.0485ZM34.8723 33.5114L24.4242 39.5436C22.9839 40.3752 21.1357 39.88 20.3041 38.4397C19.4725 36.9993 19.9678 35.1512 21.4081 34.3196L31.8562 28.2874C33.2966 27.4558 35.1447 27.951 35.9763 29.3913C36.8079 30.8317 36.3127 32.6798 34.8723 33.5114Z" fill="url(#paint1_linear_364_3878)"/>
<path d="M13.6293 39.8049C13.0113 40.1617 12.2203 39.9497 11.8635 39.3318L11.0018 37.8392C10.645 37.2212 10.857 36.4302 11.4749 36.0734C12.0928 35.7167 12.8839 35.9286 13.2407 36.5465L14.1024 38.0391C14.4592 38.6571 14.2472 39.4481 13.6293 39.8049Z" fill="#EBA600"/>
<path d="M22.1801 27.9029L20.6875 28.7646L26.2889 38.4665L27.7814 37.6047L22.1801 27.9029Z" fill="url(#paint2_linear_364_3878)"/>
<path d="M24.4184 26.6099L22.9258 27.4717L28.5271 37.1735L30.0197 36.3118L24.4184 26.6099Z" fill="url(#paint3_linear_364_3878)"/>
<path d="M26.6567 25.317L25.1641 26.1787L30.7654 35.8805L32.258 35.0188L26.6567 25.317Z" fill="url(#paint4_linear_364_3878)"/>
<path d="M27.0901 26.0639L21.1198 29.5109C20.7078 29.7488 20.1804 29.6075 19.9426 29.1955C19.7047 28.7836 19.8461 28.2562 20.258 28.0183L26.2284 24.5714C26.6403 24.3335 27.1677 24.4748 27.4055 24.8868C27.6434 25.2987 27.5021 25.8261 27.0901 26.0639Z" fill="#FFD35A"/>
<path d="M24.4217 39.5435L20.3395 41.9004C19.4192 41.4267 18.6186 40.6949 18.0627 39.7321C17.5069 38.7694 17.2735 37.7101 17.3159 36.6806L21.4056 34.3194C19.9653 35.151 19.47 36.9992 20.3016 38.4395C21.1332 39.8799 22.9814 40.3751 24.4217 39.5435Z" fill="url(#paint5_linear_364_3878)"/>
<path opacity="0.05" d="M27.352 36.858L25.8594 37.7197L26.2902 38.466L27.7828 37.6043L27.352 36.858Z" fill="black"/>
<path opacity="0.05" d="M29.5902 35.565L28.0977 36.4268L28.5285 37.1731L30.0211 36.3113L29.5902 35.565Z" fill="black"/>
<path opacity="0.05" d="M31.8285 34.273L30.3359 35.1348L30.7668 35.8811L32.2594 35.0193L31.8285 34.273Z" fill="black"/>
<path opacity="0.07" d="M27.5668 37.231L26.0742 38.0928L26.2897 38.4659L27.7822 37.6042L27.5668 37.231Z" fill="black"/>
<path opacity="0.07" d="M29.8051 35.939L28.3125 36.8008L28.5279 37.1739L30.0205 36.3122L29.8051 35.939Z" fill="black"/>
<path opacity="0.07" d="M32.0434 34.6461L30.5508 35.5078L30.7662 35.881L32.2588 35.0192L32.0434 34.6461Z" fill="black"/>
</g>
<defs>
<linearGradient id="paint0_linear_364_3878" x1="45.5006" y1="18.9159" x2="32.1382" y2="26.6307" gradientUnits="userSpaceOnUse">
<stop stop-color="#FFD869"/>
<stop offset="0.645" stop-color="#FEC52B"/>
<stop offset="0.971" stop-color="#EBA600"/>
</linearGradient>
<linearGradient id="paint1_linear_364_3878" x1="22.061" y1="27.2638" x2="29.9869" y2="40.9919" gradientUnits="userSpaceOnUse">
<stop stop-color="#FFD869"/>
<stop offset="1" stop-color="#FEC52B"/>
</linearGradient>
<linearGradient id="paint2_linear_364_3878" x1="20.1787" y1="26.1598" x2="26.2484" y2="36.6729" gradientUnits="userSpaceOnUse">
<stop stop-color="#EBA84B"/>
<stop offset="1" stop-color="#D97218"/>
</linearGradient>
<linearGradient id="paint3_linear_364_3878" x1="22.4169" y1="24.8669" x2="28.4867" y2="35.3799" gradientUnits="userSpaceOnUse">
<stop stop-color="#EBA84B"/>
<stop offset="1" stop-color="#D97218"/>
</linearGradient>
<linearGradient id="paint4_linear_364_3878" x1="24.6552" y1="23.5739" x2="30.7249" y2="34.0869" gradientUnits="userSpaceOnUse">
<stop stop-color="#EBA84B"/>
<stop offset="1" stop-color="#D97218"/>
</linearGradient>
<linearGradient id="paint5_linear_364_3878" x1="21.1741" y1="39.5199" x2="18.8763" y2="35.5399" gradientUnits="userSpaceOnUse">
<stop offset="0.275" stop-color="#FEC52B" stop-opacity="0"/>
<stop offset="0.971" stop-color="#EBA600"/>
</linearGradient>
<clipPath id="clip0_364_3878">
<rect width="41.3638" height="41.3638" fill="white" transform="translate(0.128906 20.7324) rotate(-30)"/>
</clipPath>
</defs>
</svg>
