<svg width="682" height="30" viewBox="0 0 682 30" fill="none" xmlns="http://www.w3.org/2000/svg">
<path d="M14.0905 19.6847V29.0017H11.28V19.6847L0.5 2.05168H3.5415L12.7815 17.1822L22.0215 2.05168H24.8705L14.0905 19.6847Z" fill="black"/>
<path d="M34.6955 29.1942C32.7448 29.1942 30.9867 28.7578 29.421 27.8852C27.8553 26.9868 26.6233 25.7548 25.725 24.1892C24.8267 22.6235 24.3775 20.8525 24.3775 18.8762C24.3775 16.8998 24.8267 15.1288 25.725 13.5632C26.6233 11.9975 27.8553 10.7783 29.421 9.90567C30.9867 9.03301 32.7448 8.59668 34.6955 8.59668C36.6461 8.59668 38.4043 9.03301 39.97 9.90567C41.5356 10.7783 42.7548 11.9975 43.6275 13.5632C44.5258 15.1288 44.975 16.8998 44.975 18.8762C44.975 20.8525 44.5258 22.6235 43.6275 24.1892C42.7548 25.7548 41.5356 26.9868 39.97 27.8852C38.4043 28.7578 36.6461 29.1942 34.6955 29.1942ZM34.6955 26.7687C36.1328 26.7687 37.4161 26.4478 38.5455 25.8062C39.7005 25.1388 40.5988 24.202 41.2405 22.9957C41.8821 21.7893 42.203 20.4162 42.203 18.8762C42.203 17.3362 41.8821 15.963 41.2405 14.7567C40.5988 13.5503 39.7005 12.6263 38.5455 11.9847C37.4161 11.3173 36.1328 10.9837 34.6955 10.9837C33.2582 10.9837 31.962 11.3173 30.807 11.9847C29.6777 12.6263 28.7793 13.5503 28.112 14.7567C27.4703 15.963 27.1495 17.3362 27.1495 18.8762C27.1495 20.4162 27.4703 21.7893 28.112 22.9957C28.7793 24.202 29.6777 25.1388 30.807 25.8062C31.962 26.4478 33.2582 26.7687 34.6955 26.7687Z" fill="black"/>
<path d="M68.8046 8.75068V29.0017H66.1866V25.3057C65.468 26.5377 64.4798 27.5002 63.2221 28.1932C61.9645 28.8605 60.5271 29.1942 58.9101 29.1942C56.2665 29.1942 54.1747 28.4627 52.6347 26.9997C51.1203 25.511 50.3632 23.3422 50.3632 20.4932V8.75068H53.0967V20.2237C53.0967 22.354 53.6228 23.971 54.6752 25.0747C55.7275 26.1783 57.229 26.7302 59.1796 26.7302C61.31 26.7302 62.9911 26.0885 64.2231 24.8052C65.4551 23.4962 66.0711 21.6867 66.0711 19.3767V8.75068H68.8046Z" fill="black"/>
<path d="M79.0784 12.7162C79.7201 11.3558 80.6697 10.3292 81.9274 9.63618C83.2107 8.94318 84.7892 8.59668 86.6629 8.59668V11.2532L86.0084 11.2147C83.8781 11.2147 82.2097 11.8692 81.0034 13.1782C79.7971 14.4872 79.1939 16.3223 79.1939 18.6837V29.0017H76.4604V8.75068H79.0784V12.7162Z" fill="black"/>
<path d="M108.688 2.55218C107.508 2.55218 106.609 2.87302 105.993 3.51468C105.403 4.15635 105.108 5.10602 105.108 6.36368V8.75068H111.345V11.0607H105.185V29.0017H102.451V11.0607H98.8322V8.75068H102.451V6.24818C102.451 4.40018 102.977 2.93718 104.03 1.85919C105.108 0.781187 106.622 0.242188 108.573 0.242188C109.343 0.242188 110.087 0.357687 110.806 0.588687C111.524 0.794021 112.128 1.10202 112.615 1.51269L111.691 3.55318C110.896 2.88585 109.895 2.55218 108.688 2.55218ZM118.121 8.75068H120.854V29.0017H118.121V8.75068ZM119.507 4.32318C118.942 4.32318 118.467 4.13068 118.082 3.74568C117.697 3.36068 117.505 2.89868 117.505 2.35968C117.505 1.84635 117.697 1.39719 118.082 1.01219C118.467 0.627187 118.942 0.434687 119.507 0.434687C120.071 0.434687 120.546 0.627187 120.931 1.01219C121.316 1.37152 121.509 1.80785 121.509 2.32119C121.509 2.88585 121.316 3.36068 120.931 3.74568C120.546 4.13068 120.071 4.32318 119.507 4.32318Z" fill="black"/>
<path d="M131.114 12.7162C131.755 11.3558 132.705 10.3292 133.963 9.63618C135.246 8.94318 136.824 8.59668 138.698 8.59668V11.2532L138.044 11.2147C135.913 11.2147 134.245 11.8692 133.038 13.1782C131.832 14.4872 131.229 16.3223 131.229 18.6837V29.0017H128.496V8.75068H131.114V12.7162Z" fill="black"/>
<path d="M149.226 29.1942C147.584 29.1942 146.005 28.9632 144.491 28.5012C143.002 28.0135 141.834 27.4103 140.987 26.6917L142.219 24.5357C143.066 25.203 144.131 25.7548 145.415 26.1912C146.698 26.6018 148.033 26.8072 149.419 26.8072C151.267 26.8072 152.627 26.5248 153.5 25.9602C154.398 25.3698 154.847 24.5485 154.847 23.4962C154.847 22.7518 154.603 22.1743 154.116 21.7637C153.628 21.3273 153.012 21.0065 152.268 20.8012C151.523 20.5702 150.535 20.352 149.303 20.1467C147.661 19.8387 146.339 19.5307 145.338 19.2227C144.337 18.889 143.477 18.3372 142.758 17.5672C142.065 16.7972 141.719 15.732 141.719 14.3717C141.719 12.6777 142.425 11.2917 143.836 10.2137C145.248 9.13568 147.211 8.59668 149.727 8.59668C151.036 8.59668 152.345 8.77634 153.654 9.13568C154.963 9.46934 156.041 9.91851 156.888 10.4832L155.694 12.6777C154.026 11.5227 152.037 10.9452 149.727 10.9452C147.981 10.9452 146.66 11.2532 145.761 11.8692C144.889 12.4852 144.452 13.2937 144.452 14.2947C144.452 15.0647 144.696 15.6807 145.184 16.1427C145.697 16.6047 146.326 16.9512 147.07 17.1822C147.815 17.3875 148.841 17.6057 150.15 17.8367C151.767 18.1447 153.063 18.4527 154.039 18.7607C155.014 19.0687 155.848 19.5948 156.541 20.3392C157.234 21.0835 157.581 22.1102 157.581 23.4192C157.581 25.1902 156.836 26.6018 155.348 27.6542C153.885 28.6808 151.844 29.1942 149.226 29.1942Z" fill="black"/>
<path d="M173.299 27.7697C172.785 28.2317 172.144 28.591 171.374 28.8477C170.629 29.0787 169.846 29.1942 169.025 29.1942C167.126 29.1942 165.663 28.6808 164.636 27.6542C163.609 26.6275 163.096 25.1773 163.096 23.3037V11.0607H159.477V8.75068H163.096V4.32318H165.83V8.75068H171.99V11.0607H165.83V23.1497C165.83 24.356 166.125 25.28 166.715 25.9217C167.331 26.5377 168.204 26.8457 169.333 26.8457C169.898 26.8457 170.437 26.7558 170.95 26.5762C171.489 26.3965 171.951 26.1398 172.336 25.8062L173.299 27.7697Z" fill="black"/>
<path d="M176.397 17.3747H186.484V19.7617H176.397V17.3747Z" fill="black"/>
<path d="M201.368 29.1942C199.366 29.1942 197.57 28.7578 195.978 27.8852C194.413 27.0125 193.181 25.7933 192.282 24.2277C191.384 22.6363 190.935 20.8525 190.935 18.8762C190.935 16.8998 191.384 15.1288 192.282 13.5632C193.181 11.9975 194.413 10.7783 195.978 9.90567C197.57 9.03301 199.366 8.59668 201.368 8.59668C203.114 8.59668 204.667 8.94318 206.027 9.63618C207.413 10.3035 208.504 11.2917 209.299 12.6007L207.259 13.9867C206.592 12.9857 205.745 12.2413 204.718 11.7537C203.691 11.2403 202.575 10.9837 201.368 10.9837C199.905 10.9837 198.584 11.3173 197.403 11.9847C196.248 12.6263 195.337 13.5503 194.669 14.7567C194.028 15.963 193.707 17.3362 193.707 18.8762C193.707 20.4418 194.028 21.8278 194.669 23.0342C195.337 24.2148 196.248 25.1388 197.403 25.8062C198.584 26.4478 199.905 26.7687 201.368 26.7687C202.575 26.7687 203.691 26.5248 204.718 26.0372C205.745 25.5495 206.592 24.8052 207.259 23.8042L209.299 25.1902C208.504 26.4992 207.413 27.5002 206.027 28.1932C204.641 28.8605 203.088 29.1942 201.368 29.1942Z" fill="black"/>
<path d="M214.368 0.434687H217.102V29.0017H214.368V0.434687Z" fill="black"/>
<path d="M231.792 8.59668C234.435 8.59668 236.463 9.26401 237.875 10.5987C239.286 11.9077 239.992 13.8583 239.992 16.4507V29.0017H237.374V25.8447C236.758 26.897 235.847 27.7183 234.641 28.3087C233.46 28.899 232.048 29.1942 230.406 29.1942C228.147 29.1942 226.35 28.6552 225.016 27.5772C223.681 26.4992 223.014 25.0747 223.014 23.3037C223.014 21.584 223.63 20.198 224.862 19.1457C226.119 18.0933 228.109 17.5672 230.829 17.5672H237.259V16.3352C237.259 14.5898 236.771 13.268 235.796 12.3697C234.82 11.4457 233.396 10.9837 231.522 10.9837C230.239 10.9837 229.007 11.2018 227.826 11.6382C226.646 12.0488 225.632 12.6263 224.785 13.3707L223.553 11.3302C224.579 10.4575 225.811 9.79018 227.249 9.32818C228.686 8.84051 230.2 8.59668 231.792 8.59668ZM230.829 27.0382C232.369 27.0382 233.691 26.6917 234.795 25.9987C235.898 25.28 236.72 24.2533 237.259 22.9187V19.6077H230.906C227.441 19.6077 225.709 20.814 225.709 23.2267C225.709 24.4073 226.158 25.3442 227.056 26.0372C227.955 26.7045 229.212 27.0382 230.829 27.0382Z" fill="black"/>
<path d="M252.845 29.1942C251.203 29.1942 249.624 28.9632 248.11 28.5012C246.621 28.0135 245.453 27.4103 244.606 26.6917L245.838 24.5357C246.685 25.203 247.75 25.7548 249.034 26.1912C250.317 26.6018 251.652 26.8072 253.038 26.8072C254.886 26.8072 256.246 26.5248 257.119 25.9602C258.017 25.3698 258.466 24.5485 258.466 23.4962C258.466 22.7518 258.222 22.1743 257.735 21.7637C257.247 21.3273 256.631 21.0065 255.887 20.8012C255.142 20.5702 254.154 20.352 252.922 20.1467C251.28 19.8387 249.958 19.5307 248.957 19.2227C247.956 18.889 247.096 18.3372 246.377 17.5672C245.684 16.7972 245.338 15.732 245.338 14.3717C245.338 12.6777 246.044 11.2917 247.455 10.2137C248.867 9.13568 250.83 8.59668 253.346 8.59668C254.655 8.59668 255.964 8.77634 257.273 9.13568C258.582 9.46934 259.66 9.91851 260.507 10.4832L259.313 12.6777C257.645 11.5227 255.656 10.9452 253.346 10.9452C251.6 10.9452 250.279 11.2532 249.38 11.8692C248.508 12.4852 248.071 13.2937 248.071 14.2947C248.071 15.0647 248.315 15.6807 248.803 16.1427C249.316 16.6047 249.945 16.9512 250.689 17.1822C251.434 17.3875 252.46 17.6057 253.769 17.8367C255.386 18.1447 256.682 18.4527 257.658 18.7607C258.633 19.0687 259.467 19.5948 260.16 20.3392C260.853 21.0835 261.2 22.1102 261.2 23.4192C261.2 25.1902 260.455 26.6018 258.967 27.6542C257.504 28.6808 255.463 29.1942 252.845 29.1942Z" fill="black"/>
<path d="M271.682 29.1942C270.039 29.1942 268.46 28.9632 266.946 28.5012C265.457 28.0135 264.29 27.4103 263.443 26.6917L264.675 24.5357C265.522 25.203 266.587 25.7548 267.87 26.1912C269.154 26.6018 270.488 26.8072 271.874 26.8072C273.722 26.8072 275.082 26.5248 275.955 25.9602C276.853 25.3698 277.303 24.5485 277.303 23.4962C277.303 22.7518 277.059 22.1743 276.571 21.7637C276.083 21.3273 275.467 21.0065 274.723 20.8012C273.979 20.5702 272.991 20.352 271.759 20.1467C270.116 19.8387 268.794 19.5307 267.793 19.2227C266.792 18.889 265.932 18.3372 265.214 17.5672C264.521 16.7972 264.174 15.732 264.174 14.3717C264.174 12.6777 264.88 11.2917 266.292 10.2137C267.703 9.13568 269.667 8.59668 272.182 8.59668C273.491 8.59668 274.8 8.77634 276.109 9.13568C277.418 9.46934 278.496 9.91851 279.343 10.4832L278.15 12.6777C276.481 11.5227 274.492 10.9452 272.182 10.9452C270.437 10.9452 269.115 11.2532 268.217 11.8692C267.344 12.4852 266.908 13.2937 266.908 14.2947C266.908 15.0647 267.151 15.6807 267.639 16.1427C268.152 16.6047 268.781 16.9512 269.526 17.1822C270.27 17.3875 271.297 17.6057 272.606 17.8367C274.223 18.1447 275.519 18.4527 276.494 18.7607C277.47 19.0687 278.304 19.5948 278.997 20.3392C279.69 21.0835 280.036 22.1102 280.036 23.4192C280.036 25.1902 279.292 26.6018 277.803 27.6542C276.34 28.6808 274.3 29.1942 271.682 29.1942Z" fill="black"/>
<path d="M305.83 27.7697C305.317 28.2317 304.675 28.591 303.905 28.8477C303.161 29.0787 302.378 29.1942 301.557 29.1942C299.657 29.1942 298.194 28.6808 297.168 27.6542C296.141 26.6275 295.628 25.1773 295.628 23.3037V11.0607H292.009V8.75068H295.628V4.32318H298.361V8.75068H304.521V11.0607H298.361V23.1497C298.361 24.356 298.656 25.28 299.247 25.9217C299.863 26.5377 300.735 26.8457 301.865 26.8457C302.429 26.8457 302.968 26.7558 303.482 26.5762C304.021 26.3965 304.483 26.1398 304.868 25.8062L305.83 27.7697Z" fill="black"/>
<path d="M310.806 8.75068H313.54V29.0017H310.806V8.75068ZM312.192 4.32318C311.628 4.32318 311.153 4.13068 310.768 3.74568C310.383 3.36068 310.19 2.89868 310.19 2.35968C310.19 1.84635 310.383 1.39719 310.768 1.01219C311.153 0.627187 311.628 0.434687 312.192 0.434687C312.757 0.434687 313.232 0.627187 313.617 1.01219C314.002 1.37152 314.194 1.80785 314.194 2.32119C314.194 2.88585 314.002 3.36068 313.617 3.74568C313.232 4.13068 312.757 4.32318 312.192 4.32318Z" fill="black"/>
<path d="M329.539 29.1942C327.537 29.1942 325.74 28.7578 324.149 27.8852C322.583 27.0125 321.351 25.7933 320.453 24.2277C319.554 22.6363 319.105 20.8525 319.105 18.8762C319.105 16.8998 319.554 15.1288 320.453 13.5632C321.351 11.9975 322.583 10.7783 324.149 9.90567C325.74 9.03301 327.537 8.59668 329.539 8.59668C331.284 8.59668 332.837 8.94318 334.197 9.63618C335.583 10.3035 336.674 11.2917 337.47 12.6007L335.429 13.9867C334.762 12.9857 333.915 12.2413 332.888 11.7537C331.862 11.2403 330.745 10.9837 329.539 10.9837C328.076 10.9837 326.754 11.3173 325.573 11.9847C324.418 12.6263 323.507 13.5503 322.84 14.7567C322.198 15.963 321.877 17.3362 321.877 18.8762C321.877 20.4418 322.198 21.8278 322.84 23.0342C323.507 24.2148 324.418 25.1388 325.573 25.8062C326.754 26.4478 328.076 26.7687 329.539 26.7687C330.745 26.7687 331.862 26.5248 332.888 26.0372C333.915 25.5495 334.762 24.8052 335.429 23.8042L337.47 25.1902C336.674 26.4992 335.583 27.5002 334.197 28.1932C332.811 28.8605 331.258 29.1942 329.539 29.1942Z" fill="black"/>
<path d="M350.046 18.8377L345.272 23.2267V29.0017H342.539V0.434687H345.272V19.8002L357.361 8.75068H360.749L352.087 17.0282L361.558 29.0017H358.208L350.046 18.8377Z" fill="black"/>
<path d="M382.467 19.7232H365.527C365.681 21.8278 366.49 23.5347 367.953 24.8437C369.416 26.127 371.264 26.7687 373.497 26.7687C374.754 26.7687 375.909 26.5505 376.962 26.1142C378.014 25.6522 378.925 24.9848 379.695 24.1122L381.235 25.8832C380.337 26.9612 379.207 27.7825 377.847 28.3472C376.512 28.9118 375.037 29.1942 373.42 29.1942C371.341 29.1942 369.493 28.7578 367.876 27.8852C366.284 26.9868 365.039 25.7548 364.141 24.1892C363.243 22.6235 362.794 20.8525 362.794 18.8762C362.794 16.8998 363.217 15.1288 364.064 13.5632C364.937 11.9975 366.117 10.7783 367.606 9.90567C369.12 9.03301 370.814 8.59668 372.688 8.59668C374.562 8.59668 376.243 9.03301 377.732 9.90567C379.22 10.7783 380.388 11.9975 381.235 13.5632C382.082 15.1032 382.506 16.8742 382.506 18.8762L382.467 19.7232ZM372.688 10.9452C370.737 10.9452 369.095 11.574 367.76 12.8317C366.451 14.0637 365.707 15.6807 365.527 17.6827H379.888C379.708 15.6807 378.951 14.0637 377.616 12.8317C376.307 11.574 374.664 10.9452 372.688 10.9452Z" fill="black"/>
<path d="M398.734 27.7697C398.221 28.2317 397.579 28.591 396.809 28.8477C396.065 29.0787 395.282 29.1942 394.46 29.1942C392.561 29.1942 391.098 28.6808 390.071 27.6542C389.045 26.6275 388.531 25.1773 388.531 23.3037V11.0607H384.912V8.75068H388.531V4.32318H391.265V8.75068H397.425V11.0607H391.265V23.1497C391.265 24.356 391.56 25.28 392.15 25.9217C392.766 26.5377 393.639 26.8457 394.768 26.8457C395.333 26.8457 395.872 26.7558 396.385 26.5762C396.924 26.3965 397.386 26.1398 397.771 25.8062L398.734 27.7697Z" fill="black"/>
<path d="M420.87 8.59668C423.514 8.59668 425.542 9.26401 426.953 10.5987C428.365 11.9077 429.071 13.8583 429.071 16.4507V29.0017H426.453V25.8447C425.837 26.897 424.926 27.7183 423.719 28.3087C422.539 28.899 421.127 29.1942 419.484 29.1942C417.226 29.1942 415.429 28.6552 414.094 27.5772C412.76 26.4992 412.092 25.0747 412.092 23.3037C412.092 21.584 412.708 20.198 413.94 19.1457C415.198 18.0933 417.187 17.5672 419.908 17.5672H426.337V16.3352C426.337 14.5898 425.85 13.268 424.874 12.3697C423.899 11.4457 422.474 10.9837 420.601 10.9837C419.317 10.9837 418.085 11.2018 416.905 11.6382C415.724 12.0488 414.71 12.6263 413.863 13.3707L412.631 11.3302C413.658 10.4575 414.89 9.79018 416.327 9.32818C417.765 8.84051 419.279 8.59668 420.87 8.59668ZM419.908 27.0382C421.448 27.0382 422.77 26.6917 423.873 25.9987C424.977 25.28 425.798 24.2533 426.337 22.9187V19.6077H419.985C416.52 19.6077 414.787 20.814 414.787 23.2267C414.787 24.4073 415.236 25.3442 416.135 26.0372C417.033 26.7045 418.291 27.0382 419.908 27.0382Z" fill="black"/>
<path d="M446.929 8.59668C448.828 8.59668 450.548 9.03301 452.088 9.90567C453.628 10.7527 454.834 11.959 455.707 13.5247C456.579 15.0903 457.016 16.8742 457.016 18.8762C457.016 20.8782 456.579 22.662 455.707 24.2277C454.834 25.7933 453.628 27.0125 452.088 27.8852C450.548 28.7578 448.828 29.1942 446.929 29.1942C445.235 29.1942 443.707 28.8348 442.347 28.1162C441.012 27.3975 439.935 26.358 439.113 24.9977V29.0017H436.495V0.434687H439.229V12.6007C440.076 11.2917 441.154 10.3035 442.463 9.63618C443.797 8.94318 445.286 8.59668 446.929 8.59668ZM446.736 26.7687C448.148 26.7687 449.431 26.4478 450.586 25.8062C451.741 25.1388 452.639 24.202 453.281 22.9957C453.948 21.7893 454.282 20.4162 454.282 18.8762C454.282 17.3362 453.948 15.963 453.281 14.7567C452.639 13.5503 451.741 12.6263 450.586 11.9847C449.431 11.3173 448.148 10.9837 446.736 10.9837C445.299 10.9837 444.003 11.3173 442.848 11.9847C441.718 12.6263 440.82 13.5503 440.153 14.7567C439.511 15.963 439.19 17.3362 439.19 18.8762C439.19 20.4162 439.511 21.7893 440.153 22.9957C440.82 24.202 441.718 25.1388 442.848 25.8062C444.003 26.4478 445.299 26.7687 446.736 26.7687Z" fill="black"/>
<path d="M465.206 12.7162C465.848 11.3558 466.797 10.3292 468.055 9.63618C469.338 8.94318 470.917 8.59668 472.79 8.59668V11.2532L472.136 11.2147C470.006 11.2147 468.337 11.8692 467.131 13.1782C465.925 14.4872 465.321 16.3223 465.321 18.6837V29.0017H462.588V8.75068H465.206V12.7162Z" fill="black"/>
<path d="M485.829 29.1942C483.879 29.1942 482.12 28.7578 480.555 27.8852C478.989 26.9868 477.757 25.7548 476.859 24.1892C475.96 22.6235 475.511 20.8525 475.511 18.8762C475.511 16.8998 475.96 15.1288 476.859 13.5632C477.757 11.9975 478.989 10.7783 480.555 9.90567C482.12 9.03301 483.879 8.59668 485.829 8.59668C487.78 8.59668 489.538 9.03301 491.104 9.90567C492.669 10.7783 493.889 11.9975 494.761 13.5632C495.66 15.1288 496.109 16.8998 496.109 18.8762C496.109 20.8525 495.66 22.6235 494.761 24.1892C493.889 25.7548 492.669 26.9868 491.104 27.8852C489.538 28.7578 487.78 29.1942 485.829 29.1942ZM485.829 26.7687C487.267 26.7687 488.55 26.4478 489.679 25.8062C490.834 25.1388 491.733 24.202 492.374 22.9957C493.016 21.7893 493.337 20.4162 493.337 18.8762C493.337 17.3362 493.016 15.963 492.374 14.7567C491.733 13.5503 490.834 12.6263 489.679 11.9847C488.55 11.3173 487.267 10.9837 485.829 10.9837C484.392 10.9837 483.096 11.3173 481.941 11.9847C480.811 12.6263 479.913 13.5503 479.246 14.7567C478.604 15.963 478.283 17.3362 478.283 18.8762C478.283 20.4162 478.604 21.7893 479.246 22.9957C479.913 24.202 480.811 25.1388 481.941 25.8062C483.096 26.4478 484.392 26.7687 485.829 26.7687Z" fill="black"/>
<path d="M508.661 8.59668C511.304 8.59668 513.332 9.26401 514.744 10.5987C516.155 11.9077 516.861 13.8583 516.861 16.4507V29.0017H514.243V25.8447C513.627 26.897 512.716 27.7183 511.51 28.3087C510.329 28.899 508.917 29.1942 507.275 29.1942C505.016 29.1942 503.219 28.6552 501.885 27.5772C500.55 26.4992 499.883 25.0747 499.883 23.3037C499.883 21.584 500.499 20.198 501.731 19.1457C502.988 18.0933 504.977 17.5672 507.698 17.5672H514.128V16.3352C514.128 14.5898 513.64 13.268 512.665 12.3697C511.689 11.4457 510.265 10.9837 508.391 10.9837C507.108 10.9837 505.876 11.2018 504.695 11.6382C503.514 12.0488 502.501 12.6263 501.654 13.3707L500.422 11.3302C501.448 10.4575 502.68 9.79018 504.118 9.32818C505.555 8.84051 507.069 8.59668 508.661 8.59668ZM507.698 27.0382C509.238 27.0382 510.56 26.6917 511.664 25.9987C512.767 25.28 513.589 24.2533 514.128 22.9187V19.6077H507.775C504.31 19.6077 502.578 20.814 502.578 23.2267C502.578 24.4073 503.027 25.3442 503.925 26.0372C504.823 26.7045 506.081 27.0382 507.698 27.0382Z" fill="black"/>
<path d="M542.841 0.434687V29.0017H540.223V24.9977C539.401 26.358 538.311 27.3975 536.95 28.1162C535.616 28.8348 534.101 29.1942 532.407 29.1942C530.508 29.1942 528.788 28.7578 527.248 27.8852C525.708 27.0125 524.502 25.7933 523.629 24.2277C522.757 22.662 522.32 20.8782 522.32 18.8762C522.32 16.8742 522.757 15.0903 523.629 13.5247C524.502 11.959 525.708 10.7527 527.248 9.90567C528.788 9.03301 530.508 8.59668 532.407 8.59668C534.05 8.59668 535.526 8.94318 536.835 9.63618C538.169 10.3035 539.26 11.2917 540.107 12.6007V0.434687H542.841ZM532.638 26.7687C534.05 26.7687 535.32 26.4478 536.45 25.8062C537.605 25.1388 538.503 24.202 539.145 22.9957C539.812 21.7893 540.146 20.4162 540.146 18.8762C540.146 17.3362 539.812 15.963 539.145 14.7567C538.503 13.5503 537.605 12.6263 536.45 11.9847C535.32 11.3173 534.05 10.9837 532.638 10.9837C531.201 10.9837 529.905 11.3173 528.75 11.9847C527.62 12.6263 526.722 13.5503 526.055 14.7567C525.413 15.963 525.092 17.3362 525.092 18.8762C525.092 20.4162 525.413 21.7893 526.055 22.9957C526.722 24.202 527.62 25.1388 528.75 25.8062C529.905 26.4478 531.201 26.7687 532.638 26.7687Z" fill="black"/>
<path d="M560.53 8.75068H563.263V29.0017H560.53V8.75068ZM561.916 4.32318C561.351 4.32318 560.876 4.13068 560.491 3.74568C560.106 3.36068 559.914 2.89868 559.914 2.35968C559.914 1.84635 560.106 1.39719 560.491 1.01219C560.876 0.627187 561.351 0.434687 561.916 0.434687C562.48 0.434687 562.955 0.627187 563.34 1.01219C563.725 1.37152 563.918 1.80785 563.918 2.32119C563.918 2.88585 563.725 3.36068 563.34 3.74568C562.955 4.13068 562.48 4.32318 561.916 4.32318Z" fill="black"/>
<path d="M576.297 29.1942C574.655 29.1942 573.076 28.9632 571.562 28.5012C570.073 28.0135 568.906 27.4103 568.059 26.6917L569.291 24.5357C570.138 25.203 571.203 25.7548 572.486 26.1912C573.769 26.6018 575.104 26.8072 576.49 26.8072C578.338 26.8072 579.698 26.5248 580.571 25.9602C581.469 25.3698 581.919 24.5485 581.919 23.4962C581.919 22.7518 581.675 22.1743 581.187 21.7637C580.699 21.3273 580.083 21.0065 579.339 20.8012C578.595 20.5702 577.607 20.352 576.375 20.1467C574.732 19.8387 573.41 19.5307 572.409 19.2227C571.408 18.889 570.548 18.3372 569.83 17.5672C569.137 16.7972 568.79 15.732 568.79 14.3717C568.79 12.6777 569.496 11.2917 570.908 10.2137C572.319 9.13568 574.283 8.59668 576.798 8.59668C578.107 8.59668 579.416 8.77634 580.725 9.13568C582.034 9.46934 583.112 9.91851 583.959 10.4832L582.766 12.6777C581.097 11.5227 579.108 10.9452 576.798 10.9452C575.053 10.9452 573.731 11.2532 572.833 11.8692C571.96 12.4852 571.524 13.2937 571.524 14.2947C571.524 15.0647 571.767 15.6807 572.255 16.1427C572.768 16.6047 573.397 16.9512 574.142 17.1822C574.886 17.3875 575.913 17.6057 577.222 17.8367C578.839 18.1447 580.135 18.4527 581.11 18.7607C582.085 19.0687 582.919 19.5948 583.612 20.3392C584.305 21.0835 584.652 22.1102 584.652 23.4192C584.652 25.1902 583.908 26.6018 582.419 27.6542C580.956 28.6808 578.916 29.1942 576.297 29.1942Z" fill="black"/>
<path d="M610.1 8.59668C612.641 8.59668 614.655 9.34101 616.144 10.8297C617.658 12.2927 618.416 14.4358 618.416 17.2592V29.0017H615.682V17.5287C615.682 15.424 615.156 13.8198 614.104 12.7162C613.051 11.6125 611.55 11.0607 609.599 11.0607C607.417 11.0607 605.685 11.7152 604.402 13.0242C603.144 14.3075 602.515 16.0913 602.515 18.3757V29.0017H599.782V0.434687H602.515V12.2927C603.259 11.112 604.286 10.2008 605.595 9.55918C606.904 8.91751 608.406 8.59668 610.1 8.59668Z" fill="black"/>
<path d="M643.545 19.7232H626.605C626.759 21.8278 627.567 23.5347 629.03 24.8437C630.493 26.127 632.341 26.7687 634.574 26.7687C635.832 26.7687 636.987 26.5505 638.039 26.1142C639.092 25.6522 640.003 24.9848 640.773 24.1122L642.313 25.8832C641.415 26.9612 640.285 27.7825 638.925 28.3472C637.59 28.9118 636.114 29.1942 634.497 29.1942C632.418 29.1942 630.57 28.7578 628.953 27.8852C627.362 26.9868 626.117 25.7548 625.219 24.1892C624.321 22.6235 623.871 20.8525 623.871 18.8762C623.871 16.8998 624.295 15.1288 625.142 13.5632C626.015 11.9975 627.195 10.7783 628.684 9.90567C630.198 9.03301 631.892 8.59668 633.766 8.59668C635.64 8.59668 637.321 9.03301 638.809 9.90567C640.298 10.7783 641.466 11.9975 642.313 13.5632C643.16 15.1032 643.583 16.8742 643.583 18.8762L643.545 19.7232ZM633.766 10.9452C631.815 10.9452 630.173 11.574 628.838 12.8317C627.529 14.0637 626.785 15.6807 626.605 17.6827H640.965C640.786 15.6807 640.029 14.0637 638.694 12.8317C637.385 11.574 635.742 10.9452 633.766 10.9452Z" fill="black"/>
<path d="M651.765 12.7162C652.407 11.3558 653.357 10.3292 654.614 9.63618C655.898 8.94318 657.476 8.59668 659.35 8.59668V11.2532L658.695 11.2147C656.565 11.2147 654.897 11.8692 653.69 13.1782C652.484 14.4872 651.881 16.3223 651.881 18.6837V29.0017H649.147V8.75068H651.765V12.7162Z" fill="black"/>
<path d="M681.744 19.7232H664.804C664.958 21.8278 665.767 23.5347 667.23 24.8437C668.693 26.127 670.541 26.7687 672.774 26.7687C674.031 26.7687 675.186 26.5505 676.239 26.1142C677.291 25.6522 678.202 24.9848 678.972 24.1122L680.512 25.8832C679.614 26.9612 678.484 27.7825 677.124 28.3472C675.789 28.9118 674.314 29.1942 672.697 29.1942C670.618 29.1942 668.77 28.7578 667.153 27.8852C665.561 26.9868 664.316 25.7548 663.418 24.1892C662.52 22.6235 662.071 20.8525 662.071 18.8762C662.071 16.8998 662.494 15.1288 663.341 13.5632C664.214 11.9975 665.394 10.7783 666.883 9.90567C668.397 9.03301 670.091 8.59668 671.965 8.59668C673.839 8.59668 675.52 9.03301 677.009 9.90567C678.497 10.7783 679.665 11.9975 680.512 13.5632C681.359 15.1032 681.783 16.8742 681.783 18.8762L681.744 19.7232ZM671.965 10.9452C670.014 10.9452 668.372 11.574 667.037 12.8317C665.728 14.0637 664.984 15.6807 664.804 17.6827H679.165C678.985 15.6807 678.228 14.0637 676.893 12.8317C675.584 11.574 673.941 10.9452 671.965 10.9452Z" fill="black"/>
</svg>
