<svg width="217" height="152" viewBox="0 0 217 152" fill="none" xmlns="http://www.w3.org/2000/svg">
<rect x="1.02734" y="97.1697" width="210.971" height="61.5333" rx="12" transform="rotate(-27.3615 1.02734 97.1697)" fill="#FFCA18"/>
<path d="M48.715 118.493C48.5444 118.163 48.2883 117.647 47.9466 116.943C47.6133 116.213 47.2264 115.4 46.7859 114.506C46.3629 113.602 45.9173 112.655 45.4494 111.664C44.9814 110.674 44.5272 109.731 44.0867 108.836C43.6637 107.933 43.2813 107.129 42.9396 106.425C42.5979 105.722 42.3459 105.192 42.1838 104.835C41.9516 104.471 41.8953 104.192 42.0149 103.998C42.1345 103.804 42.2984 103.653 42.5065 103.545C42.732 103.428 42.9318 103.347 43.1058 103.301C43.2972 103.245 43.4904 103.321 43.6855 103.529L50.1898 117.135C50.3166 117.465 50.1905 117.817 49.8113 118.189C49.4232 118.545 49.0577 118.646 48.715 118.493Z" fill="black"/>
<path d="M54.5686 114.535C53.7378 114.459 52.9876 114.221 52.3182 113.819C51.6398 113.4 51.121 112.843 50.762 112.148C50.403 111.453 50.0807 110.575 49.7951 109.512C49.5096 108.449 49.312 107.428 49.2023 106.45C49.11 105.463 49.0918 104.47 49.1479 103.473C49.2212 102.466 49.4002 101.514 49.6847 100.618C50.3303 98.6764 51.477 97.2786 53.1248 96.4247C55.345 95.2743 57.4667 95.2098 59.4899 96.2312C61.3456 97.1412 62.8389 98.6904 63.9699 100.879C65.3073 103.466 65.5247 105.908 64.6219 108.203C63.7269 110.428 61.9439 112.233 59.2727 113.617C57.729 114.417 56.161 114.723 54.5686 114.535ZM52.2028 111.17C53.4146 113.515 55.6856 113.825 59.0158 112.099C61.4094 110.859 62.886 109.312 63.4455 107.459C64.0223 105.596 63.7228 103.528 62.5469 101.253C62.511 101.183 62.4751 101.114 62.4392 101.044C61.407 99.047 60.1228 97.7748 58.5865 97.2277C57.0503 96.6806 55.4237 96.8519 53.7065 97.7417C53.5157 97.8405 53.3423 97.9304 53.1862 98.0113C53.0474 98.0832 52.9173 98.1506 52.7959 98.2135C51.8766 98.6899 51.2891 99.7869 51.0335 101.505C50.776 103.091 50.806 104.936 51.1234 107.04C51.4122 108.96 51.7719 110.337 52.2028 111.17Z" fill="black"/>
<path d="M71.9088 105.55C71.0779 105.475 70.3278 105.236 69.6583 104.834C68.9799 104.415 68.4612 103.858 68.1021 103.163C67.7431 102.468 67.4208 101.59 67.1353 100.527C66.8497 99.4635 66.6521 98.443 66.5424 97.4649C66.4501 96.4779 66.432 95.4855 66.488 94.4876C66.5614 93.4808 66.7403 92.5293 67.0249 91.6333C67.6705 89.6914 68.8172 88.2935 70.465 87.4397C72.6851 86.2893 74.8068 86.2248 76.83 87.2462C78.6857 88.1562 80.1791 89.7054 81.31 91.8937C82.6475 94.4814 82.8648 96.9229 81.9621 99.2182C81.0671 101.443 79.284 103.248 76.6129 104.632C75.0692 105.432 73.5011 105.738 71.9088 105.55ZM69.5429 102.185C70.7547 104.53 73.0257 104.84 76.3559 103.114C78.7495 101.874 80.2261 100.327 80.7856 98.4737C81.3625 96.6115 81.0629 94.5428 79.8871 92.2677C79.8512 92.1982 79.8153 92.1287 79.7794 92.0593C78.7471 90.062 77.4629 88.7898 75.9267 88.2427C74.3905 87.6956 72.7638 87.8669 71.0466 88.7567C70.8558 88.8555 70.6824 88.9454 70.5263 89.0263C70.3875 89.0982 70.2574 89.1656 70.136 89.2285C69.2167 89.7049 68.6293 90.8019 68.3736 92.5197C68.1161 94.1064 68.1461 95.9514 68.4636 98.0548C68.7523 99.9749 69.1121 101.352 69.5429 102.185Z" fill="black"/>
<path d="M94.9278 93.1934C94.4463 93.1127 94.0601 92.9825 93.7694 92.8029C93.4786 92.6232 93.2166 92.3077 92.9832 91.8561C92.7408 91.3872 92.634 90.9251 92.6626 90.4699C92.7133 89.7171 93.0855 89.1609 93.7793 88.8014C94.2303 88.5677 94.7091 88.4517 95.2157 88.4534C96.2554 88.4652 97.0163 88.8525 97.4986 89.6155C97.9474 90.4839 98.066 91.16 97.8543 91.644C97.6337 92.1106 97.1765 92.5237 96.4827 92.8832C95.945 93.1618 95.4267 93.2652 94.9278 93.1934ZM96.0469 89.8062C95.4588 89.6045 94.9307 89.625 94.4623 89.8676C93.9247 90.1463 93.7339 90.5644 93.8902 91.1219C93.9261 91.1914 93.9889 91.313 94.0787 91.4866C94.1594 91.6429 94.3892 91.8322 94.7679 92.0543C95.2147 92.153 95.6032 92.1389 95.9334 92.0118C96.5937 91.7578 96.8451 91.3082 96.6877 90.6632C96.6428 90.5763 96.5845 90.4635 96.5127 90.3245C96.4319 90.1682 96.2766 89.9955 96.0469 89.8062ZM82.7481 86.987C82.2666 86.9062 81.8805 86.776 81.5897 86.5964C81.299 86.4168 81.0369 86.1012 80.8035 85.6497C80.5612 85.1807 80.4543 84.7187 80.4829 84.2635C80.5336 83.5106 80.9059 82.9544 81.5997 82.5949C82.0506 82.3613 82.5294 82.2453 83.0361 82.247C84.0757 82.2587 84.8366 82.6461 85.3189 83.409C85.7677 84.2774 85.8863 84.9536 85.6747 85.4376C85.454 85.9042 84.9968 86.3172 84.303 86.6767C83.7653 86.9554 83.247 87.0588 82.7481 86.987ZM83.8672 83.5998C83.2792 83.3981 82.751 83.4185 82.2827 83.6612C81.745 83.9398 81.5588 84.3666 81.724 84.9415C81.7509 84.9936 81.8092 85.1065 81.899 85.2802C81.9798 85.4365 82.2095 85.6257 82.5882 85.8479C83.0351 85.9466 83.4149 85.9369 83.7277 85.8189C84.0579 85.6918 84.2824 85.5094 84.4014 85.2716C84.5712 84.9194 84.5843 84.6044 84.4407 84.3265C84.2881 84.0312 84.097 83.789 83.8672 83.5998ZM88.7863 98.1593C88.5261 98.2941 88.2748 98.127 88.0325 97.6581L87.9113 97.4236C87.6151 96.8505 87.7388 93.4947 88.2825 87.356C88.6071 83.6869 88.8788 81.2342 89.0975 79.9979C89.3245 78.7353 89.4727 78.0861 89.5421 78.0501C89.6019 77.9531 89.6578 77.8911 89.7098 77.8641C89.7792 77.8282 89.8633 77.9057 89.962 78.0967C90.0518 78.2704 90.115 78.7331 90.1516 79.4847C90.2056 80.2274 90.2222 81.1105 90.2015 82.1341C90.1891 83.1314 90.1562 84.2163 90.1026 85.3891C90.0663 86.5528 90.0002 87.7651 89.9041 89.0259C89.8165 90.2603 89.715 91.4468 89.5998 92.5854C89.33 95.1693 89.0588 97.0272 88.7863 98.1593Z" fill="black"/>
<path d="M123.511 69.2341C123.598 69.1892 123.762 69.4011 124.005 69.8701C124.247 70.339 124.43 70.6513 124.555 70.807L116.196 76.5252L119.654 82.0659L117.492 83.0537C116.684 81.4906 115.586 79.7916 114.198 77.9568L111.489 81.0119C111.264 81.1287 111.006 81.0973 110.715 80.9177C110.204 80.61 109.854 80.2737 109.666 79.909L112.893 76.4531C111.003 73.6457 109.577 71.3128 108.617 69.4545C107.647 67.5788 107.049 66.0391 106.823 64.8352C106.597 63.6314 106.689 62.7031 107.099 62.0501C107.517 61.3709 108.065 60.856 108.741 60.5054C109.418 60.1549 110.179 59.9476 111.026 59.8833C111.889 59.8101 112.759 59.8329 113.634 59.952C114.509 60.071 115.32 60.3002 116.067 60.6396C116.806 60.9617 117.314 61.392 117.592 61.9303C117.807 62.3472 117.917 62.6649 117.92 62.8835C116.723 62.2704 115.433 61.8379 114.05 61.5861C112.403 61.2941 111.06 61.4178 110.019 61.957C109.031 62.4693 108.735 63.5142 109.133 65.0917C109.353 65.902 109.809 66.9758 110.501 68.3131C111.183 69.6331 111.846 70.8308 112.49 71.9064C113.125 72.9646 113.903 73.9595 114.824 74.8913C115.899 74.3341 117.056 73.6139 118.292 72.7308C120.653 71.0012 122.392 69.8357 123.511 69.2341Z" fill="black"/>
<path d="M137.286 61.0728C136.288 60.9292 135.217 61.154 134.072 61.7472C132.996 62.3044 132.102 63.0209 131.389 63.8967C130.032 65.5249 129.328 67.0784 129.279 68.5572C129.271 69.222 129.419 69.8496 129.725 70.4401C129.778 70.5443 129.931 70.8396 130.182 71.3259C130.425 71.7948 130.844 72.3924 131.439 73.1188C132.025 73.8279 132.534 74.5992 132.965 75.4328C132.609 75.6389 132.337 75.8351 132.147 76.0214C131.958 76.2077 131.785 76.3413 131.629 76.4222C131.473 76.5031 131.298 76.5056 131.105 76.4295C130.929 76.3445 130.668 76.1382 130.323 75.8107C130.252 75.7155 130.065 75.4382 129.761 74.9789C129.458 74.5195 129.083 73.965 128.638 73.3152C128.209 72.6565 127.732 71.946 127.206 71.1836C126.689 70.3949 126.18 69.6236 125.68 68.8696C124.592 67.2318 123.785 66.0317 123.259 65.2693C123.043 64.8525 123.239 64.4868 123.846 64.1722C124.211 63.9835 124.578 63.9915 124.947 64.1963C125.308 64.3837 125.652 64.6456 125.98 64.9822C126.299 65.3013 126.575 65.643 126.807 66.0071C127.056 66.3622 127.239 66.6089 127.354 66.7473C128.585 63.5116 130.9 61.0129 134.299 59.2514C134.681 59.0537 135.084 58.8556 135.509 58.6573C135.604 58.586 135.73 58.5099 135.886 58.429C136.042 58.3481 136.252 58.3715 136.516 58.499C136.833 58.6433 137.081 58.8891 137.26 59.2364C137.709 60.1048 137.717 60.7169 137.286 61.0728Z" fill="black"/>
<path d="M149.023 64.7339C150.55 63.943 152.489 62.0575 154.841 59.0773C155.031 58.9784 155.223 58.967 155.417 59.043C155.601 59.1017 155.738 59.2179 155.828 59.3915C155.744 60.932 154.893 62.54 153.274 64.2156C151.655 65.8911 149.884 66.9522 147.96 67.3988C145.774 67.8928 144.042 67.414 142.764 65.9624C142.559 65.6504 142.313 65.2165 142.026 64.6608C141.738 64.105 141.5 63.3037 141.311 62.2568C141.13 61.1835 141.175 60.059 141.447 58.8832C141.719 57.7075 142.202 56.6425 142.897 55.6882C143.591 54.734 144.467 53.9827 145.525 53.4345C146.531 52.9132 147.838 52.6764 149.446 52.724C150.206 52.7484 150.868 52.8791 151.43 53.1162C151.992 53.3532 152.386 53.6889 152.61 54.123C152.673 54.2446 152.727 54.3707 152.772 54.5012C153.285 55.5786 153.119 56.5124 152.274 57.3026C151.903 57.6488 151.432 57.9702 150.859 58.2668L147.032 60.0518C145.783 60.6989 144.968 61.4624 144.588 62.3424C144.359 62.8353 144.319 63.4175 144.468 64.0889C145.718 65.4446 147.237 65.6596 149.023 64.7339ZM149.494 54.2845C148.969 54.2043 148.467 54.2113 147.987 54.3054C147.508 54.3996 147.13 54.5185 146.852 54.6623C146.575 54.8061 146.173 55.1353 145.648 55.6499C145.113 56.1471 144.661 56.6345 144.292 57.1119C143.383 58.2878 143.085 59.1797 143.399 59.7875C144.85 59.1901 145.922 58.7116 146.615 58.3521C148.541 57.3545 149.756 56.5155 150.262 55.835C150.589 55.4456 150.685 55.1207 150.55 54.8601C150.388 54.5475 150.036 54.3556 149.494 54.2845Z" fill="black"/>
<path d="M163.97 56.9892C165.496 56.1983 167.435 54.3128 169.787 51.3326C169.978 51.2337 170.17 51.2223 170.363 51.2983C170.547 51.357 170.684 51.4732 170.774 51.6468C170.691 53.1873 169.84 54.7953 168.221 56.4709C166.602 58.1464 164.83 59.2075 162.906 59.6541C160.721 60.148 158.989 59.6692 157.711 58.2177C157.505 57.9057 157.259 57.4718 156.972 56.916C156.685 56.3603 156.447 55.5589 156.257 54.512C156.076 53.4388 156.122 52.3143 156.394 51.1385C156.666 49.9627 157.149 48.8977 157.843 47.9435C158.537 46.9892 159.414 46.238 160.472 45.6898C161.478 45.1685 162.785 44.9316 164.393 44.9792C165.153 45.0036 165.814 45.1344 166.376 45.3714C166.939 45.6085 167.332 45.9441 167.557 46.3783C167.619 46.4999 167.674 46.626 167.719 46.7565C168.232 47.8339 168.066 48.7677 167.221 49.5578C166.85 49.9041 166.378 50.2255 165.806 50.5221L161.979 52.3071C160.73 52.9542 159.915 53.7177 159.534 54.5976C159.305 55.0906 159.265 55.6728 159.414 56.3442C160.665 57.6999 162.183 57.9149 163.97 56.9892ZM164.44 46.5398C163.915 46.4596 163.413 46.4666 162.934 46.5607C162.455 46.6549 162.076 46.7738 161.799 46.9176C161.521 47.0614 161.12 47.3906 160.594 47.9052C160.06 48.4024 159.608 48.8898 159.239 49.3672C158.329 50.5431 158.031 51.435 158.346 52.0428C159.796 51.4454 160.868 50.9669 161.562 50.6074C163.487 49.6098 164.703 48.7707 165.209 48.0903C165.535 47.7009 165.631 47.3759 165.497 47.1154C165.335 46.8028 164.983 46.6109 164.44 46.5398Z" fill="black"/>
<path d="M174.586 51.5875C175.314 51.21 175.792 51.0503 176.02 51.1083C176.266 51.1574 176.429 51.2601 176.509 51.4164C176.678 52.21 176.477 52.8425 175.907 53.314C175.812 53.3852 175.703 53.4524 175.582 53.5153C175.461 53.5782 175.287 53.6243 175.06 53.6537C174.851 53.6741 174.658 53.62 174.481 53.4912C174.066 53.1559 174.101 52.5213 174.586 51.5875ZM164.579 29.2273C164.709 29.7328 166.115 32.5819 168.799 37.7748C171.474 42.9502 172.883 45.9962 173.027 46.9125L171.284 47.8157C170.359 46.0269 169.271 43.7506 168.018 40.9867C165.559 35.6333 163.859 32.0448 162.916 30.2213L164.579 29.2273Z" fill="black"/>
</svg>
