<svg width="301" height="38" viewBox="0 0 301 38" fill="none" xmlns="http://www.w3.org/2000/svg">
<path d="M21.7659 16.1692H24.4994V26.4487C23.2417 27.5524 21.7531 28.3994 20.0334 28.9897C18.3138 29.5801 16.5043 29.8752 14.6049 29.8752C11.9099 29.8752 9.48443 29.2849 7.32843 28.1042C5.17243 26.9236 3.47843 25.2937 2.24644 23.2147C1.01444 21.1101 0.398438 18.7616 0.398438 16.1692C0.398438 13.5769 1.01444 11.2413 2.24644 9.16226C3.47843 7.05759 5.17243 5.41493 7.32843 4.23426C9.48443 3.0536 11.9228 2.46326 14.6434 2.46326C16.6968 2.46326 18.5832 2.79693 20.3029 3.46426C22.0226 4.10593 23.4727 5.06843 24.6534 6.35176L22.8824 8.16126C20.7521 6.05659 18.0443 5.00426 14.7589 5.00426C12.5773 5.00426 10.6009 5.49193 8.82993 6.46726C7.0846 7.41693 5.71143 8.75159 4.71043 10.4713C3.70943 12.1653 3.20893 14.0646 3.20893 16.1692C3.20893 18.2739 3.70943 20.1732 4.71043 21.8672C5.71143 23.5612 7.0846 24.8959 8.82993 25.8712C10.5753 26.8466 12.5388 27.3342 14.7204 27.3342C17.4924 27.3342 19.8409 26.6412 21.7659 25.2552V16.1692Z" fill="black"/>
<path d="M50.2342 9.39326V29.6442H47.6162V25.9482C46.8976 27.1802 45.9094 28.1427 44.6517 28.8357C43.3941 29.5031 41.9567 29.8367 40.3397 29.8367C37.6961 29.8367 35.6042 29.1052 34.0642 27.6422C32.5499 26.1536 31.7927 23.9847 31.7927 21.1357V9.39326H34.5262V20.8662C34.5262 22.9966 35.0524 24.6136 36.1047 25.7172C37.1571 26.8209 38.6586 27.3727 40.6092 27.3727C42.7396 27.3727 44.4207 26.7311 45.6527 25.4477C46.8847 24.1387 47.5007 22.3292 47.5007 20.0192V9.39326H50.2342Z" fill="black"/>
<path d="M68.5545 28.4122C68.0411 28.8742 67.3995 29.2336 66.6295 29.4902C65.8852 29.7212 65.1023 29.8367 64.281 29.8367C62.3817 29.8367 60.9187 29.3234 59.892 28.2967C58.8653 27.2701 58.352 25.8199 58.352 23.9462V11.7033H54.733V9.39326H58.352V4.96576H61.0855V9.39326H67.2455V11.7033H61.0855V23.7922C61.0855 24.9986 61.3807 25.9226 61.971 26.5642C62.587 27.1802 63.4597 27.4882 64.589 27.4882C65.1537 27.4882 65.6927 27.3984 66.206 27.2187C66.745 27.0391 67.207 26.7824 67.592 26.4487L68.5545 28.4122Z" fill="black"/>
<path d="M90.4492 20.3657H73.5092C73.6632 22.4704 74.4717 24.1772 75.9347 25.4862C77.3977 26.7696 79.2457 27.4112 81.4787 27.4112C82.7364 27.4112 83.8914 27.1931 84.9437 26.7567C85.9961 26.2947 86.9072 25.6274 87.6772 24.7547L89.2172 26.5257C88.3189 27.6037 87.1896 28.4251 85.8292 28.9897C84.4946 29.5544 83.0187 29.8367 81.4017 29.8367C79.3227 29.8367 77.4747 29.4004 75.8577 28.5277C74.2664 27.6294 73.0216 26.3974 72.1232 24.8317C71.2249 23.2661 70.7757 21.4951 70.7757 19.5187C70.7757 17.5424 71.1993 15.7714 72.0462 14.2058C72.9189 12.6401 74.0996 11.4209 75.5882 10.5483C77.1026 9.67559 78.7966 9.23926 80.6702 9.23926C82.5439 9.23926 84.2251 9.67559 85.7137 10.5483C87.2024 11.4209 88.3702 12.6401 89.2172 14.2058C90.0642 15.7457 90.4877 17.5167 90.4877 19.5187L90.4492 20.3657ZM80.6702 11.5878C78.7196 11.5878 77.0769 12.2166 75.7422 13.4743C74.4332 14.7062 73.6889 16.3232 73.5092 18.3252H87.8697C87.6901 16.3232 86.9329 14.7062 85.5982 13.4743C84.2892 12.2166 82.6466 11.5878 80.6702 11.5878Z" fill="black"/>
<path d="M106.37 9.23926C108.911 9.23926 110.925 9.98359 112.414 11.4723C113.928 12.9353 114.686 15.0784 114.686 17.9017V29.6442H111.952V18.1712C111.952 16.0666 111.426 14.4624 110.374 13.3588C109.321 12.2551 107.82 11.7033 105.869 11.7033C103.687 11.7033 101.955 12.3578 100.672 13.6668C99.4139 14.9501 98.7851 16.7339 98.7851 19.0182V29.6442H96.0516V9.39326H98.6696V13.1278C99.4139 11.8958 100.441 10.9461 101.75 10.2788C103.084 9.58576 104.624 9.23926 106.37 9.23926Z" fill="black"/>
<path d="M137.996 5.15826H128.525V2.69426H150.316V5.15826H140.845V29.6442H137.996V5.15826Z" fill="black"/>
<path d="M160.246 9.23926C162.89 9.23926 164.918 9.90659 166.329 11.2413C167.741 12.5503 168.447 14.5009 168.447 17.0932V29.6442H165.829V26.4872C165.213 27.5396 164.302 28.3609 163.095 28.9512C161.915 29.5416 160.503 29.8367 158.86 29.8367C156.602 29.8367 154.805 29.2977 153.47 28.2197C152.136 27.1417 151.468 25.7172 151.468 23.9462C151.468 22.2266 152.084 20.8406 153.316 19.7882C154.574 18.7359 156.563 18.2097 159.284 18.2097H165.713V16.9777C165.713 15.2324 165.226 13.9106 164.25 13.0123C163.275 12.0883 161.851 11.6263 159.977 11.6263C158.694 11.6263 157.462 11.8444 156.281 12.2808C155.1 12.6914 154.086 13.2689 153.239 14.0132L152.007 11.9728C153.034 11.1001 154.266 10.4328 155.703 9.97075C157.141 9.48309 158.655 9.23926 160.246 9.23926ZM159.284 27.6807C160.824 27.6807 162.146 27.3342 163.249 26.6412C164.353 25.9226 165.174 24.8959 165.713 23.5612V20.2502H159.361C155.896 20.2502 154.163 21.4566 154.163 23.8692C154.163 25.0499 154.613 25.9867 155.511 26.6797C156.409 27.3471 157.667 27.6807 159.284 27.6807Z" fill="black"/>
<path d="M194.696 9.39326V27.1802C194.696 30.6196 193.849 33.1606 192.155 34.8032C190.487 36.4716 187.958 37.3057 184.57 37.3057C182.697 37.3057 180.913 37.0234 179.219 36.4587C177.551 35.9197 176.19 35.1626 175.138 34.1872L176.524 32.1082C177.499 32.9809 178.68 33.6611 180.066 34.1487C181.478 34.6364 182.953 34.8802 184.493 34.8802C187.06 34.8802 188.947 34.2771 190.153 33.0707C191.359 31.8901 191.962 30.0421 191.962 27.5267V24.9472C191.115 26.2306 189.999 27.2059 188.613 27.8732C187.253 28.5406 185.738 28.8742 184.07 28.8742C182.171 28.8742 180.438 28.4636 178.872 27.6422C177.332 26.7952 176.113 25.6274 175.215 24.1387C174.342 22.6244 173.906 20.9176 173.906 19.0182C173.906 17.1189 174.342 15.4249 175.215 13.9363C176.113 12.4476 177.332 11.2926 178.872 10.4713C180.412 9.64992 182.145 9.23926 184.07 9.23926C185.79 9.23926 187.342 9.58576 188.728 10.2788C190.114 10.9718 191.231 11.9728 192.078 13.2818V9.39326H194.696ZM184.339 26.4487C185.802 26.4487 187.124 26.1407 188.305 25.5247C189.486 24.8831 190.397 23.9976 191.038 22.8682C191.706 21.7389 192.039 20.4556 192.039 19.0182C192.039 17.5809 191.706 16.3104 191.038 15.2067C190.397 14.0774 189.486 13.2048 188.305 12.5888C187.15 11.9471 185.828 11.6263 184.339 11.6263C182.876 11.6263 181.555 11.9343 180.374 12.5503C179.219 13.1663 178.308 14.0389 177.64 15.1682C176.999 16.2976 176.678 17.5809 176.678 19.0182C176.678 20.4556 176.999 21.7389 177.64 22.8682C178.308 23.9976 179.219 24.8831 180.374 25.5247C181.555 26.1407 182.876 26.4487 184.339 26.4487Z" fill="black"/>
<path d="M202.648 25.6402C203.238 25.6402 203.726 25.8456 204.111 26.2562C204.496 26.6412 204.689 27.1289 204.689 27.7192C204.689 28.0272 204.637 28.3609 204.535 28.7202C204.458 29.0796 204.329 29.4902 204.15 29.9522L202.533 35.2652H200.685L201.994 29.6827C201.583 29.5544 201.249 29.3234 200.993 28.9897C200.736 28.6304 200.608 28.2069 200.608 27.7192C200.608 27.1289 200.8 26.6412 201.185 26.2562C201.57 25.8456 202.058 25.6402 202.648 25.6402Z" fill="black"/>
<path d="M230.392 20.3272V29.6442H227.582V20.3272L216.802 2.69426H219.843L229.083 17.8247L238.323 2.69426H241.172L230.392 20.3272Z" fill="black"/>
<path d="M246.412 0.884766C247.002 0.884766 247.49 1.0901 247.875 1.50077C248.26 1.88577 248.452 2.37343 248.452 2.96376C248.452 3.27176 248.401 3.60543 248.298 3.96476C248.221 4.29843 248.106 4.69626 247.952 5.15826L246.296 10.4713H244.448L245.796 4.92726C245.359 4.79893 245.013 4.56793 244.756 4.23426C244.499 3.87493 244.371 3.45143 244.371 2.96376C244.371 2.34776 244.564 1.84727 244.949 1.46226C245.334 1.07727 245.821 0.884766 246.412 0.884766Z" fill="black"/>
<path d="M260.97 9.23926C263.614 9.23926 265.642 9.90659 267.053 11.2413C268.465 12.5503 269.171 14.5009 269.171 17.0932V29.6442H266.553V26.4872C265.937 27.5396 265.026 28.3609 263.819 28.9512C262.639 29.5416 261.227 29.8367 259.584 29.8367C257.326 29.8367 255.529 29.2977 254.194 28.2197C252.86 27.1417 252.192 25.7172 252.192 23.9462C252.192 22.2266 252.808 20.8406 254.04 19.7882C255.298 18.7359 257.287 18.2097 260.008 18.2097H266.437V16.9777C266.437 15.2324 265.95 13.9106 264.974 13.0123C263.999 12.0883 262.575 11.6263 260.701 11.6263C259.418 11.6263 258.186 11.8444 257.005 12.2808C255.824 12.6914 254.81 13.2689 253.963 14.0132L252.731 11.9728C253.758 11.1001 254.99 10.4328 256.427 9.97075C257.865 9.48309 259.379 9.23926 260.97 9.23926ZM260.008 27.6807C261.548 27.6807 262.87 27.3342 263.973 26.6412C265.077 25.9226 265.898 24.8959 266.437 23.5612V20.2502H260.085C256.62 20.2502 254.887 21.4566 254.887 23.8692C254.887 25.0499 255.337 25.9867 256.235 26.6797C257.133 27.3471 258.391 27.6807 260.008 27.6807Z" fill="black"/>
<path d="M276.595 1.07727H279.329V29.6442H276.595V1.07727Z" fill="black"/>
<path d="M286.935 1.07727H289.668V29.6442H286.935V1.07727Z" fill="black"/>
<path d="M296.85 2.69426H300.084L299.507 21.5592H297.389L296.85 2.69426ZM298.467 29.8367C297.903 29.8367 297.415 29.6442 297.004 29.2592C296.619 28.8486 296.427 28.3737 296.427 27.8347C296.427 27.2701 296.619 26.8081 297.004 26.4487C297.389 26.0637 297.877 25.8712 298.467 25.8712C299.032 25.8712 299.507 26.0637 299.892 26.4487C300.277 26.8081 300.469 27.2701 300.469 27.8347C300.469 28.3737 300.277 28.8486 299.892 29.2592C299.507 29.6442 299.032 29.8367 298.467 29.8367Z" fill="black"/>
</svg>
