<svg width="167" height="44" viewBox="0 0 167 44" fill="none" xmlns="http://www.w3.org/2000/svg">
<path d="M72.1163 35.9873C72.6513 35.9873 73.1335 36.0964 73.5559 36.3182C73.9783 36.5399 74.3091 36.8462 74.5467 37.2404C74.7878 37.6346 74.911 38.0921 74.911 38.6113C74.911 39.1305 74.7878 39.588 74.5467 39.9911C74.3091 40.3853 73.9783 40.695 73.5559 40.9132C73.1335 41.135 72.6549 41.2441 72.1163 41.2441C71.7063 41.2441 71.3332 41.1684 70.99 41.0224C70.6521 40.871 70.367 40.6581 70.1488 40.373V41.1913H69.1914V33.9775H70.191V36.8162C70.4128 36.5435 70.6908 36.3375 71.0252 36.2038C71.3596 36.0595 71.7239 35.9873 72.1163 35.9873ZM72.0319 40.4328C72.3874 40.4328 72.7006 40.3571 72.9804 40.211C73.2638 40.0562 73.489 39.8415 73.6457 39.5687C73.8111 39.2924 73.8956 38.9738 73.8956 38.6166C73.8956 38.2593 73.8111 37.9461 73.6457 37.6733C73.4855 37.397 73.2638 37.1823 72.9804 37.0309C72.7006 36.8796 72.3874 36.8092 72.0319 36.8092C71.6852 36.8092 71.3666 36.8849 71.0833 37.0309C70.7999 37.1823 70.5747 37.3952 70.418 37.6733C70.2579 37.9461 70.1769 38.2611 70.1769 38.6166C70.1769 38.9738 70.2579 39.2924 70.418 39.5687C70.5799 39.8415 70.7999 40.0544 71.0833 40.211C71.3719 40.3571 71.6852 40.4328 72.0319 40.4328Z" fill="#FFBA0A"/>
<path d="M81.0273 36.0387L78.3505 41.7055C78.1129 42.2299 77.8366 42.5995 77.5163 42.8125C77.203 43.0272 76.8264 43.1345 76.3812 43.1345C76.1101 43.1345 75.8479 43.0923 75.5892 43.0078C75.3393 42.9286 75.1316 42.8142 74.9609 42.6594L75.3903 41.9589C75.6737 42.2106 76.0045 42.3355 76.3812 42.3355C76.6223 42.3355 76.8264 42.2722 76.9866 42.1508C77.152 42.0328 77.3051 41.8322 77.4353 41.5383L77.6131 41.1775L75.1739 36.0352H76.2157L78.1428 40.1586L80.0488 36.0352H81.0273V36.0387Z" fill="#FFBA0A"/>
<path d="M84.9062 34.3862H87.9808C88.7516 34.3862 89.4379 34.5288 90.0345 34.8139C90.6311 35.099 91.0922 35.502 91.4178 36.0176C91.7522 36.5298 91.9176 37.1211 91.9176 37.7881C91.9176 38.4551 91.7522 39.0499 91.4178 39.5673C91.0922 40.0795 90.6311 40.4772 90.0345 40.7623C89.4362 41.0474 88.7498 41.1899 87.9808 41.1899H84.9062V34.3862ZM87.9157 40.3452C88.5052 40.3452 89.0261 40.2396 89.4696 40.0267C89.9219 39.812 90.2704 39.5145 90.5115 39.1326C90.7526 38.7419 90.8758 38.2985 90.8758 37.7898C90.8758 37.283 90.7543 36.8413 90.5115 36.4559C90.2704 36.0652 89.9219 35.7642 89.4696 35.5495C89.0261 35.3348 88.5087 35.231 87.9157 35.231H85.9463V40.3434H87.9157V40.3452Z" fill="#FFBA0A"/>
<path d="M98.3657 38.6433C98.3657 38.7154 98.3569 38.8069 98.3445 38.9248H93.8639C93.9272 39.3771 94.1384 39.7432 94.4974 40.023C94.867 40.2958 95.3193 40.4295 95.8613 40.4295C96.5213 40.4295 97.051 40.2236 97.454 39.8083L98.0049 40.4119C97.755 40.6847 97.4417 40.8906 97.0686 41.0332C96.7008 41.1757 96.2855 41.2479 95.8279 41.2479C95.2436 41.2479 94.728 41.1388 94.2739 40.917C93.8216 40.69 93.4732 40.3768 93.2198 39.9737C92.9787 39.5707 92.8555 39.1184 92.8555 38.6098C92.8555 38.11 92.9734 37.6613 93.211 37.26C93.4521 36.857 93.7829 36.5472 94.2018 36.3255C94.6241 36.0985 95.0993 35.9858 95.629 35.9858C96.1588 35.9858 96.6251 36.0985 97.0352 36.3255C97.4505 36.5472 97.7779 36.8587 98.0049 37.26C98.246 37.6648 98.3657 38.1276 98.3657 38.6433ZM95.6343 36.776C95.1556 36.776 94.7544 36.9098 94.427 37.1826C94.1103 37.4553 93.9184 37.8108 93.8639 38.2526H97.4083C97.3537 37.8161 97.1637 37.4641 96.8363 37.1914C96.5143 36.9151 96.1112 36.776 95.6343 36.776Z" fill="#FFBA0A"/>
<path d="M102.698 35.9873C103.402 35.9873 103.956 36.1809 104.366 36.561C104.782 36.9394 104.993 37.492 104.993 38.2224V41.1878H103.993V38.328C103.993 37.8281 103.866 37.4515 103.608 37.1999C103.349 36.9482 102.979 36.8232 102.502 36.8232C101.96 36.8232 101.533 36.9746 101.219 37.272C100.906 37.5659 100.75 37.9848 100.75 38.5339V41.1895H99.75V36.0348H100.706V36.8109C100.91 36.5469 101.181 36.341 101.519 36.1985C101.867 36.0595 102.261 35.9873 102.698 35.9873Z" fill="#FFBA0A"/>
<path d="M112.153 36.039V40.4933C112.153 41.3943 111.911 42.0578 111.433 42.4855C110.954 42.9219 110.24 43.1349 109.286 43.1349C108.765 43.1349 108.268 43.068 107.795 42.929C107.32 42.7987 106.94 42.6104 106.648 42.3676L107.126 41.646C107.385 41.8519 107.698 42.0156 108.075 42.1317C108.457 42.2532 108.849 42.3165 109.252 42.3165C109.9 42.3165 110.375 42.174 110.679 41.8889C110.993 41.6038 111.149 41.1673 111.149 40.5848V40.1783C110.914 40.4422 110.621 40.6446 110.273 40.7819C109.935 40.9121 109.562 40.9755 109.159 40.9755C108.629 40.9755 108.151 40.8699 107.719 40.6658C107.295 40.451 106.961 40.1589 106.72 39.7805C106.479 39.3986 106.355 38.9622 106.355 38.4765C106.355 37.9907 106.479 37.5578 106.72 37.1847C106.961 36.8028 107.295 36.5089 107.719 36.2995C108.151 36.0936 108.629 35.9897 109.159 35.9897C109.573 35.9897 109.96 36.0619 110.313 36.2045C110.674 36.347 110.972 36.5564 111.199 36.838V36.0408H112.153V36.039ZM109.273 40.1607C109.632 40.1607 109.96 40.0885 110.243 39.946C110.535 39.8034 110.76 39.6063 110.921 39.3546C111.086 39.0942 111.171 38.8056 111.171 38.4782C111.171 37.9784 110.993 37.5772 110.641 37.2745C110.285 36.9647 109.831 36.8081 109.277 36.8081C108.714 36.8081 108.256 36.963 107.901 37.2745C107.545 37.5807 107.373 37.9784 107.373 38.4782C107.373 38.802 107.454 39.0942 107.614 39.3546C107.779 39.6063 108.008 39.8034 108.291 39.946C108.575 40.0903 108.906 40.1607 109.273 40.1607Z" fill="#FFBA0A"/>
<path d="M114.074 33.98H115.074V41.1937H114.074V33.98Z" fill="#FFBA0A"/>
<path d="M116.979 36.0389H117.978V41.1936H116.979V36.0389ZM117.478 35.0481C117.283 35.0481 117.123 34.99 116.987 34.8721C116.861 34.7542 116.801 34.6117 116.801 34.4445C116.801 34.2773 116.864 34.1347 116.987 34.0168C117.118 33.8954 117.283 33.832 117.478 33.832C117.674 33.832 117.834 33.8901 117.957 34.008C118.087 34.1171 118.156 34.2562 118.156 34.4269C118.156 34.6029 118.087 34.7507 117.957 34.8756C117.834 34.99 117.674 35.0481 117.478 35.0481Z" fill="#FFBA0A"/>
<path d="M121.47 41.2518C121.018 41.2518 120.585 41.1972 120.166 41.0881C119.752 40.9702 119.422 40.8241 119.188 40.6517L119.603 39.9143C119.844 40.0779 120.14 40.2082 120.488 40.305C120.835 40.4018 121.187 40.451 121.542 40.451C122.419 40.451 122.855 40.217 122.855 39.7506C122.855 39.5957 122.795 39.4743 122.677 39.381C122.559 39.2895 122.41 39.2262 122.229 39.1874C122.054 39.1417 121.806 39.0959 121.481 39.0414C121.035 38.978 120.671 38.9023 120.388 38.8196C120.108 38.7352 119.87 38.5926 119.67 38.392C119.466 38.1914 119.369 37.9098 119.369 37.5455C119.369 37.0791 119.576 36.706 119.995 36.4262C120.411 36.1411 120.969 35.9985 121.672 35.9985C122.04 35.9985 122.408 36.0408 122.778 36.1252C123.147 36.2097 123.446 36.3224 123.684 36.4649L123.256 37.2023C122.804 36.9295 122.274 36.7958 121.664 36.7958C121.241 36.7958 120.919 36.8591 120.694 36.9894C120.47 37.1196 120.36 37.2921 120.36 37.505C120.36 37.6722 120.423 37.8077 120.546 37.9027C120.669 37.9995 120.826 38.0699 121.004 38.1174C121.19 38.1632 121.452 38.2142 121.787 38.2723C122.23 38.3445 122.588 38.4237 122.859 38.5064C123.138 38.5856 123.371 38.7211 123.566 38.9129C123.761 39.1065 123.858 39.3793 123.858 39.7312C123.858 40.1976 123.642 40.5707 123.209 40.8505C122.788 41.1128 122.207 41.2518 121.47 41.2518Z" fill="#FFBA0A"/>
<path d="M127.519 41.2518C126.956 41.2518 126.453 41.1392 126.007 40.9121C125.571 40.6851 125.224 40.3754 124.974 39.9776C124.724 39.5746 124.598 39.1223 124.598 38.6137C124.598 38.1051 124.724 37.6581 124.974 37.2639C125.224 36.8609 125.567 36.5511 126.007 36.3294C126.453 36.1024 126.956 35.9897 127.519 35.9897C128.019 35.9897 128.464 36.0813 128.853 36.2713C129.247 36.4596 129.557 36.7324 129.772 37.0897L129.01 37.5472C128.835 37.2991 128.619 37.1161 128.362 36.9929C128.103 36.8714 127.82 36.8081 127.507 36.8081C127.146 36.8081 126.82 36.8838 126.528 37.0298C126.245 37.1812 126.016 37.3941 125.851 37.6722C125.689 37.945 125.61 38.26 125.61 38.6155C125.61 38.9798 125.691 39.2983 125.851 39.5764C126.016 39.8492 126.245 40.0586 126.528 40.2099C126.82 40.3613 127.146 40.4317 127.507 40.4317C127.82 40.4317 128.103 40.3683 128.362 40.2469C128.621 40.1255 128.837 39.9407 129.01 39.6925L129.772 40.1413C129.557 40.4986 129.251 40.7749 128.853 40.9667C128.462 41.155 128.017 41.2518 127.519 41.2518Z" fill="#FFBA0A"/>
<path d="M133.938 35.9876C134.642 35.9876 135.197 36.1812 135.607 36.5613C136.022 36.938 136.235 37.4923 136.235 38.2227V41.1881H135.235V38.3283C135.235 37.8285 135.109 37.4518 134.85 37.2002C134.591 36.9485 134.223 36.8236 133.745 36.8236C133.203 36.8236 132.775 36.9749 132.462 37.2723C132.148 37.5662 131.992 37.9851 131.992 38.5342V41.1898H130.992V33.9761H131.992V36.7655C132.199 36.5173 132.47 36.329 132.805 36.19C133.148 36.0598 133.525 35.9876 133.938 35.9876Z" fill="#FFBA0A"/>
<path d="M141.027 34.3862H144.102C144.873 34.3862 145.559 34.5288 146.156 34.8139C146.752 35.099 147.213 35.502 147.541 36.0176C147.875 36.5298 148.04 37.1211 148.04 37.7881C148.04 38.4551 147.875 39.0499 147.541 39.5673C147.215 40.0795 146.752 40.4772 146.156 40.7623C145.557 41.0474 144.871 41.1899 144.102 41.1899H141.027V34.3862ZM144.037 40.3452C144.63 40.3452 145.147 40.2396 145.591 40.0267C146.043 39.812 146.391 39.5145 146.633 39.1326C146.874 38.7419 146.997 38.2985 146.997 37.7898C146.997 37.283 146.875 36.8413 146.633 36.4559C146.391 36.0652 146.043 35.7642 145.591 35.5495C145.147 35.3348 144.63 35.231 144.037 35.231H142.067V40.3434H144.037V40.3452Z" fill="#FFBA0A"/>
<path d="M151.86 41.2518C151.309 41.2518 150.818 41.1392 150.382 40.9121C149.945 40.6851 149.599 40.3754 149.349 39.9776C149.108 39.5746 148.984 39.1223 148.984 38.6137C148.984 38.1051 149.106 37.6581 149.349 37.2639C149.599 36.8609 149.942 36.5511 150.382 36.3294C150.818 36.1024 151.314 35.9897 151.86 35.9897C152.409 35.9897 152.898 36.1024 153.33 36.3294C153.764 36.5511 154.107 36.8626 154.35 37.2639C154.6 37.6581 154.727 38.1104 154.727 38.6137C154.727 39.1171 154.6 39.5746 154.35 39.9776C154.109 40.3719 153.766 40.6816 153.33 40.9121C152.898 41.1339 152.409 41.2518 151.86 41.2518ZM151.86 40.4335C152.216 40.4335 152.529 40.3578 152.809 40.2117C153.092 40.0568 153.317 39.8421 153.472 39.5693C153.634 39.293 153.713 38.9745 153.713 38.6173C153.713 38.26 153.632 37.9467 153.472 37.674C153.312 37.3977 153.092 37.1829 152.809 37.0316C152.529 36.8802 152.216 36.8098 151.86 36.8098C151.505 36.8098 151.186 36.8855 150.903 37.0316C150.623 37.1829 150.403 37.3959 150.237 37.674C150.077 37.9467 149.996 38.2618 149.996 38.6173C149.996 38.9745 150.077 39.293 150.237 39.5693C150.403 39.8421 150.626 40.0551 150.903 40.2117C151.186 40.3578 151.508 40.4335 151.86 40.4335Z" fill="#FFBA0A"/>
<path d="M158.519 41.2518C157.956 41.2518 157.453 41.1392 157.007 40.9121C156.571 40.6851 156.228 40.3754 155.974 39.9776C155.724 39.5746 155.598 39.1223 155.598 38.6137C155.598 38.1051 155.724 37.6581 155.974 37.2639C156.224 36.8609 156.567 36.5511 157.007 36.3294C157.451 36.1024 157.956 35.9897 158.519 35.9897C159.019 35.9897 159.464 36.0813 159.853 36.2713C160.247 36.4596 160.555 36.7324 160.768 37.0897L160.006 37.5472C159.832 37.2991 159.615 37.1161 159.357 36.9929C159.098 36.8714 158.815 36.8081 158.501 36.8081C158.141 36.8081 157.815 36.8838 157.523 37.0298C157.24 37.1812 157.011 37.3941 156.845 37.6722C156.685 37.945 156.604 38.26 156.604 38.6155C156.604 38.9798 156.685 39.2983 156.845 39.5764C157.011 39.8492 157.24 40.0586 157.523 40.2099C157.815 40.3613 158.141 40.4317 158.501 40.4317C158.815 40.4317 159.098 40.3683 159.357 40.2469C159.615 40.1255 159.832 39.9407 160.006 39.6925L160.768 40.1413C160.553 40.4986 160.247 40.7749 159.853 40.9667C159.464 41.155 159.021 41.2518 158.519 41.2518Z" fill="#FFBA0A"/>
<path d="M163.642 41.2518C163.19 41.2518 162.757 41.1972 162.342 41.0881C161.928 40.9702 161.597 40.8241 161.363 40.6517L161.779 39.9143C162.02 40.0779 162.315 40.2082 162.664 40.305C163.011 40.4018 163.363 40.451 163.718 40.451C164.594 40.451 165.031 40.217 165.031 39.7506C165.031 39.5957 164.971 39.4743 164.853 39.381C164.735 39.2895 164.586 39.2262 164.404 39.1874C164.23 39.1417 163.982 39.0959 163.656 39.0414C163.211 38.978 162.847 38.9023 162.564 38.8196C162.284 38.7352 162.046 38.5926 161.845 38.392C161.641 38.1914 161.545 37.9098 161.545 37.5455C161.545 37.0791 161.752 36.706 162.171 36.4262C162.586 36.1411 163.144 35.9985 163.848 35.9985C164.216 35.9985 164.584 36.0408 164.953 36.1252C165.323 36.2097 165.622 36.3224 165.86 36.4649L165.432 37.2023C164.98 36.9295 164.45 36.7958 163.839 36.7958C163.417 36.7958 163.095 36.8591 162.87 36.9894C162.65 37.1196 162.535 37.2921 162.535 37.505C162.535 37.6722 162.599 37.8077 162.722 37.9027C162.849 37.9995 163.002 38.0699 163.179 38.1174C163.366 38.1632 163.628 38.2142 163.963 38.2723C164.406 38.3445 164.763 38.4237 165.034 38.5064C165.314 38.5856 165.547 38.7211 165.742 38.9129C165.937 39.1065 166.034 39.3793 166.034 39.7312C166.034 40.1976 165.818 40.5707 165.386 40.8505C164.959 41.1128 164.378 41.2518 163.642 41.2518Z" fill="#FFBA0A"/>
<path d="M99.8798 4.51996C99.8798 2.67199 99.8042 2.17921 98.2027 2.17921C94.2359 2.17921 92.7893 3.46398 91.6084 4.44604C91.3022 4.71179 90.8464 5.20106 90.387 5.20106C89.852 5.20106 89.625 4.82443 89.625 4.37212C89.625 3.54318 89.8133 2.78463 90.0051 1.61602C90.197 0.521319 90.3483 0.257324 91.3391 0.257324H111.849C112.84 0.257324 112.991 0.523079 113.183 1.61602C113.371 2.78463 113.563 3.54318 113.563 4.37212C113.563 4.82443 113.334 5.20106 112.801 5.20106C112.345 5.20106 111.886 4.71179 111.583 4.44604C110.399 3.46398 108.952 2.17921 104.989 2.17921C103.387 2.17921 103.312 2.66847 103.312 4.51996V23.5856C103.312 25.4723 103.312 25.6624 103.998 25.8894C105.103 26.2661 105.599 26.3787 105.599 27.0211C105.599 27.85 104.876 27.8905 104.227 27.8905H98.9295C98.2801 27.8905 97.5568 27.8148 97.5568 27.0211C97.5568 26.4157 98.0161 26.2661 98.699 26.076C99.8816 25.7363 99.8816 25.3597 99.8816 23.2829V4.51996H99.8798Z" fill="black"/>
<path d="M75.0415 27.8904C75.5853 27.8904 75.9725 27.5877 75.9725 27.021C75.9725 26.5282 75.5853 26.3751 74.8831 26.1111C74.0366 25.8242 73.9926 25.298 73.9891 23.5275V1.83241V1.78313V1.68281V1.58426C73.9803 0.904911 73.8941 0.243164 73.0986 0.243164C72.363 0.243164 70.4588 1.03867 69.7583 1.41882C69.4099 1.6089 68.9805 1.75849 68.9805 2.21432C68.9805 2.554 69.3289 2.70711 69.5999 2.78103C69.6633 2.80215 69.7231 2.82503 69.783 2.84615L69.8745 2.87783C70.5098 3.10311 71.0765 3.35478 71.0765 4.44948V23.2371C71.0765 25.5462 70.8442 25.8489 70.0663 26.1516C69.4838 26.4174 69.1723 26.5687 69.1723 27.021C69.1723 27.813 69.7161 27.8852 70.3145 27.8904H70.4025H75.0415Z" fill="black"/>
<path d="M35.5407 11.642C33.9797 11.6226 32.6352 12.0996 31.5159 13.0764C30.3948 14.0707 29.8264 15.1989 29.8264 16.4397C29.8264 16.8603 29.9936 17.1665 30.3051 17.3372C30.6166 17.5273 31.2625 17.6241 32.2726 17.6241H39.6817C40.2132 17.6241 40.4719 17.2404 40.4719 16.4766C40.4719 15.0616 40.032 13.9141 39.1467 13.0165C38.2439 12.1189 37.0472 11.6613 35.5407 11.642ZM35.3665 9.64795C37.3974 9.64795 39.1749 10.278 40.7007 11.5593C42.2089 12.8405 42.9604 14.5794 42.9604 16.7406C42.9604 18.7487 42.0312 19.7607 40.1587 19.7431H39.6078C39.5797 19.7431 39.5515 19.7431 39.5234 19.7431H39.3509C38.3214 19.7431 36.9909 19.7396 35.3665 19.7237C33.8143 19.7079 32.7566 19.7044 31.7253 19.7044H31.5423C31.5106 19.7044 31.4824 19.7044 31.4508 19.7044H31.1762H30.6729C29.8792 19.7044 29.5343 20.0881 29.6099 20.8519C29.7648 22.017 30.3614 23.1469 31.4261 24.1958C32.0139 24.7748 33.0188 25.4982 33.6295 25.6707C34.1117 25.8643 35.6059 26.0631 36.213 25.998C37.642 25.998 39.8894 25.1216 41.1196 23.7752C41.4469 23.4003 41.8147 22.9181 42.4448 22.9058C42.8636 22.8987 43.1628 23.1522 43.1681 23.5534C43.1804 24.2891 42.1509 25.2993 41.5719 25.7886C39.9193 27.142 38.3495 27.89 35.3753 27.89C34.4566 27.89 33.6383 27.7809 32.9132 27.5785L32.8182 27.5503C31.3364 27.1666 30.0481 26.4099 28.9588 25.2835C27.315 23.5816 26.4844 21.3834 26.4844 18.7241C26.4844 16.0648 27.315 13.8859 28.9764 12.1841C30.6518 10.4892 32.7777 9.64795 35.3665 9.64795Z" fill="black"/>
<path d="M166.029 27.0899C166.029 27.8572 165.735 27.8906 165.105 27.8906H160.906C160.392 27.8906 159.867 27.8167 159.867 27.155C159.867 26.2803 161.085 26.4281 161.085 25.6608C161.085 25.1785 160.742 24.6805 160.482 24.2968C160.334 24.0768 160.172 23.8638 159.999 23.6597C159.149 22.6213 158.203 21.5688 157.157 20.7276C156.161 19.911 155.024 19.2739 153.873 18.7335C153.833 18.7177 153.505 18.5294 153.449 18.5294C153.44 18.5294 153.44 18.5294 153.44 18.5294C153.359 18.4731 153.27 18.4238 153.178 18.3904C152.925 18.2918 152.671 18.3164 152.411 18.3094C152.272 18.3006 152.133 18.3006 151.994 18.2936C151.929 18.2936 151.855 18.2848 151.79 18.3024V23.401C151.79 25.3369 151.79 25.8843 152.64 26.1782C153.301 26.4316 153.669 26.5777 153.669 27.0529C153.669 27.6002 153.301 27.8942 152.787 27.8942H148.474C147.846 27.8942 147.216 27.8942 147.216 27.0529C147.216 26.6111 147.51 26.4651 148.066 26.2116C148.801 25.9265 149.021 25.6308 149.021 23.401V4.29656C149.021 3.09626 148.319 2.94842 147.624 2.68795C147.362 2.61403 147.027 2.46795 147.027 2.1406C147.027 1.70765 147.436 1.55277 147.77 1.37325C148.432 1.01422 150.237 0.245117 150.94 0.245117C151.79 0.245117 151.79 1.0459 151.79 1.78157C151.79 1.78157 151.79 16.6902 151.805 16.6902C152.133 16.6902 152.458 16.7061 152.786 16.7061C153.21 16.6973 153.521 16.4931 153.847 16.2397C154.255 15.9211 154.762 15.4723 155.366 14.8757C156.371 13.9042 157.066 13.1844 157.425 12.7426C157.604 12.5226 157.734 12.3343 157.833 12.1618C158.062 11.8028 158.291 11.3699 158.291 11.1076C158.291 10.3403 157.212 10.2664 157.212 9.53069C157.212 9.01678 157.661 8.98334 158.102 8.98334H162.425C162.907 8.98334 163.389 8.98334 163.389 9.56413C163.389 10.1203 162.981 10.3403 162.539 10.5286C161.485 10.9615 160.684 11.794 159.852 12.5385C159.084 13.2407 158.284 13.9112 157.557 14.6539C157.451 14.7683 157.337 14.8827 157.229 15.0059C156.348 15.937 155.915 16.4931 155.915 16.6814C155.915 16.7061 155.924 16.7465 155.939 16.787C155.98 16.8856 156.193 16.9349 156.274 16.9665C156.453 17.0317 156.626 17.1144 156.788 17.2041C158.683 18.151 160.424 19.7209 161.714 21.3946C162.653 22.6125 163.445 23.8867 164.295 25.1521C164.959 26.2803 166.029 26.4281 166.029 27.0899Z" fill="black"/>
<path d="M25.5606 26.4245C25.3863 26.2943 25.1927 26.2045 24.9939 26.1359C24.7739 26.0584 24.5433 26.0144 24.3198 25.9528C23.7795 25.8032 23.2516 25.629 22.7465 25.4143C22.7095 25.4002 22.6708 25.3844 22.6339 25.3668C22.5494 25.3333 22.4632 25.2946 22.3769 25.2506C22.3734 25.2488 22.3699 25.2471 22.3664 25.2453C18.6653 23.371 13.9488 14.5571 13.5828 13.8654C13.6831 13.8513 14.0368 13.7334 14.0368 13.7334C14.8781 13.4148 15.6242 13.0452 16.2789 12.6246C16.997 12.1617 17.6024 11.6373 18.0951 11.0477C19.1 9.85619 19.5981 8.45878 19.5981 6.85721C19.5981 4.87197 18.7815 3.27041 17.1465 2.06131C15.5134 0.845174 13.3311 0.239746 10.6033 0.239746C7.12401 0.239746 4.11637 0.313665 1.55222 0.459742H1.38855C0.939778 0.52662 0.596601 0.648058 0.359016 0.836374C0.121432 1.02469 0 1.26933 0 1.56324C0 1.90643 0.350217 2.19331 1.06121 2.42914C1.7722 2.65794 2.1805 2.84625 2.27905 2.97649C2.4744 3.22113 2.61343 4.11167 2.69614 5.63932C2.7771 7.17577 2.81757 9.97059 2.81757 14.0308C2.81757 15.4846 2.81053 16.9383 2.79294 18.392C2.7771 20.0358 2.70318 21.6779 2.63807 23.3199C2.62223 23.7282 2.60639 24.1365 2.58879 24.5449C2.57295 24.8881 2.59759 25.2805 2.40928 25.5903C2.30369 25.761 2.11538 25.8437 1.94467 25.9088C1.91123 25.9176 1.87076 25.9335 1.83732 25.9423C0.890501 26.3171 0.439971 26.4315 0.439971 27.0686C0.439971 27.8536 1.19144 27.8853 1.79684 27.8853H6.85299C7.49006 27.8853 8.25033 27.8853 8.25033 27.0686C8.25033 26.3911 7.75229 26.3171 7.27008 26.0971C6.77203 25.9088 6.09448 25.8349 6.09448 25.2717C6.09448 23.7441 6.02056 22.2006 6.02056 20.6641C6.00472 19.5606 6.00472 18.4589 6.00472 17.3554C6.00472 16.7922 5.98712 16.2273 6.01176 15.6641C6.02056 15.5902 6.0364 15.518 6.08568 15.4687C6.15959 15.386 6.27398 15.379 6.37958 15.379C6.633 15.379 6.88642 15.3702 7.13985 15.3702C7.55694 15.3614 7.96523 15.3702 8.38057 15.386C9.06692 15.4036 9.75327 15.3702 10.4484 15.4036C10.547 15.4106 10.6438 15.4106 10.7423 15.4194L13.185 19.8722C14.3043 21.882 15.3585 23.466 16.33 24.6346C16.9582 25.3949 17.5953 26.0074 18.2412 26.4808C18.3239 26.5371 18.4049 26.5952 18.4858 26.6515C18.7639 26.8328 19.0419 26.9947 19.3288 27.1338C19.9412 27.4312 20.5959 27.6354 21.2664 27.7515C22.0461 27.8888 22.8415 27.8906 23.63 27.8888C23.9133 27.887 24.1966 27.8923 24.4782 27.8888C24.8302 27.8835 25.2491 27.9046 25.5553 27.704C25.7735 27.5614 25.8545 27.3186 25.8545 27.0686C25.8545 26.8135 25.77 26.5794 25.5606 26.4245ZM8.20986 13.0259C7.94763 13.0259 7.64669 13.0012 7.30352 12.9678C6.95154 12.9361 6.54325 12.8781 6.07688 12.8041C6.07688 9.78227 6.09448 7.438 6.13495 5.77835C6.16663 4.12047 6.22471 3.14017 6.29862 2.83041C6.37958 2.56818 6.56789 2.37986 6.83715 2.2901C7.10641 2.20035 7.76109 2.15107 8.78182 2.15107H9.37842C11.4445 2.15107 13.0302 2.60162 14.1495 3.4992C15.2688 4.39854 15.8319 5.67276 15.8319 7.306C15.8319 9.16101 15.1772 10.5743 13.8714 11.5546C12.5726 12.5349 10.6843 13.0259 8.20986 13.0259Z" fill="black"/>
<path d="M64.7065 26.2177C63.7474 25.9502 63.4412 25.4891 63.4412 23.1483L63.2986 18.7009C63.3092 18.2169 63.318 17.7769 63.3233 17.3792C63.3233 8.78701 55.3633 9.57723 54.3795 9.70923C54.3144 9.71803 54.2792 9.72331 54.2792 9.72331C53.7777 9.80603 53.2814 9.92043 52.7939 10.0612C51.8946 10.327 51.3508 10.6227 51.2505 10.6737C50.4761 11.0679 49.7581 11.6047 49.1052 12.2489C45.8617 15.4467 45.9726 21.0364 48.1232 24.7921C48.6722 25.7513 49.5047 26.6806 50.4796 27.2191C52.5968 28.3877 55.2384 28.5145 57.5086 27.733C58.7722 27.2966 60.1185 26.575 60.7802 25.3571C60.8137 25.2955 60.8454 25.2339 60.87 25.1688V25.7971C60.87 27.1786 60.87 27.8703 62.2885 27.8703H63.978C64.5921 27.8703 65.5126 27.9073 65.5126 27.0255C65.5126 26.487 65.1289 26.3339 64.7065 26.2177ZM59.3547 24.3574C58.0894 25.9027 55.7769 26.5802 53.841 26.2124C52.2642 25.9115 51.0674 24.7798 50.3406 23.3912C49.3375 21.4746 49.0383 19.0705 49.4712 16.955C49.9552 14.5879 51.8312 12.5621 54.1648 11.9197C55.5358 11.5431 57.1003 11.7279 58.334 12.4372C60.6852 13.7888 61.1674 16.7544 60.9932 19.2342C60.87 21.0012 60.5092 22.9494 59.3547 24.3574Z" fill="black"/>
<path d="M142.6 27.8904C143.144 27.8904 143.531 27.5877 143.531 27.021C143.531 26.5282 143.144 26.3751 142.442 26.1111C141.595 25.8242 141.551 25.298 141.548 23.5275V1.83241V1.78313V1.68281V1.58426C141.539 0.904911 141.453 0.243164 140.657 0.243164C139.922 0.243164 138.016 1.03867 137.317 1.41882C136.968 1.6089 136.539 1.75849 136.539 2.21432C136.539 2.554 136.888 2.70711 137.159 2.78103C137.222 2.80215 137.282 2.82503 137.342 2.84615L137.433 2.87783C138.068 3.10311 138.635 3.35478 138.635 4.44948V23.2371C138.635 25.5462 138.403 25.8489 137.625 26.1516C137.042 26.4174 136.731 26.5687 136.731 27.021C136.731 27.813 137.275 27.8852 137.873 27.8904H137.961H142.6Z" fill="black"/>
<path d="M132.269 26.2177C131.31 25.9502 131.004 25.4891 131.004 23.1483L130.861 18.7009C130.872 18.2169 130.88 17.7769 130.886 17.3792C130.886 8.78701 122.926 9.57723 121.942 9.70923C121.877 9.71803 121.842 9.72331 121.842 9.72331C121.34 9.80603 120.844 9.92043 120.356 10.0612C119.457 10.327 118.913 10.6227 118.813 10.6737C118.039 11.0679 117.321 11.6047 116.668 12.2489C113.424 15.4467 113.535 21.0364 115.686 24.7921C116.235 25.7513 117.067 26.6806 118.042 27.2191C120.159 28.3877 122.801 28.5145 125.071 27.733C126.335 27.2966 127.681 26.575 128.343 25.3571C128.376 25.2955 128.408 25.2339 128.432 25.1688V25.7971C128.432 27.1786 128.432 27.8703 129.851 27.8703H131.54C132.155 27.8703 133.075 27.9073 133.075 27.0255C133.075 26.487 132.691 26.3339 132.269 26.2177ZM126.917 24.3574C125.652 25.9027 123.339 26.5802 121.404 26.2124C119.827 25.9115 118.63 24.7798 117.903 23.3912C116.9 21.4746 116.601 19.0705 117.034 16.955C117.518 14.5879 119.394 12.5621 121.727 11.9197C123.098 11.5431 124.663 11.7279 125.897 12.4372C128.248 13.7888 128.73 16.7544 128.556 19.2342C128.432 21.0012 128.07 22.9494 126.917 24.3574Z" fill="black"/>
</svg>
