<svg width="55" height="63" viewBox="0 0 55 63" fill="none" xmlns="http://www.w3.org/2000/svg">
<g clip-path="url(#clip0_364_3646)">
<path d="M48.1584 18.7338V59.368C48.1584 61.1644 46.7221 62.6196 44.9491 62.6196H3.24058C1.46756 62.6196 0.03125 61.1644 0.03125 59.368V4.10805C0.03125 2.31168 1.46756 0.856445 3.24058 0.856445H30.5135L48.1584 18.7338Z" fill="#FFC107"/>
<path d="M37.7301 26.8604H10.4614C10.0182 26.8604 9.66016 26.4977 9.66016 26.0486V24.4251C9.66016 23.976 10.0182 23.6133 10.4614 23.6133H37.7344C38.1776 23.6133 38.5356 23.976 38.5356 24.4251V26.0486C38.5356 26.4977 38.1734 26.8604 37.7301 26.8604Z" fill="#4E342E"/>
<path d="M34.525 33.3633H10.4614C10.0182 33.3633 9.66016 33.0006 9.66016 32.5516V30.928C9.66016 30.4789 10.0182 30.1162 10.4614 30.1162H34.525C34.9683 30.1162 35.3263 30.4789 35.3263 30.928V32.5516C35.3263 33.0006 34.964 33.3633 34.525 33.3633Z" fill="#4E342E"/>
<path d="M37.7301 39.8673H10.4614C10.0182 39.8673 9.66016 39.5045 9.66016 39.0555V37.4319C9.66016 36.9828 10.0182 36.6201 10.4614 36.6201H37.7344C38.1776 36.6201 38.5356 36.9828 38.5356 37.4319V39.0555C38.5356 39.5002 38.1734 39.8673 37.7301 39.8673Z" fill="#4E342E"/>
<path d="M34.525 46.3653H10.4614C10.0182 46.3653 9.66016 46.0026 9.66016 45.5535V43.9299C9.66016 43.4809 10.0182 43.1182 10.4614 43.1182H34.525C34.9683 43.1182 35.3263 43.4809 35.3263 43.9299V45.5535C35.3263 46.0026 34.964 46.3653 34.525 46.3653Z" fill="#4E342E"/>
<path d="M30.5117 0.856445V15.4865C30.5117 17.2829 31.948 18.7381 33.7211 18.7381H48.1609L30.5117 0.856445Z" fill="#FF8F00"/>
<path d="M54.2237 28.7174L51.1422 25.5955C50.6734 25.1205 49.9105 25.1205 49.4374 25.5955L47.9883 27.0636L52.7703 31.9084L54.2194 30.4403C54.6925 29.961 54.6925 29.1924 54.2237 28.7174Z" fill="#C94F60"/>
<path d="M24.099 51.2671L22.4922 57.7441L28.8853 56.1119L29.5544 50.4941L24.099 51.2671Z" fill="#F0F0F0"/>
<path d="M43.9102 31.2L24.1016 51.2695L28.8842 56.1152L48.6928 36.0456L43.9102 31.2Z" fill="#FF8F00"/>
<path d="M47.9856 27.0648L43.9062 31.2002L48.6902 36.0445L52.7695 31.9091L47.9856 27.0648Z" fill="#DCDCDC"/>
<path d="M23.3062 54.4707L22.4922 57.7437L25.7228 56.919L23.3062 54.4707Z" fill="#787878"/>
</g>
<defs>
<clipPath id="clip0_364_3646">
<rect width="54.5416" height="61.7632" fill="white" transform="translate(0.03125 0.856445)"/>
</clipPath>
</defs>
</svg>
