<svg width="47" height="47" viewBox="0 0 47 47" fill="none" xmlns="http://www.w3.org/2000/svg">
<g clip-path="url(#clip0_364_3669)">
<path d="M32.0638 3.93431C32.5155 3.93431 32.8816 3.5682 32.8816 3.11657C32.8816 2.66494 32.5155 2.29883 32.0638 2.29883C31.6122 2.29883 31.2461 2.66494 31.2461 3.11657C31.2461 3.5682 31.6122 3.93431 32.0638 3.93431Z" fill="#FFBA0A"/>
<path d="M27.931 2.67845C28.3826 2.67845 28.7488 2.31234 28.7488 1.86071C28.7488 1.40908 28.3826 1.04297 27.931 1.04297C27.4794 1.04297 27.1133 1.40908 27.1133 1.86071C27.1133 2.31234 27.4794 2.67845 27.931 2.67845Z" fill="#FFBA0A"/>
<path d="M23.6263 2.25658C24.078 2.25658 24.4441 1.89046 24.4441 1.43884C24.4441 0.987209 24.078 0.621094 23.6263 0.621094C23.1747 0.621094 22.8086 0.987209 22.8086 1.43884C22.8086 1.89046 23.1747 2.25658 23.6263 2.25658Z" fill="#FFBA0A"/>
<path d="M19.3295 2.67845C19.7811 2.67845 20.1472 2.31234 20.1472 1.86071C20.1472 1.40908 19.7811 1.04297 19.3295 1.04297C18.8778 1.04297 18.5117 1.40908 18.5117 1.86071C18.5117 2.31234 18.8778 2.67845 19.3295 2.67845Z" fill="#FFBA0A"/>
<path d="M15.1966 3.93431C15.6483 3.93431 16.0144 3.5682 16.0144 3.11657C16.0144 2.66494 15.6483 2.29883 15.1966 2.29883C14.745 2.29883 14.3789 2.66494 14.3789 3.11657C14.3789 3.5682 14.745 3.93431 15.1966 3.93431Z" fill="#FFBA0A"/>
<path d="M11.3841 5.96849C11.8358 5.96849 12.2019 5.60238 12.2019 5.15075C12.2019 4.69912 11.8358 4.33301 11.3841 4.33301C10.9325 4.33301 10.5664 4.69912 10.5664 5.15075C10.5664 5.60238 10.9325 5.96849 11.3841 5.96849Z" fill="#FFBA0A"/>
<path d="M8.0443 8.7097C8.49593 8.7097 8.86205 8.34359 8.86205 7.89196C8.86205 7.44033 8.49593 7.07422 8.0443 7.07422C7.59268 7.07422 7.22656 7.44033 7.22656 7.89196C7.22656 8.34359 7.59268 8.7097 8.0443 8.7097Z" fill="#FFBA0A"/>
<path d="M5.30212 12.0515C5.75374 12.0515 6.11986 11.6854 6.11986 11.2338C6.11986 10.7821 5.75374 10.416 5.30212 10.416C4.85049 10.416 4.48438 10.7821 4.48438 11.2338C4.48438 11.6854 4.85049 12.0515 5.30212 12.0515Z" fill="#FFBA0A"/>
<path d="M3.26696 15.864C3.71859 15.864 4.0847 15.4979 4.0847 15.0463C4.0847 14.5946 3.71859 14.2285 3.26696 14.2285C2.81533 14.2285 2.44922 14.5946 2.44922 15.0463C2.44922 15.4979 2.81533 15.864 3.26696 15.864Z" fill="#FFBA0A"/>
<path d="M2.00915 19.9997C2.46077 19.9997 2.82689 19.6336 2.82689 19.182C2.82689 18.7304 2.46077 18.3643 2.00915 18.3643C1.55752 18.3643 1.19141 18.7304 1.19141 19.182C1.19141 19.6336 1.55752 19.9997 2.00915 19.9997Z" fill="#FFBA0A"/>
<path d="M1.58727 24.2986C2.0389 24.2986 2.40501 23.9325 2.40501 23.4808C2.40501 23.0292 2.0389 22.6631 1.58727 22.6631C1.13565 22.6631 0.769531 23.0292 0.769531 23.4808C0.769531 23.9325 1.13565 24.2986 1.58727 24.2986Z" fill="#FFBA0A"/>
<path d="M2.00915 28.5974C2.46077 28.5974 2.82689 28.2313 2.82689 27.7797C2.82689 27.328 2.46077 26.9619 2.00915 26.9619C1.55752 26.9619 1.19141 27.328 1.19141 27.7797C1.19141 28.2313 1.55752 28.5974 2.00915 28.5974Z" fill="#FFBA0A"/>
<path d="M3.26305 32.7331C3.71468 32.7331 4.0808 32.367 4.0808 31.9154C4.0808 31.4638 3.71468 31.0977 3.26305 31.0977C2.81143 31.0977 2.44531 31.4638 2.44531 31.9154C2.44531 32.367 2.81143 32.7331 3.26305 32.7331Z" fill="#FFBA0A"/>
<path d="M5.30212 36.5437C5.75374 36.5437 6.11986 36.1776 6.11986 35.7259C6.11986 35.2743 5.75374 34.9082 5.30212 34.9082C4.85049 34.9082 4.48438 35.2743 4.48438 35.7259C4.48438 36.1776 4.85049 36.5437 5.30212 36.5437Z" fill="#FFBA0A"/>
<path d="M8.0443 39.8845C8.49593 39.8845 8.86205 39.5184 8.86205 39.0668C8.86205 38.6151 8.49593 38.249 8.0443 38.249C7.59268 38.249 7.22656 38.6151 7.22656 39.0668C7.22656 39.5184 7.59268 39.8845 8.0443 39.8845Z" fill="#FFBA0A"/>
<path d="M11.3841 42.6257C11.8358 42.6257 12.2019 42.2596 12.2019 41.808C12.2019 41.3564 11.8358 40.9902 11.3841 40.9902C10.9325 40.9902 10.5664 41.3564 10.5664 41.808C10.5664 42.2596 10.9325 42.6257 11.3841 42.6257Z" fill="#FFBA0A"/>
<path d="M15.1966 44.6609C15.6483 44.6609 16.0144 44.2948 16.0144 43.8431C16.0144 43.3915 15.6483 43.0254 15.1966 43.0254C14.745 43.0254 14.3789 43.3915 14.3789 43.8431C14.3789 44.2948 14.745 44.6609 15.1966 44.6609Z" fill="#FFBA0A"/>
<path d="M19.3295 45.9167C19.7811 45.9167 20.1472 45.5506 20.1472 45.099C20.1472 44.6474 19.7811 44.2812 19.3295 44.2812C18.8778 44.2812 18.5117 44.6474 18.5117 45.099C18.5117 45.5506 18.8778 45.9167 19.3295 45.9167Z" fill="#FFBA0A"/>
<path d="M23.6263 46.3415C24.078 46.3415 24.4441 45.9754 24.4441 45.5238C24.4441 45.0722 24.078 44.7061 23.6263 44.7061C23.1747 44.7061 22.8086 45.0722 22.8086 45.5238C22.8086 45.9754 23.1747 46.3415 23.6263 46.3415Z" fill="#FFBA0A"/>
<path d="M27.931 45.9167C28.3826 45.9167 28.7488 45.5506 28.7488 45.099C28.7488 44.6474 28.3826 44.2812 27.931 44.2812C27.4794 44.2812 27.1133 44.6474 27.1133 45.099C27.1133 45.5506 27.4794 45.9167 27.931 45.9167Z" fill="#FFBA0A"/>
<path d="M32.0638 44.6609C32.5155 44.6609 32.8816 44.2948 32.8816 43.8431C32.8816 43.3915 32.5155 43.0254 32.0638 43.0254C31.6122 43.0254 31.2461 43.3915 31.2461 43.8431C31.2461 44.2948 31.6122 44.6609 32.0638 44.6609Z" fill="#FFBA0A"/>
<path d="M35.8763 42.6257C36.328 42.6257 36.6941 42.2596 36.6941 41.808C36.6941 41.3564 36.328 40.9902 35.8763 40.9902C35.4247 40.9902 35.0586 41.3564 35.0586 41.808C35.0586 42.2596 35.4247 42.6257 35.8763 42.6257Z" fill="#FFBA0A"/>
<path d="M39.2162 39.8845C39.6678 39.8845 40.0339 39.5184 40.0339 39.0668C40.0339 38.6151 39.6678 38.249 39.2162 38.249C38.7646 38.249 38.3984 38.6151 38.3984 39.0668C38.3984 39.5184 38.7646 39.8845 39.2162 39.8845Z" fill="#FFBA0A"/>
<path d="M41.9584 36.5437C42.41 36.5437 42.7761 36.1776 42.7761 35.7259C42.7761 35.2743 42.41 34.9082 41.9584 34.9082C41.5067 34.9082 41.1406 35.2743 41.1406 35.7259C41.1406 36.1776 41.5067 36.5437 41.9584 36.5437Z" fill="#FFBA0A"/>
<path d="M43.9935 32.7312C44.4451 32.7312 44.8113 32.3651 44.8113 31.9134C44.8113 31.4618 44.4451 31.0957 43.9935 31.0957C43.5419 31.0957 43.1758 31.4618 43.1758 31.9134C43.1758 32.3651 43.5419 32.7312 43.9935 32.7312Z" fill="#FFBA0A"/>
<path d="M45.2474 28.5984C45.6991 28.5984 46.0652 28.2323 46.0652 27.7806C46.0652 27.329 45.6991 26.9629 45.2474 26.9629C44.7958 26.9629 44.4297 27.329 44.4297 27.7806C44.4297 28.2323 44.7958 28.5984 45.2474 28.5984Z" fill="#FFBA0A"/>
<path d="M45.6732 24.2986C46.1248 24.2986 46.491 23.9325 46.491 23.4808C46.491 23.0292 46.1248 22.6631 45.6732 22.6631C45.2216 22.6631 44.8555 23.0292 44.8555 23.4808C44.8555 23.9325 45.2216 24.2986 45.6732 24.2986Z" fill="#FFBA0A"/>
<path d="M45.2474 19.9978C45.6991 19.9978 46.0652 19.6317 46.0652 19.18C46.0652 18.7284 45.6991 18.3623 45.2474 18.3623C44.7958 18.3623 44.4297 18.7284 44.4297 19.18C44.4297 19.6317 44.7958 19.9978 45.2474 19.9978Z" fill="#FFBA0A"/>
<path d="M43.9935 15.8884C44.4451 15.8884 44.8113 15.5223 44.8113 15.0707C44.8113 14.619 44.4451 14.2529 43.9935 14.2529C43.5419 14.2529 43.1758 14.619 43.1758 15.0707C43.1758 15.5223 43.5419 15.8884 43.9935 15.8884Z" fill="#FFBA0A"/>
<path d="M41.9427 12.0779C42.3944 12.0779 42.7605 11.7118 42.7605 11.2601C42.7605 10.8085 42.3944 10.4424 41.9427 10.4424C41.4911 10.4424 41.125 10.8085 41.125 11.2601C41.125 11.7118 41.4911 12.0779 41.9427 12.0779Z" fill="#FFBA0A"/>
<path d="M39.1966 8.73705C39.6483 8.73705 40.0144 8.37093 40.0144 7.9193C40.0144 7.46768 39.6483 7.10156 39.1966 7.10156C38.745 7.10156 38.3789 7.46768 38.3789 7.9193C38.3789 8.37093 38.745 8.73705 39.1966 8.73705Z" fill="#FFBA0A"/>
<path d="M35.8568 5.99388C36.3084 5.99388 36.6745 5.62777 36.6745 5.17614C36.6745 4.72451 36.3084 4.3584 35.8568 4.3584C35.4052 4.3584 35.0391 4.72451 35.0391 5.17614C35.0391 5.62777 35.4052 5.99388 35.8568 5.99388Z" fill="#FFBA0A"/>
<path d="M26.0204 13.7754V35.1108H23.8259V15.7261H18.7969V13.7754H26.0204Z" fill="#4E342E"/>
</g>
<defs>
<clipPath id="clip0_364_3669">
<rect width="45.7187" height="45.7187" fill="white" transform="translate(0.769531 0.621094)"/>
</clipPath>
</defs>
</svg>
