<svg width="46" height="47" viewBox="0 0 46 47" fill="none" xmlns="http://www.w3.org/2000/svg">
<g clip-path="url(#clip0_364_3703)">
<path d="M31.4974 3.93431C31.9491 3.93431 32.3152 3.5682 32.3152 3.11657C32.3152 2.66494 31.9491 2.29883 31.4974 2.29883C31.0458 2.29883 30.6797 2.66494 30.6797 3.11657C30.6797 3.5682 31.0458 3.93431 31.4974 3.93431Z" fill="#FFBA0A"/>
<path d="M27.3646 2.67845C27.8162 2.67845 28.1824 2.31234 28.1824 1.86071C28.1824 1.40908 27.8162 1.04297 27.3646 1.04297C26.913 1.04297 26.5469 1.40908 26.5469 1.86071C26.5469 2.31234 26.913 2.67845 27.3646 2.67845Z" fill="#FFBA0A"/>
<path d="M23.0599 2.25658C23.5116 2.25658 23.8777 1.89046 23.8777 1.43884C23.8777 0.987209 23.5116 0.621094 23.0599 0.621094C22.6083 0.621094 22.2422 0.987209 22.2422 1.43884C22.2422 1.89046 22.6083 2.25658 23.0599 2.25658Z" fill="#FFBA0A"/>
<path d="M18.7631 2.67845C19.2147 2.67845 19.5808 2.31234 19.5808 1.86071C19.5808 1.40908 19.2147 1.04297 18.7631 1.04297C18.3114 1.04297 17.9453 1.40908 17.9453 1.86071C17.9453 2.31234 18.3114 2.67845 18.7631 2.67845Z" fill="#FFBA0A"/>
<path d="M14.6302 3.93431C15.0819 3.93431 15.448 3.5682 15.448 3.11657C15.448 2.66494 15.0819 2.29883 14.6302 2.29883C14.1786 2.29883 13.8125 2.66494 13.8125 3.11657C13.8125 3.5682 14.1786 3.93431 14.6302 3.93431Z" fill="#FFBA0A"/>
<path d="M10.8177 5.96849C11.2694 5.96849 11.6355 5.60238 11.6355 5.15075C11.6355 4.69912 11.2694 4.33301 10.8177 4.33301C10.3661 4.33301 10 4.69912 10 5.15075C10 5.60238 10.3661 5.96849 10.8177 5.96849Z" fill="#FFBA0A"/>
<path d="M7.4779 8.7097C7.92952 8.7097 8.29564 8.34359 8.29564 7.89196C8.29564 7.44033 7.92952 7.07422 7.4779 7.07422C7.02627 7.07422 6.66016 7.44033 6.66016 7.89196C6.66016 8.34359 7.02627 8.7097 7.4779 8.7097Z" fill="#FFBA0A"/>
<path d="M4.73571 12.0515C5.18734 12.0515 5.55345 11.6854 5.55345 11.2338C5.55345 10.7821 5.18734 10.416 4.73571 10.416C4.28408 10.416 3.91797 10.7821 3.91797 11.2338C3.91797 11.6854 4.28408 12.0515 4.73571 12.0515Z" fill="#FFBA0A"/>
<path d="M2.70055 15.864C3.15218 15.864 3.5183 15.4979 3.5183 15.0463C3.5183 14.5946 3.15218 14.2285 2.70055 14.2285C2.24893 14.2285 1.88281 14.5946 1.88281 15.0463C1.88281 15.4979 2.24893 15.864 2.70055 15.864Z" fill="#FFBA0A"/>
<path d="M1.44274 19.9997C1.89437 19.9997 2.26048 19.6336 2.26048 19.182C2.26048 18.7304 1.89437 18.3643 1.44274 18.3643C0.991115 18.3643 0.625 18.7304 0.625 19.182C0.625 19.6336 0.991115 19.9997 1.44274 19.9997Z" fill="#FFBA0A"/>
<path d="M1.02087 24.2986C1.47249 24.2986 1.83861 23.9325 1.83861 23.4808C1.83861 23.0292 1.47249 22.6631 1.02087 22.6631C0.56924 22.6631 0.203125 23.0292 0.203125 23.4808C0.203125 23.9325 0.56924 24.2986 1.02087 24.2986Z" fill="#FFBA0A"/>
<path d="M1.44274 28.5974C1.89437 28.5974 2.26048 28.2313 2.26048 27.7797C2.26048 27.328 1.89437 26.9619 1.44274 26.9619C0.991115 26.9619 0.625 27.328 0.625 27.7797C0.625 28.2313 0.991115 28.5974 1.44274 28.5974Z" fill="#FFBA0A"/>
<path d="M2.69665 32.7331C3.14827 32.7331 3.51439 32.367 3.51439 31.9154C3.51439 31.4638 3.14827 31.0977 2.69665 31.0977C2.24502 31.0977 1.87891 31.4638 1.87891 31.9154C1.87891 32.367 2.24502 32.7331 2.69665 32.7331Z" fill="#FFBA0A"/>
<path d="M4.73571 36.5437C5.18734 36.5437 5.55345 36.1776 5.55345 35.7259C5.55345 35.2743 5.18734 34.9082 4.73571 34.9082C4.28408 34.9082 3.91797 35.2743 3.91797 35.7259C3.91797 36.1776 4.28408 36.5437 4.73571 36.5437Z" fill="#FFBA0A"/>
<path d="M7.4779 39.8845C7.92952 39.8845 8.29564 39.5184 8.29564 39.0668C8.29564 38.6151 7.92952 38.249 7.4779 38.249C7.02627 38.249 6.66016 38.6151 6.66016 39.0668C6.66016 39.5184 7.02627 39.8845 7.4779 39.8845Z" fill="#FFBA0A"/>
<path d="M10.8177 42.6257C11.2694 42.6257 11.6355 42.2596 11.6355 41.808C11.6355 41.3564 11.2694 40.9902 10.8177 40.9902C10.3661 40.9902 10 41.3564 10 41.808C10 42.2596 10.3661 42.6257 10.8177 42.6257Z" fill="#FFBA0A"/>
<path d="M14.6302 44.6609C15.0819 44.6609 15.448 44.2948 15.448 43.8431C15.448 43.3915 15.0819 43.0254 14.6302 43.0254C14.1786 43.0254 13.8125 43.3915 13.8125 43.8431C13.8125 44.2948 14.1786 44.6609 14.6302 44.6609Z" fill="#FFBA0A"/>
<path d="M18.7631 45.9167C19.2147 45.9167 19.5808 45.5506 19.5808 45.099C19.5808 44.6474 19.2147 44.2812 18.7631 44.2812C18.3114 44.2812 17.9453 44.6474 17.9453 45.099C17.9453 45.5506 18.3114 45.9167 18.7631 45.9167Z" fill="#FFBA0A"/>
<path d="M23.0599 46.3415C23.5116 46.3415 23.8777 45.9754 23.8777 45.5238C23.8777 45.0722 23.5116 44.7061 23.0599 44.7061C22.6083 44.7061 22.2422 45.0722 22.2422 45.5238C22.2422 45.9754 22.6083 46.3415 23.0599 46.3415Z" fill="#FFBA0A"/>
<path d="M27.3646 45.9167C27.8162 45.9167 28.1824 45.5506 28.1824 45.099C28.1824 44.6474 27.8162 44.2812 27.3646 44.2812C26.913 44.2812 26.5469 44.6474 26.5469 45.099C26.5469 45.5506 26.913 45.9167 27.3646 45.9167Z" fill="#FFBA0A"/>
<path d="M31.4974 44.6609C31.9491 44.6609 32.3152 44.2948 32.3152 43.8431C32.3152 43.3915 31.9491 43.0254 31.4974 43.0254C31.0458 43.0254 30.6797 43.3915 30.6797 43.8431C30.6797 44.2948 31.0458 44.6609 31.4974 44.6609Z" fill="#FFBA0A"/>
<path d="M35.3099 42.6257C35.7616 42.6257 36.1277 42.2596 36.1277 41.808C36.1277 41.3564 35.7616 40.9902 35.3099 40.9902C34.8583 40.9902 34.4922 41.3564 34.4922 41.808C34.4922 42.2596 34.8583 42.6257 35.3099 42.6257Z" fill="#FFBA0A"/>
<path d="M38.6498 39.8845C39.1014 39.8845 39.4675 39.5184 39.4675 39.0668C39.4675 38.6151 39.1014 38.249 38.6498 38.249C38.1981 38.249 37.832 38.6151 37.832 39.0668C37.832 39.5184 38.1981 39.8845 38.6498 39.8845Z" fill="#FFBA0A"/>
<path d="M41.392 36.5437C41.8436 36.5437 42.2097 36.1776 42.2097 35.7259C42.2097 35.2743 41.8436 34.9082 41.392 34.9082C40.9403 34.9082 40.5742 35.2743 40.5742 35.7259C40.5742 36.1776 40.9403 36.5437 41.392 36.5437Z" fill="#FFBA0A"/>
<path d="M43.4271 32.7312C43.8787 32.7312 44.2449 32.3651 44.2449 31.9134C44.2449 31.4618 43.8787 31.0957 43.4271 31.0957C42.9755 31.0957 42.6094 31.4618 42.6094 31.9134C42.6094 32.3651 42.9755 32.7312 43.4271 32.7312Z" fill="#FFBA0A"/>
<path d="M44.681 28.5984C45.1326 28.5984 45.4988 28.2323 45.4988 27.7806C45.4988 27.329 45.1326 26.9629 44.681 26.9629C44.2294 26.9629 43.8633 27.329 43.8633 27.7806C43.8633 28.2323 44.2294 28.5984 44.681 28.5984Z" fill="#FFBA0A"/>
<path d="M45.1068 24.2986C45.5584 24.2986 45.9245 23.9325 45.9245 23.4808C45.9245 23.0292 45.5584 22.6631 45.1068 22.6631C44.6552 22.6631 44.2891 23.0292 44.2891 23.4808C44.2891 23.9325 44.6552 24.2986 45.1068 24.2986Z" fill="#FFBA0A"/>
<path d="M44.681 19.9978C45.1326 19.9978 45.4988 19.6317 45.4988 19.18C45.4988 18.7284 45.1326 18.3623 44.681 18.3623C44.2294 18.3623 43.8633 18.7284 43.8633 19.18C43.8633 19.6317 44.2294 19.9978 44.681 19.9978Z" fill="#FFBA0A"/>
<path d="M43.4271 15.8884C43.8787 15.8884 44.2449 15.5223 44.2449 15.0707C44.2449 14.619 43.8787 14.2529 43.4271 14.2529C42.9755 14.2529 42.6094 14.619 42.6094 15.0707C42.6094 15.5223 42.9755 15.8884 43.4271 15.8884Z" fill="#FFBA0A"/>
<path d="M41.3763 12.0779C41.828 12.0779 42.1941 11.7118 42.1941 11.2601C42.1941 10.8085 41.828 10.4424 41.3763 10.4424C40.9247 10.4424 40.5586 10.8085 40.5586 11.2601C40.5586 11.7118 40.9247 12.0779 41.3763 12.0779Z" fill="#FFBA0A"/>
<path d="M38.6302 8.73705C39.0819 8.73705 39.448 8.37093 39.448 7.9193C39.448 7.46768 39.0819 7.10156 38.6302 7.10156C38.1786 7.10156 37.8125 7.46768 37.8125 7.9193C37.8125 8.37093 38.1786 8.73705 38.6302 8.73705Z" fill="#FFBA0A"/>
<path d="M35.2904 5.99388C35.742 5.99388 36.1081 5.62777 36.1081 5.17614C36.1081 4.72451 35.742 4.3584 35.2904 4.3584C34.8388 4.3584 34.4727 4.72451 34.4727 5.17614C34.4727 5.62777 34.8388 5.99388 35.2904 5.99388Z" fill="#FFBA0A"/>
<path d="M30.9569 31.5559V33.5065H15.9916V31.9521L24.8611 23.2656C25.9786 22.1683 26.7304 21.2235 27.1165 20.431C27.5229 19.6182 27.7261 18.8054 27.7261 17.9927C27.7261 16.7329 27.2892 15.7575 26.4155 15.0667C25.5621 14.3555 24.3327 13.9999 22.7275 13.9999C20.2282 13.9999 18.2877 14.7924 16.906 16.3773L15.3516 15.0362C16.1847 14.0609 17.2413 13.309 18.5214 12.7807C19.8218 12.2524 21.2848 11.9883 22.9104 11.9883C25.0846 11.9883 26.8016 12.5064 28.0614 13.5427C29.3415 14.5587 29.9815 15.9607 29.9815 17.7488C29.9815 18.8461 29.7377 19.9027 29.25 20.9187C28.7624 21.9346 27.8378 23.103 26.4764 24.4238L19.2224 31.5559H30.9569Z" fill="#4E342E"/>
</g>
<defs>
<clipPath id="clip0_364_3703">
<rect width="45.7187" height="45.7187" fill="white" transform="translate(0.203125 0.621094)"/>
</clipPath>
</defs>
</svg>
