<svg width="47" height="47" viewBox="0 0 47 47" fill="none" xmlns="http://www.w3.org/2000/svg">
<g clip-path="url(#clip0_364_3737)">
<path d="M31.9154 3.93431C32.367 3.93431 32.7331 3.5682 32.7331 3.11657C32.7331 2.66494 32.367 2.29883 31.9154 2.29883C31.4638 2.29883 31.0977 2.66494 31.0977 3.11657C31.0977 3.5682 31.4638 3.93431 31.9154 3.93431Z" fill="#FFBA0A"/>
<path d="M27.7826 2.67845C28.2342 2.67845 28.6003 2.31234 28.6003 1.86071C28.6003 1.40908 28.2342 1.04297 27.7826 1.04297C27.331 1.04297 26.9648 1.40908 26.9648 1.86071C26.9648 2.31234 27.331 2.67845 27.7826 2.67845Z" fill="#FFBA0A"/>
<path d="M23.4779 2.25658C23.9295 2.25658 24.2956 1.89046 24.2956 1.43884C24.2956 0.987209 23.9295 0.621094 23.4779 0.621094C23.0263 0.621094 22.6602 0.987209 22.6602 1.43884C22.6602 1.89046 23.0263 2.25658 23.4779 2.25658Z" fill="#FFBA0A"/>
<path d="M19.181 2.67845C19.6327 2.67845 19.9988 2.31234 19.9988 1.86071C19.9988 1.40908 19.6327 1.04297 19.181 1.04297C18.7294 1.04297 18.3633 1.40908 18.3633 1.86071C18.3633 2.31234 18.7294 2.67845 19.181 2.67845Z" fill="#FFBA0A"/>
<path d="M15.0482 3.93431C15.4998 3.93431 15.866 3.5682 15.866 3.11657C15.866 2.66494 15.4998 2.29883 15.0482 2.29883C14.5966 2.29883 14.2305 2.66494 14.2305 3.11657C14.2305 3.5682 14.5966 3.93431 15.0482 3.93431Z" fill="#FFBA0A"/>
<path d="M11.2357 5.96849C11.6873 5.96849 12.0535 5.60238 12.0535 5.15075C12.0535 4.69912 11.6873 4.33301 11.2357 4.33301C10.7841 4.33301 10.418 4.69912 10.418 5.15075C10.418 5.60238 10.7841 5.96849 11.2357 5.96849Z" fill="#FFBA0A"/>
<path d="M7.89587 8.7097C8.34749 8.7097 8.71361 8.34359 8.71361 7.89196C8.71361 7.44033 8.34749 7.07422 7.89587 7.07422C7.44424 7.07422 7.07812 7.44033 7.07812 7.89196C7.07812 8.34359 7.44424 8.7097 7.89587 8.7097Z" fill="#FFBA0A"/>
<path d="M5.15368 12.0515C5.60531 12.0515 5.97142 11.6854 5.97142 11.2338C5.97142 10.7821 5.60531 10.416 5.15368 10.416C4.70205 10.416 4.33594 10.7821 4.33594 11.2338C4.33594 11.6854 4.70205 12.0515 5.15368 12.0515Z" fill="#FFBA0A"/>
<path d="M3.11852 15.864C3.57015 15.864 3.93626 15.4979 3.93626 15.0463C3.93626 14.5946 3.57015 14.2285 3.11852 14.2285C2.6669 14.2285 2.30078 14.5946 2.30078 15.0463C2.30078 15.4979 2.6669 15.864 3.11852 15.864Z" fill="#FFBA0A"/>
<path d="M1.86071 19.9997C2.31234 19.9997 2.67845 19.6336 2.67845 19.182C2.67845 18.7304 2.31234 18.3643 1.86071 18.3643C1.40908 18.3643 1.04297 18.7304 1.04297 19.182C1.04297 19.6336 1.40908 19.9997 1.86071 19.9997Z" fill="#FFBA0A"/>
<path d="M1.43884 24.2986C1.89046 24.2986 2.25658 23.9325 2.25658 23.4808C2.25658 23.0292 1.89046 22.6631 1.43884 22.6631C0.987209 22.6631 0.621094 23.0292 0.621094 23.4808C0.621094 23.9325 0.987209 24.2986 1.43884 24.2986Z" fill="#FFBA0A"/>
<path d="M1.86071 28.5974C2.31234 28.5974 2.67845 28.2313 2.67845 27.7797C2.67845 27.328 2.31234 26.9619 1.86071 26.9619C1.40908 26.9619 1.04297 27.328 1.04297 27.7797C1.04297 28.2313 1.40908 28.5974 1.86071 28.5974Z" fill="#FFBA0A"/>
<path d="M3.11462 32.7331C3.56624 32.7331 3.93236 32.367 3.93236 31.9154C3.93236 31.4638 3.56624 31.0977 3.11462 31.0977C2.66299 31.0977 2.29688 31.4638 2.29688 31.9154C2.29688 32.367 2.66299 32.7331 3.11462 32.7331Z" fill="#FFBA0A"/>
<path d="M5.15368 36.5437C5.60531 36.5437 5.97142 36.1776 5.97142 35.7259C5.97142 35.2743 5.60531 34.9082 5.15368 34.9082C4.70205 34.9082 4.33594 35.2743 4.33594 35.7259C4.33594 36.1776 4.70205 36.5437 5.15368 36.5437Z" fill="#FFBA0A"/>
<path d="M7.89587 39.8845C8.34749 39.8845 8.71361 39.5184 8.71361 39.0668C8.71361 38.6151 8.34749 38.249 7.89587 38.249C7.44424 38.249 7.07812 38.6151 7.07812 39.0668C7.07812 39.5184 7.44424 39.8845 7.89587 39.8845Z" fill="#FFBA0A"/>
<path d="M11.2357 42.6257C11.6873 42.6257 12.0535 42.2596 12.0535 41.808C12.0535 41.3564 11.6873 40.9902 11.2357 40.9902C10.7841 40.9902 10.418 41.3564 10.418 41.808C10.418 42.2596 10.7841 42.6257 11.2357 42.6257Z" fill="#FFBA0A"/>
<path d="M15.0482 44.6609C15.4998 44.6609 15.866 44.2948 15.866 43.8431C15.866 43.3915 15.4998 43.0254 15.0482 43.0254C14.5966 43.0254 14.2305 43.3915 14.2305 43.8431C14.2305 44.2948 14.5966 44.6609 15.0482 44.6609Z" fill="#FFBA0A"/>
<path d="M19.181 45.9167C19.6327 45.9167 19.9988 45.5506 19.9988 45.099C19.9988 44.6474 19.6327 44.2812 19.181 44.2812C18.7294 44.2812 18.3633 44.6474 18.3633 45.099C18.3633 45.5506 18.7294 45.9167 19.181 45.9167Z" fill="#FFBA0A"/>
<path d="M23.4779 46.3415C23.9295 46.3415 24.2956 45.9754 24.2956 45.5238C24.2956 45.0722 23.9295 44.7061 23.4779 44.7061C23.0263 44.7061 22.6602 45.0722 22.6602 45.5238C22.6602 45.9754 23.0263 46.3415 23.4779 46.3415Z" fill="#FFBA0A"/>
<path d="M27.7826 45.9167C28.2342 45.9167 28.6003 45.5506 28.6003 45.099C28.6003 44.6474 28.2342 44.2812 27.7826 44.2812C27.331 44.2812 26.9648 44.6474 26.9648 45.099C26.9648 45.5506 27.331 45.9167 27.7826 45.9167Z" fill="#FFBA0A"/>
<path d="M31.9154 44.6609C32.367 44.6609 32.7331 44.2948 32.7331 43.8431C32.7331 43.3915 32.367 43.0254 31.9154 43.0254C31.4638 43.0254 31.0977 43.3915 31.0977 43.8431C31.0977 44.2948 31.4638 44.6609 31.9154 44.6609Z" fill="#FFBA0A"/>
<path d="M35.7279 42.6257C36.1795 42.6257 36.5456 42.2596 36.5456 41.808C36.5456 41.3564 36.1795 40.9902 35.7279 40.9902C35.2763 40.9902 34.9102 41.3564 34.9102 41.808C34.9102 42.2596 35.2763 42.6257 35.7279 42.6257Z" fill="#FFBA0A"/>
<path d="M39.0677 39.8845C39.5194 39.8845 39.8855 39.5184 39.8855 39.0668C39.8855 38.6151 39.5194 38.249 39.0677 38.249C38.6161 38.249 38.25 38.6151 38.25 39.0668C38.25 39.5184 38.6161 39.8845 39.0677 39.8845Z" fill="#FFBA0A"/>
<path d="M41.8099 36.5437C42.2616 36.5437 42.6277 36.1776 42.6277 35.7259C42.6277 35.2743 42.2616 34.9082 41.8099 34.9082C41.3583 34.9082 40.9922 35.2743 40.9922 35.7259C40.9922 36.1776 41.3583 36.5437 41.8099 36.5437Z" fill="#FFBA0A"/>
<path d="M43.8451 32.7312C44.2967 32.7312 44.6628 32.3651 44.6628 31.9134C44.6628 31.4618 44.2967 31.0957 43.8451 31.0957C43.3935 31.0957 43.0273 31.4618 43.0273 31.9134C43.0273 32.3651 43.3935 32.7312 43.8451 32.7312Z" fill="#FFBA0A"/>
<path d="M45.099 28.5984C45.5506 28.5984 45.9167 28.2323 45.9167 27.7806C45.9167 27.329 45.5506 26.9629 45.099 26.9629C44.6474 26.9629 44.2812 27.329 44.2812 27.7806C44.2812 28.2323 44.6474 28.5984 45.099 28.5984Z" fill="#FFBA0A"/>
<path d="M45.5248 24.2986C45.9764 24.2986 46.3425 23.9325 46.3425 23.4808C46.3425 23.0292 45.9764 22.6631 45.5248 22.6631C45.0731 22.6631 44.707 23.0292 44.707 23.4808C44.707 23.9325 45.0731 24.2986 45.5248 24.2986Z" fill="#FFBA0A"/>
<path d="M45.099 19.9978C45.5506 19.9978 45.9167 19.6317 45.9167 19.18C45.9167 18.7284 45.5506 18.3623 45.099 18.3623C44.6474 18.3623 44.2812 18.7284 44.2812 19.18C44.2812 19.6317 44.6474 19.9978 45.099 19.9978Z" fill="#FFBA0A"/>
<path d="M43.8451 15.8884C44.2967 15.8884 44.6628 15.5223 44.6628 15.0707C44.6628 14.619 44.2967 14.2529 43.8451 14.2529C43.3935 14.2529 43.0273 14.619 43.0273 15.0707C43.0273 15.5223 43.3935 15.8884 43.8451 15.8884Z" fill="#FFBA0A"/>
<path d="M41.7943 12.0779C42.2459 12.0779 42.612 11.7118 42.612 11.2601C42.612 10.8085 42.2459 10.4424 41.7943 10.4424C41.3427 10.4424 40.9766 10.8085 40.9766 11.2601C40.9766 11.7118 41.3427 12.0779 41.7943 12.0779Z" fill="#FFBA0A"/>
<path d="M39.0482 8.73705C39.4998 8.73705 39.866 8.37093 39.866 7.9193C39.866 7.46768 39.4998 7.10156 39.0482 7.10156C38.5966 7.10156 38.2305 7.46768 38.2305 7.9193C38.2305 8.37093 38.5966 8.73705 39.0482 8.73705Z" fill="#FFBA0A"/>
<path d="M35.7084 5.99388C36.16 5.99388 36.5261 5.62777 36.5261 5.17614C36.5261 4.72451 36.16 4.3584 35.7084 4.3584C35.2567 4.3584 34.8906 4.72451 34.8906 5.17614C34.8906 5.62777 35.2567 5.99388 35.7084 5.99388Z" fill="#FFBA0A"/>
<path d="M24.1193 22.1164C26.3545 22.2383 28.0511 22.8479 29.2093 23.9451C30.3879 25.0221 30.9771 26.4343 30.9771 28.1817C30.9771 29.4009 30.6825 30.488 30.0932 31.443C29.504 32.3777 28.6302 33.1194 27.472 33.668C26.3138 34.2166 24.9016 34.4909 23.2354 34.4909C21.6912 34.4909 20.2282 34.2471 18.8464 33.7594C17.485 33.2514 16.3878 32.5809 15.5547 31.7478L16.6215 30.0105C17.3326 30.742 18.2775 31.3414 19.456 31.8088C20.6345 32.2558 21.8943 32.4793 23.2354 32.4793C24.9829 32.4793 26.3341 32.1034 27.2892 31.3516C28.2442 30.5794 28.7217 29.5228 28.7217 28.1817C28.7217 26.861 28.2442 25.8247 27.2892 25.0729C26.3341 24.3211 24.8915 23.9451 22.9611 23.9451H21.4372V22.3298L27.3501 14.9233H16.4386V12.9727H30.1542V14.5271L24.1193 22.1164Z" fill="#4E342E"/>
</g>
<defs>
<clipPath id="clip0_364_3737">
<rect width="45.7187" height="45.7187" fill="white" transform="translate(0.621094 0.621094)"/>
</clipPath>
</defs>
</svg>
