<svg width="31" height="25" viewBox="0 0 31 25" fill="none" xmlns="http://www.w3.org/2000/svg">
<path d="M18.0471 18.038H12.031V24.054H18.0471V18.038Z" fill="#4E342E"/>
<path d="M30.0763 0.741211H0V21.0445H30.0763V0.741211Z" fill="#8D6E63"/>
<path d="M28.5753 2.24673H1.50607V19.5402H28.5753V2.24673Z" fill="white"/>
<path d="M21.8083 23.3011H8.27463V24.8046H21.8083V23.3011Z" fill="#8D6E63"/>
<path d="M9.77194 17.2851H20.2985V17.276C20.2985 14.7907 18.2823 12.7744 15.797 12.7744H14.2735C11.7863 12.7744 9.77194 14.7907 9.77194 17.276V17.2851Z" fill="#43A047"/>
<path d="M12.4052 8.26116C11.7816 8.26116 11.278 8.76659 11.278 9.38837C11.278 10.012 11.7834 10.5156 12.4052 10.5156C13.027 10.5156 13.5324 10.0101 13.5324 9.38837C13.5324 8.76659 13.027 8.26116 12.4052 8.26116ZM17.6685 8.26116C17.0449 8.26116 16.5413 8.76659 16.5413 9.38837C16.5413 10.012 17.0468 10.5156 17.6685 10.5156C18.2903 10.5156 18.7957 10.0101 18.7957 9.38837C18.7957 8.76659 18.2921 8.26116 17.6685 8.26116ZM16.5413 11.2701H13.5342V13.5263C13.5342 13.5263 13.7815 14.279 15.0069 14.279C16.2323 14.279 16.5413 13.5263 16.5413 13.5263V11.2701Z" fill="#EAA549"/>
<path d="M18.0452 6.91985C18.0452 5.26177 16.6962 5.25449 15.0381 5.25449C13.3801 5.25449 12.031 5.26177 12.031 6.91985C12.031 7.17983 12.031 9.50332 12.031 9.76513C12.031 11.4232 13.3801 12.7722 15.0381 12.7722C16.6962 12.7722 18.0452 11.4232 18.0452 9.76513C18.0452 9.50514 18.0452 7.18165 18.0452 6.91985Z" fill="#FFB74D"/>
<path d="M14.8723 3.75024C13.0397 3.91569 11.278 5.20106 11.278 7.9409V9.01356L12.0307 9.76624V7.51001L16.7759 5.85557L18.0467 7.51001V9.76624L18.7994 9.01356V8.10816C18.7994 6.29372 18.6976 4.94653 16.5432 4.50111L16.1777 3.74842H14.8723V3.75024Z" fill="#4E342E"/>
<path d="M21.804 15.7803H26.3146V18.7874H21.804V15.7803ZM3.75781 15.7803H8.26846V18.7874H3.75781V15.7803ZM15.788 15.7803H20.2986V18.7874H15.788V15.7803ZM9.772 15.7803H14.2826V18.7874H9.772V15.7803Z" fill="#FFC107"/>
<path d="M21.804 17H26.3146V20.0071H21.804V17ZM3.75781 17H8.26846V20.0071H3.75781V17ZM15.788 17H20.2986V20.0071H15.788V17ZM9.772 17H14.2826V20.0071H9.772V17Z" fill="#FFC107"/>
</svg>
