<?xml version="1.0" encoding="utf-8"?>
<!-- Generator: Adobe Illustrator 23.0.3, SVG Export Plug-In . SVG Version: 6.00 Build 0)  -->
<svg version="1.1" id="Layer_1" xmlns="http://www.w3.org/2000/svg" xmlns:xlink="http://www.w3.org/1999/xlink" x="0px" y="0px"
	 viewBox="0 0 734 753" style="enable-background:new 0 0 734 753;" xml:space="preserve">
<style type="text/css">
	.st0{fill:#FFC107;}
	.st1{fill:#FFCA18;}
	.st2{fill:#E3A70B;}
	
		.st3{fill:none;stroke:#FFBA0A;stroke-width:2;stroke-linecap:round;stroke-linejoin:round;stroke-miterlimit:10;stroke-dasharray:9.25,9.25;}
</style>
<path class="st0" d="M54.7,551.5l10.2,0.5L1,570.3L54.7,551.5z"/>
<path class="st1" d="M60.8,574.4l-11.9-45.9L1,570.3L60.8,574.4z"/>
<path class="st2" d="M54.7,551.5l10.2,0.5l-12.2-9.1L7.2,567.7L54.7,551.5z"/>
<path class="st3" d="M70,550.1C83,546,89,530,82,518c-3-4-6-8-12-7c-3,0-6,3-5,7c2,5,8,7,13,7c48,2,96,2,144-3c48-4,95-5,143-17
	c3,0,6,0,9,0c103-23,220-52,263-157c2-6,4-11,5-17c2-14,4-27,4-41c-1-11-2-21-3-32c-2-12-6-24-9-36c-10-30-23-57-39.2-83.7"/>
</svg>
