<?xml version="1.0" encoding="utf-8"?>
<!-- Generator: Adobe Illustrator 23.0.3, SVG Export Plug-In . SVG Version: 6.00 Build 0)  -->
<svg version="1.1" id="Layer_1" xmlns="http://www.w3.org/2000/svg" xmlns:xlink="http://www.w3.org/1999/xlink" x="0px" y="0px"
	 viewBox="0 0 712 724" style="enable-background:new 0 0 712 724;" xml:space="preserve">
<style type="text/css">
	.st0{fill:#FFC107;}
	.st1{fill:#FFCA18;}
	.st2{fill:#E3A70B;}
	
		.st3{fill:none;stroke:#FFBA0A;stroke-width:2;stroke-linecap:round;stroke-linejoin:round;stroke-miterlimit:10;stroke-dasharray:9.25,9.25;}
</style>
<path class="st0" d="M54.1,524.9l10.2,0.5L0.5,543.6L54.1,524.9z"/>
<path class="st1" d="M60.2,547.7l-11.9-45.9L0.5,543.6L60.2,547.7z"/>
<path class="st2" d="M54.1,524.9l10.2,0.5l-12.2-9.1L6.6,541L54.1,524.9z"/>
<path class="st3" d="M69.4,523.4C78,521,82,513,84,505c2-10-5-23-16-20c-6,1-3,11,2,11c72,8,142,7,214,1c36-3,70-7,106-14
	c35-7,68-15,100-29c2-1,3,0,5-1c17-7,33-16,49-25c2-2,4-4,7-5c1-1,2-2,3-3s3-1,4-2s2-2,3-3s3-1,4-2c20-17,37-36,48-60c1-2,0-3,1-5
	c7-14,9-30,11-46c2-18-1-34-5-52c-2-12-5-24-10-36c-4-12-9-23-14-35c-12-24-25-47-40-69.3"/>
</svg>
