<svg width="111" height="63" viewBox="0 0 111 63" fill="none" xmlns="http://www.w3.org/2000/svg">
<path d="M45.9706 13.4661V50.1507C45.9706 51.409 44.9386 52.441 43.6803 52.441H18.4598C18.2556 52.441 18.068 52.419 17.8859 52.3472C16.898 52.1154 16.1641 51.1993 16.1641 50.1451V13.4661C16.1641 12.2078 17.196 11.1758 18.4543 11.1758H43.6748C44.9386 11.1758 45.9706 12.2078 45.9706 13.4661Z" fill="#FFC107"/>
<path d="M36.6565 5.60634C36.1929 3.29952 34.4656 1.45076 32.2746 0.992703C28.4667 0.186972 25.2383 3.06774 25.2383 6.64938C25.2383 7.80278 25.5859 8.72993 26.044 9.65155C26.4524 10.2641 26.1157 11.0202 25.3983 11.1968H36.5351C35.8949 11.0202 35.5638 10.2641 35.9721 9.65155C36.6565 8.4871 37.0042 7.10191 36.6565 5.60634Z" fill="#FFC107"/>
<path d="M36.6565 58.025C36.1929 60.3318 34.4656 62.1806 32.2746 62.6387C28.4667 63.4444 25.2383 60.5581 25.2383 56.982C25.2383 55.8286 25.5859 54.9014 26.044 53.9798C26.4524 53.3672 26.1157 52.6112 25.3983 52.4346H36.5351C35.8949 52.6112 35.5638 53.3672 35.9721 53.9798C36.6565 55.1387 37.0042 56.5239 36.6565 58.025Z" fill="#FFC107"/>
<path d="M51.5436 38.5481C53.8504 38.0845 55.6992 36.3572 56.1572 34.1662C56.9629 30.3583 54.0822 27.1299 50.5005 27.1299C49.3471 27.1299 48.4255 27.4776 47.4984 27.9356C46.8858 28.344 46.1297 28.0018 45.9531 27.2844V38.4212C46.1297 37.7865 46.8858 37.4499 47.4984 37.8582C48.6628 38.5481 50.0425 38.8958 51.5436 38.5481Z" fill="#FFC107"/>
<path d="M62.0207 11.1699C60.7569 11.1699 59.7305 12.1964 59.7305 13.4603V27.2798C59.9071 27.9972 60.6631 28.3394 61.2757 27.931C62.2028 27.4674 63.1189 27.1252 64.2779 27.1252C67.854 27.1252 70.7403 30.3538 69.9345 34.1619C69.4765 36.3529 67.6277 38.0859 65.3209 38.544C63.8198 38.8917 62.4346 38.544 61.2812 37.8541C60.6686 37.4457 59.9126 37.7823 59.736 38.417V50.1448C59.736 51.4087 60.7625 52.4352 62.0262 52.4352H91.8328C93.0965 52.4352 94.123 51.4087 94.123 50.1448V13.4603C94.123 12.1964 93.0965 11.1699 91.8328 11.1699H62.0207Z" fill="#8D6E63"/>
<path d="M82.6112 5.60634C82.1532 3.29952 80.4203 1.45076 78.2294 0.992703C74.4159 0.186972 71.1875 3.06774 71.1875 6.64938C71.1875 7.80278 71.5352 8.72993 71.9932 9.65155C72.4016 10.2641 72.0595 11.0202 71.342 11.1968H82.4788C81.8386 11.0202 81.5075 10.2641 81.9159 9.65155C82.6112 8.4871 82.9534 7.10191 82.6112 5.60634Z" fill="#8D6E63"/>
<path d="M82.6112 58.025C82.1532 60.3318 80.4203 62.1806 78.2294 62.6387C74.4159 63.4499 71.1875 60.5636 71.1875 56.982C71.1875 55.8286 71.5352 54.9014 71.9932 53.9798C72.4016 53.3672 72.0595 52.6112 71.342 52.4346H82.4788C81.8386 52.6112 81.5075 53.3672 81.9159 53.9798C82.6112 55.1387 82.9534 56.5239 82.6112 58.025Z" fill="#8D6E63"/>
<path d="M86.3388 48.3159C87.9006 50.2641 90.0087 51.6879 92.3928 52.3502C93.3807 52.1184 94.1147 51.2023 94.1147 50.1482V34.1211L91.8244 36.4115H88.9602L81.9238 31.047C80.4338 29.8549 76.3555 31.2788 76.3555 31.2788L86.3388 48.3159Z" fill="#4E342E"/>
<path d="M76.5756 31.6669L86.3382 43.6872C88.049 45.8507 90.4607 47.3573 93.1538 47.9479L110.151 52.4403V37.6826L106.448 36.2422L97.9882 23.1788C97.4418 22.3344 96.614 21.7163 95.6483 21.4293L94.103 20.916V29.5145L91.8127 31.8049H88.9485L81.9012 26.4295C80.4277 25.2263 78.2919 25.3146 76.9233 26.6281C75.5271 27.9692 75.3725 30.1492 76.5756 31.6669Z" fill="#FFB74D"/>
<path d="M23.9321 48.3159C22.3758 50.2641 20.2622 51.6879 17.8781 52.3502C16.8902 52.1184 16.1562 51.2023 16.1562 50.1482V34.1211L18.4465 36.4115H21.3107L28.3471 31.047C29.8371 29.8549 33.921 31.2788 33.921 31.2788L23.9321 48.3159Z" fill="#FFA000"/>
<path d="M77.9511 27.7603C76.2623 29.4711 78.4367 31.6731 78.4367 31.6731C78.4367 31.6731 80.1254 31.1764 80.8208 30.481C81.5161 29.7857 81.9135 28.2956 81.9135 28.2956C81.9135 28.2956 79.7005 25.9833 77.9511 27.7603Z" fill="#FFE0B2"/>
<path d="M33.3414 26.6281C31.9728 25.3146 29.837 25.2263 28.3635 26.4295L21.3161 31.8049H18.4519L16.1617 29.5145V20.916L14.6165 21.4293C13.6562 21.7163 12.8284 22.3399 12.2765 23.1788L3.81634 36.2422L0.113281 37.6826V52.4403L17.1109 47.9479C19.804 47.3573 22.2157 45.8562 23.9265 43.6872L33.6891 31.6669C34.8922 30.1492 34.7432 27.9692 33.3414 26.6281Z" fill="#FFB74D"/>
<path d="M28.3594 28.2956C28.3594 28.2956 28.7567 29.7857 29.4521 30.481C30.1474 31.1764 31.8362 31.6731 31.8362 31.6731C31.8362 31.6731 34.0105 29.4711 32.3218 27.7603C30.5724 25.9833 28.3594 28.2956 28.3594 28.2956Z" fill="#FFE0B2"/>
</svg>
