<svg width="77" height="63" viewBox="0 0 77 63" fill="none" xmlns="http://www.w3.org/2000/svg">
<path d="M76.3823 26.3057H0.03125V62.664H76.3823V26.3057Z" fill="#FFC107"/>
<path d="M56.3802 48.1254H61.8326V57.216H56.3802V48.1254ZM65.4704 48.1254H70.9228V57.216H65.4704V48.1254ZM65.4704 33.582H70.9228V42.6727H65.4704V33.582ZM56.3802 33.582H61.8326V42.6727H56.3802V33.582ZM5.47656 48.1254H10.929V57.216H5.47656V48.1254ZM14.5668 48.1254H20.0192V57.216H14.5668V48.1254ZM14.5668 33.582H20.0192V42.6727H14.5668V33.582ZM5.47656 33.582H10.929V42.6727H5.47656V33.582Z" fill="#4E342E"/>
<path d="M76.3823 17.2188H0.03125V28.1279H76.3823V17.2188Z" fill="#8D6E63"/>
<path d="M38.2003 3.58203L25.4766 16.3064V62.667H50.9284V16.3064L38.2003 3.58203Z" fill="#FFA000"/>
<path d="M38.1996 39.0338C43.22 39.0338 47.2899 34.9638 47.2899 29.9432C47.2899 24.9226 43.22 20.8525 38.1996 20.8525C33.1792 20.8525 29.1094 24.9226 29.1094 29.9432C29.1094 34.9638 33.1792 39.0338 38.1996 39.0338Z" fill="#FAFAFA"/>
<path d="M41.8474 31.762H38.2095C37.1208 31.762 36.3906 31.0361 36.3906 29.9431V26.3052C36.3906 25.2165 37.1165 24.4863 38.2095 24.4863C39.2983 24.4863 40.0284 25.2122 40.0284 26.3052V28.1242H41.8474C42.9361 28.1242 43.6663 28.85 43.6663 29.9431C43.6663 31.0361 42.9361 31.762 41.8474 31.762Z" fill="#4E342E"/>
<path d="M38.2053 0.856445L21.8438 17.2188V22.49L38.2053 6.12764L54.5669 22.49V17.2188L38.2053 0.856445Z" fill="#4E342E"/>
<path d="M38.2063 44.4863C35.1172 44.4863 32.7539 46.8497 32.7539 49.939C32.7539 53.0283 32.7539 62.6633 32.7539 62.6633H43.6631C43.6631 62.6633 43.6631 53.0283 43.6631 49.939C43.6631 46.8497 41.2998 44.4863 38.2063 44.4863Z" fill="#4E342E"/>
</svg>
