<?xml version="1.0" encoding="utf-8"?>
<!-- Generator: Adobe Illustrator 23.0.3, SVG Export Plug-In . SVG Version: 6.00 Build 0)  -->
<svg version="1.1" id="Layer_1" xmlns="http://www.w3.org/2000/svg" xmlns:xlink="http://www.w3.org/1999/xlink" x="0px" y="0px"
	 viewBox="0 0 413.8 537.1" style="enable-background:new 0 0 413.8 537.1;" xml:space="preserve">
<style type="text/css">
	.st0{fill:#FFBA0A;}
</style>
<path class="st0" d="M410.6,535.5c0-0.9,0.7-1.6,1.6-1.6s1.6,0.7,1.6,1.6c0,0.9-0.7,1.6-1.6,1.6c0,0,0,0,0,0
	C411.3,537.1,410.6,536.4,410.6,535.5C410.6,535.5,410.6,535.5,410.6,535.5z"/>
<path class="st0" d="M400.1,535.5c0-0.9,0.7-1.6,1.6-1.6s1.6,0.7,1.6,1.6c0,0.9-0.7,1.6-1.6,1.6c0,0,0,0,0,0
	C400.8,537.1,400.1,536.4,400.1,535.5C400.1,535.5,400.1,535.5,400.1,535.5z"/>
<path class="st0" d="M412.2,523.5c-0.9,0-1.6,0.7-1.6,1.6c0,0.9,0.7,1.6,1.6,1.6c0.9,0,1.6-0.7,1.6-1.6l0,0
	C413.8,524.2,413.1,523.5,412.2,523.5C412.2,523.5,412.2,523.5,412.2,523.5z"/>
<path class="st0" d="M400.1,525c0-0.9,0.7-1.6,1.6-1.6s1.6,0.7,1.6,1.6c0,0.9-0.7,1.6-1.6,1.6c0,0,0,0,0,0
	C400.8,526.6,400.1,525.9,400.1,525C400.1,525,400.1,525,400.1,525z"/>
<path class="st0" d="M389.6,535.5c0-0.9,0.7-1.6,1.6-1.6s1.6,0.7,1.6,1.6c0,0.9-0.7,1.6-1.6,1.6c0,0,0,0,0,0
	C390.3,537.1,389.6,536.4,389.6,535.5C389.6,535.5,389.6,535.5,389.6,535.5z"/>
<path class="st0" d="M379.1,535.5c0-0.9,0.7-1.6,1.6-1.6s1.6,0.7,1.6,1.6c0,0.9-0.7,1.6-1.6,1.6c0,0,0,0,0,0
	C379.8,537.1,379.1,536.4,379.1,535.5C379.1,535.5,379.1,535.5,379.1,535.5z"/>
<path class="st0" d="M391.2,523.5c-0.9,0-1.6,0.7-1.6,1.6c0,0.9,0.7,1.6,1.6,1.6c0.9,0,1.6-0.7,1.6-1.6l0,0
	C392.8,524.2,392.1,523.5,391.2,523.5C391.2,523.5,391.2,523.5,391.2,523.5z"/>
<path class="st0" d="M379.1,525c0-0.9,0.7-1.6,1.6-1.6s1.6,0.7,1.6,1.6c0,0.9-0.7,1.6-1.6,1.6c0,0,0,0,0,0
	C379.8,526.6,379.1,525.9,379.1,525C379.1,525,379.1,525,379.1,525z"/>
<path class="st0" d="M368.6,535.5c0-0.9,0.7-1.6,1.6-1.6s1.6,0.7,1.6,1.6c0,0.9-0.7,1.6-1.6,1.6c0,0,0,0,0,0
	C369.3,537.1,368.6,536.4,368.6,535.5C368.6,535.5,368.6,535.5,368.6,535.5z"/>
<path class="st0" d="M358.1,535.5c0-0.9,0.7-1.6,1.6-1.6s1.6,0.7,1.6,1.6c0,0.9-0.7,1.6-1.6,1.6c0,0,0,0,0,0
	C358.8,537.1,358.1,536.4,358.1,535.5C358.1,535.5,358.1,535.5,358.1,535.5z"/>
<path class="st0" d="M370.2,523.5c-0.9,0-1.6,0.7-1.6,1.6c0,0.9,0.7,1.6,1.6,1.6c0.9,0,1.6-0.7,1.6-1.6l0,0
	C371.8,524.2,371.1,523.5,370.2,523.5z"/>
<path class="st0" d="M358.1,525c0-0.9,0.7-1.6,1.6-1.6s1.6,0.7,1.6,1.6c0,0.9-0.7,1.6-1.6,1.6c0,0,0,0,0,0
	C358.8,526.6,358.1,525.9,358.1,525C358.1,525,358.1,525,358.1,525z"/>
<path class="st0" d="M347.6,535.5c0-0.9,0.7-1.6,1.6-1.6s1.6,0.7,1.6,1.6c0,0.9-0.7,1.6-1.6,1.6c0,0,0,0,0,0
	C348.3,537.1,347.6,536.4,347.6,535.5C347.6,535.5,347.6,535.5,347.6,535.5z"/>
<path class="st0" d="M337,535.5c0-0.9,0.7-1.6,1.6-1.6s1.6,0.7,1.6,1.6c0,0.9-0.7,1.6-1.6,1.6c0,0,0,0,0,0
	C337.7,537.1,337,536.4,337,535.5C337,535.5,337,535.5,337,535.5z"/>
<path class="st0" d="M349.1,523.5c-0.9,0-1.6,0.7-1.6,1.6c0,0.9,0.7,1.6,1.6,1.6c0.9,0,1.6-0.7,1.6-1.6l0,0
	C350.7,524.2,350,523.5,349.1,523.5C349.1,523.5,349.1,523.5,349.1,523.5z"/>
<path class="st0" d="M337,525c0-0.9,0.7-1.6,1.6-1.6s1.6,0.7,1.6,1.6c0,0.9-0.7,1.6-1.6,1.6c0,0,0,0,0,0
	C337.7,526.6,337,525.9,337,525C337,525,337,525,337,525z"/>
<path class="st0" d="M326.5,535.5c0-0.9,0.7-1.6,1.6-1.6s1.6,0.7,1.6,1.6c0,0.9-0.7,1.6-1.6,1.6c0,0,0,0,0,0
	C327.2,537.1,326.5,536.4,326.5,535.5C326.5,535.5,326.5,535.5,326.5,535.5z"/>
<path class="st0" d="M316,535.5c0-0.9,0.7-1.6,1.6-1.6s1.6,0.7,1.6,1.6c0,0.9-0.7,1.6-1.6,1.6c0,0,0,0,0,0
	C316.7,537.1,316,536.4,316,535.5C316,535.5,316,535.5,316,535.5z"/>
<path class="st0" d="M328.1,523.5c-0.9,0-1.6,0.7-1.6,1.6c0,0.9,0.7,1.6,1.6,1.6c0.9,0,1.6-0.7,1.6-1.6l0,0
	C329.7,524.2,329,523.5,328.1,523.5C328.1,523.5,328.1,523.5,328.1,523.5z"/>
<path class="st0" d="M316,525c0-0.9,0.7-1.6,1.6-1.6s1.6,0.7,1.6,1.6c0,0.9-0.7,1.6-1.6,1.6c0,0,0,0,0,0
	C316.7,526.6,316,525.9,316,525C316,525,316,525,316,525z"/>
<path class="st0" d="M305.5,535.5c0-0.9,0.7-1.6,1.6-1.6s1.6,0.7,1.6,1.6c0,0.9-0.7,1.6-1.6,1.6c0,0,0,0,0,0
	C306.2,537.1,305.5,536.4,305.5,535.5C305.5,535.5,305.5,535.5,305.5,535.5z"/>
<path class="st0" d="M295,535.5c0-0.9,0.7-1.6,1.6-1.6s1.6,0.7,1.6,1.6c0,0.9-0.7,1.6-1.6,1.6c0,0,0,0,0,0
	C295.7,537.1,295,536.4,295,535.5C295,535.5,295,535.5,295,535.5z"/>
<path class="st0" d="M307.1,523.5c-0.9,0-1.6,0.7-1.6,1.6c0,0.9,0.7,1.6,1.6,1.6c0.9,0,1.6-0.7,1.6-1.6l0,0
	C308.7,524.2,308,523.5,307.1,523.5C307.1,523.5,307.1,523.5,307.1,523.5z"/>
<path class="st0" d="M295,525c0-0.9,0.7-1.6,1.6-1.6s1.6,0.7,1.6,1.6c0,0.9-0.7,1.6-1.6,1.6c0,0,0,0,0,0
	C295.7,526.6,295,525.9,295,525C295,525,295,525,295,525z"/>
<path class="st0" d="M284.5,535.5c0-0.9,0.7-1.6,1.6-1.6s1.6,0.7,1.6,1.6c0,0.9-0.7,1.6-1.6,1.6c0,0,0,0,0,0
	C285.2,537.1,284.5,536.4,284.5,535.5C284.5,535.5,284.5,535.5,284.5,535.5z"/>
<path class="st0" d="M274,535.5c0-0.9,0.7-1.6,1.6-1.6s1.6,0.7,1.6,1.6c0,0.9-0.7,1.6-1.6,1.6c0,0,0,0,0,0
	C274.7,537.1,274,536.4,274,535.5C274,535.5,274,535.5,274,535.5z"/>
<path class="st0" d="M286.1,523.5c-0.9,0-1.6,0.7-1.6,1.6c0,0.9,0.7,1.6,1.6,1.6c0.9,0,1.6-0.7,1.6-1.6l0,0
	C287.7,524.2,287,523.5,286.1,523.5z"/>
<path class="st0" d="M274,525c0-0.9,0.7-1.6,1.6-1.6s1.6,0.7,1.6,1.6c0,0.9-0.7,1.6-1.6,1.6c0,0,0,0,0,0
	C274.7,526.6,274,525.9,274,525C274,525,274,525,274,525z"/>
<path class="st0" d="M263.5,535.5c0-0.9,0.7-1.6,1.6-1.6s1.6,0.7,1.6,1.6c0,0.9-0.7,1.6-1.6,1.6c0,0,0,0,0,0
	C264.2,537.1,263.5,536.4,263.5,535.5C263.5,535.5,263.5,535.5,263.5,535.5z"/>
<path class="st0" d="M252.9,535.5c0-0.9,0.7-1.6,1.6-1.6s1.6,0.7,1.6,1.6c0,0.9-0.7,1.6-1.6,1.6h0
	C253.6,537.1,252.9,536.4,252.9,535.5C252.9,535.5,252.9,535.5,252.9,535.5z"/>
<path class="st0" d="M265,523.5c-0.9,0-1.6,0.7-1.6,1.6c0,0.9,0.7,1.6,1.6,1.6c0.9,0,1.6-0.7,1.6-1.6l0,0
	C266.6,524.2,265.9,523.5,265,523.5C265,523.5,265,523.5,265,523.5z"/>
<path class="st0" d="M252.9,525c0-0.9,0.7-1.6,1.6-1.6s1.6,0.7,1.6,1.6c0,0.9-0.7,1.6-1.6,1.6h0C253.6,526.6,252.9,525.9,252.9,525
	C252.9,525,252.9,525,252.9,525z"/>
<path class="st0" d="M242.4,535.5c0-0.9,0.7-1.6,1.6-1.6s1.6,0.7,1.6,1.6s-0.7,1.6-1.6,1.6h0C243.1,537.1,242.4,536.4,242.4,535.5
	C242.4,535.5,242.4,535.5,242.4,535.5z"/>
<path class="st0" d="M231.9,535.5c0-0.9,0.7-1.6,1.6-1.6s1.6,0.7,1.6,1.6s-0.7,1.6-1.6,1.6h0C232.6,537.1,231.9,536.4,231.9,535.5
	C231.9,535.5,231.9,535.5,231.9,535.5z"/>
<path class="st0" d="M244,523.5c-0.9,0-1.6,0.7-1.6,1.6c0,0.9,0.7,1.6,1.6,1.6s1.6-0.7,1.6-1.6l0,0
	C245.6,524.2,244.9,523.5,244,523.5C244,523.5,244,523.5,244,523.5z"/>
<path class="st0" d="M231.9,525c0-0.9,0.7-1.6,1.6-1.6s1.6,0.7,1.6,1.6s-0.7,1.6-1.6,1.6h0C232.6,526.6,231.9,525.9,231.9,525
	C231.9,525,231.9,525,231.9,525z"/>
<path class="st0" d="M221.4,535.5c0-0.9,0.7-1.6,1.6-1.6s1.6,0.7,1.6,1.6s-0.7,1.6-1.6,1.6h0C222.1,537.1,221.4,536.4,221.4,535.5
	C221.4,535.5,221.4,535.5,221.4,535.5z"/>
<path class="st0" d="M210.9,535.5c0-0.9,0.7-1.6,1.6-1.6s1.6,0.7,1.6,1.6s-0.7,1.6-1.6,1.6h0C211.6,537.1,210.9,536.4,210.9,535.5
	C210.9,535.5,210.9,535.5,210.9,535.5z"/>
<path class="st0" d="M223,523.5c-0.9,0-1.6,0.7-1.6,1.6c0,0.9,0.7,1.6,1.6,1.6s1.6-0.7,1.6-1.6l0,0
	C224.6,524.2,223.9,523.5,223,523.5C223,523.5,223,523.5,223,523.5z"/>
<path class="st0" d="M210.9,525c0-0.9,0.7-1.6,1.6-1.6s1.6,0.7,1.6,1.6s-0.7,1.6-1.6,1.6h0C211.6,526.6,210.9,525.9,210.9,525
	C210.9,525,210.9,525,210.9,525z"/>
<path class="st0" d="M200.4,535.5c0-0.9,0.7-1.6,1.6-1.6s1.6,0.7,1.6,1.6s-0.7,1.6-1.6,1.6h0C201.1,537.1,200.4,536.4,200.4,535.5
	C200.4,535.5,200.4,535.5,200.4,535.5z"/>
<path class="st0" d="M189.9,535.5c0-0.9,0.7-1.6,1.6-1.6s1.6,0.7,1.6,1.6s-0.7,1.6-1.6,1.6h0C190.6,537.1,189.9,536.4,189.9,535.5
	C189.9,535.5,189.9,535.5,189.9,535.5z"/>
<path class="st0" d="M202,523.5c-0.9,0-1.6,0.7-1.6,1.6c0,0.9,0.7,1.6,1.6,1.6s1.6-0.7,1.6-1.6l0,0
	C203.6,524.2,202.9,523.5,202,523.5z"/>
<path class="st0" d="M189.9,525c0-0.9,0.7-1.6,1.6-1.6s1.6,0.7,1.6,1.6s-0.7,1.6-1.6,1.6h0C190.6,526.6,189.9,525.9,189.9,525
	C189.9,525,189.9,525,189.9,525z"/>
<path class="st0" d="M179.4,535.5c0-0.9,0.7-1.6,1.6-1.6s1.6,0.7,1.6,1.6s-0.7,1.6-1.6,1.6h0C180.1,537.1,179.4,536.4,179.4,535.5
	C179.4,535.5,179.4,535.5,179.4,535.5z"/>
<path class="st0" d="M168.9,535.5c0-0.9,0.7-1.6,1.6-1.6s1.6,0.7,1.6,1.6s-0.7,1.6-1.6,1.6h0C169.6,537.1,168.9,536.4,168.9,535.5
	C168.9,535.5,168.9,535.5,168.9,535.5z"/>
<path class="st0" d="M180.9,523.5c-0.9,0-1.6,0.7-1.6,1.6c0,0.9,0.7,1.6,1.6,1.6s1.6-0.7,1.6-1.6l0,0
	C182.5,524.2,181.8,523.5,180.9,523.5C180.9,523.5,180.9,523.5,180.9,523.5z"/>
<path class="st0" d="M168.9,525c0-0.9,0.7-1.6,1.6-1.6s1.6,0.7,1.6,1.6s-0.7,1.6-1.6,1.6h0C169.6,526.6,168.9,525.9,168.9,525
	C168.9,525,168.9,525,168.9,525z"/>
<path class="st0" d="M158.3,535.5c0-0.9,0.7-1.6,1.6-1.6s1.6,0.7,1.6,1.6s-0.7,1.6-1.6,1.6h0C159,537.1,158.3,536.4,158.3,535.5
	C158.3,535.5,158.3,535.5,158.3,535.5z"/>
<path class="st0" d="M147.8,535.5c0-0.9,0.7-1.6,1.6-1.6s1.6,0.7,1.6,1.6s-0.7,1.6-1.6,1.6h0C148.5,537.1,147.8,536.4,147.8,535.5
	C147.8,535.5,147.8,535.5,147.8,535.5z"/>
<path class="st0" d="M159.9,523.5c-0.9,0-1.6,0.7-1.6,1.6c0,0.9,0.7,1.6,1.6,1.6s1.6-0.7,1.6-1.6l0,0
	C161.5,524.2,160.8,523.5,159.9,523.5C159.9,523.5,159.9,523.5,159.9,523.5z"/>
<path class="st0" d="M147.8,525c0-0.9,0.7-1.6,1.6-1.6s1.6,0.7,1.6,1.6s-0.7,1.6-1.6,1.6h0C148.5,526.6,147.8,525.9,147.8,525
	C147.8,525,147.8,525,147.8,525z"/>
<path class="st0" d="M137.3,535.5c0-0.9,0.7-1.6,1.6-1.6s1.6,0.7,1.6,1.6s-0.7,1.6-1.6,1.6h0C138,537.1,137.3,536.4,137.3,535.5
	C137.3,535.5,137.3,535.5,137.3,535.5z"/>
<path class="st0" d="M126.8,535.5c0-0.9,0.7-1.6,1.6-1.6c0.9,0,1.6,0.7,1.6,1.6s-0.7,1.6-1.6,1.6c0,0,0,0,0,0
	C127.5,537.1,126.8,536.4,126.8,535.5C126.8,535.5,126.8,535.5,126.8,535.5z"/>
<path class="st0" d="M138.9,523.5c-0.9,0-1.6,0.7-1.6,1.6c0,0.9,0.7,1.6,1.6,1.6s1.6-0.7,1.6-1.6l0,0
	C140.5,524.2,139.8,523.5,138.9,523.5C138.9,523.5,138.9,523.5,138.9,523.5z"/>
<path class="st0" d="M126.8,525c0-0.9,0.7-1.6,1.6-1.6c0.9,0,1.6,0.7,1.6,1.6s-0.7,1.6-1.6,1.6c0,0,0,0,0,0
	C127.5,526.6,126.8,525.9,126.8,525C126.8,525,126.8,525,126.8,525z"/>
<path class="st0" d="M116.3,535.5c0-0.9,0.7-1.6,1.6-1.6s1.6,0.7,1.6,1.6c0,0.9-0.7,1.6-1.6,1.6c0,0,0,0,0,0
	C117,537.1,116.3,536.4,116.3,535.5C116.3,535.5,116.3,535.5,116.3,535.5z"/>
<path class="st0" d="M105.8,535.5c0-0.9,0.7-1.6,1.6-1.6s1.6,0.7,1.6,1.6c0,0.9-0.7,1.6-1.6,1.6c0,0,0,0,0,0
	C106.5,537.1,105.8,536.4,105.8,535.5C105.8,535.5,105.8,535.5,105.8,535.5z"/>
<path class="st0" d="M117.9,523.5c-0.9,0-1.6,0.7-1.6,1.6c0,0.9,0.7,1.6,1.6,1.6c0.9,0,1.6-0.7,1.6-1.6l0,0
	C119.5,524.2,118.8,523.5,117.9,523.5z"/>
<path class="st0" d="M105.8,525c0-0.9,0.7-1.6,1.6-1.6s1.6,0.7,1.6,1.6c0,0.9-0.7,1.6-1.6,1.6c0,0,0,0,0,0
	C106.5,526.6,105.8,525.9,105.8,525C105.8,525,105.8,525,105.8,525z"/>
<path class="st0" d="M410.6,514.6c0-0.9,0.7-1.6,1.6-1.6s1.6,0.7,1.6,1.6c0,0.9-0.7,1.6-1.6,1.6c0,0,0,0,0,0
	C411.3,516.2,410.6,515.5,410.6,514.6z"/>
<path class="st0" d="M400.1,514.6c0-0.9,0.7-1.6,1.6-1.6s1.6,0.7,1.6,1.6c0,0.9-0.7,1.6-1.6,1.6c0,0,0,0,0,0
	C400.8,516.2,400.1,515.5,400.1,514.6z"/>
<path class="st0" d="M412.2,502.5c-0.9,0-1.6,0.7-1.6,1.6c0,0.9,0.7,1.6,1.6,1.6c0.9,0,1.6-0.7,1.6-1.6
	C413.8,503.2,413.1,502.5,412.2,502.5C412.2,502.5,412.2,502.5,412.2,502.5z"/>
<path class="st0" d="M400.1,504.1c0-0.9,0.7-1.6,1.6-1.6c0.9,0,1.6,0.7,1.6,1.6c0,0.9-0.7,1.6-1.6,1.6
	C400.8,505.7,400.1,505,400.1,504.1C400.1,504.1,400.1,504.1,400.1,504.1z"/>
<path class="st0" d="M410.6,493.6c0-0.9,0.7-1.6,1.6-1.6c0.9,0,1.6,0.7,1.6,1.6c0,0.9-0.7,1.6-1.6,1.6
	C411.3,495.2,410.6,494.5,410.6,493.6C410.6,493.6,410.6,493.6,410.6,493.6z"/>
<path class="st0" d="M400.1,493.6c0-0.9,0.7-1.6,1.6-1.6c0.9,0,1.6,0.7,1.6,1.6c0,0.9-0.7,1.6-1.6,1.6
	C400.8,495.2,400.1,494.5,400.1,493.6C400.1,493.6,400.1,493.6,400.1,493.6z"/>
<path class="st0" d="M412.2,481.6c-0.9,0-1.6,0.7-1.6,1.6c0,0.9,0.7,1.6,1.6,1.6c0.9,0,1.6-0.7,1.6-1.6
	C413.8,482.3,413.1,481.6,412.2,481.6C412.2,481.6,412.2,481.6,412.2,481.6z"/>
<path class="st0" d="M400.1,483.2c0-0.9,0.7-1.6,1.6-1.6c0.9,0,1.6,0.7,1.6,1.6c0,0.9-0.7,1.6-1.6,1.6
	C400.8,484.8,400.1,484.1,400.1,483.2z"/>
<path class="st0" d="M410.6,472.7c0-0.9,0.7-1.6,1.6-1.6c0.9,0,1.6,0.7,1.6,1.6c0,0.9-0.7,1.6-1.6,1.6
	C411.3,474.3,410.6,473.6,410.6,472.7C410.6,472.7,410.6,472.7,410.6,472.7z"/>
<path class="st0" d="M400.1,472.7c0-0.9,0.7-1.6,1.6-1.6c0.9,0,1.6,0.7,1.6,1.6c0,0.9-0.7,1.6-1.6,1.6
	C400.8,474.3,400.1,473.6,400.1,472.7C400.1,472.7,400.1,472.7,400.1,472.7z"/>
<path class="st0" d="M412.2,460.7c-0.9,0-1.6,0.7-1.6,1.6c0,0.9,0.7,1.6,1.6,1.6c0.9,0,1.6-0.7,1.6-1.6
	C413.8,461.4,413.1,460.7,412.2,460.7C412.2,460.7,412.2,460.7,412.2,460.7z"/>
<path class="st0" d="M400.1,462.2c0-0.9,0.7-1.6,1.6-1.6c0.9,0,1.6,0.7,1.6,1.6c0,0.9-0.7,1.6-1.6,1.6
	C400.8,463.8,400.1,463.1,400.1,462.2C400.1,462.2,400.1,462.2,400.1,462.2z"/>
<path class="st0" d="M410.6,451.8c0-0.9,0.7-1.6,1.6-1.6c0.9,0,1.6,0.7,1.6,1.6c0,0.9-0.7,1.6-1.6,1.6
	C411.3,453.4,410.6,452.7,410.6,451.8z"/>
<path class="st0" d="M400.1,451.8c0-0.9,0.7-1.6,1.6-1.6c0.9,0,1.6,0.7,1.6,1.6c0,0.9-0.7,1.6-1.6,1.6
	C400.8,453.4,400.1,452.7,400.1,451.8z"/>
<path class="st0" d="M412.2,439.7c-0.9,0-1.6,0.7-1.6,1.6c0,0.9,0.7,1.6,1.6,1.6c0.9,0,1.6-0.7,1.6-1.6
	C413.8,440.4,413.1,439.7,412.2,439.7C412.2,439.7,412.2,439.7,412.2,439.7z"/>
<path class="st0" d="M400.1,441.3c0-0.9,0.7-1.6,1.6-1.6c0.9,0,1.6,0.7,1.6,1.6c0,0.9-0.7,1.6-1.6,1.6
	C400.8,442.9,400.1,442.2,400.1,441.3C400.1,441.3,400.1,441.3,400.1,441.3z"/>
<path class="st0" d="M410.6,430.8c0-0.9,0.7-1.6,1.6-1.6c0.9,0,1.6,0.7,1.6,1.6c0,0.9-0.7,1.6-1.6,1.6
	C411.3,432.4,410.6,431.7,410.6,430.8C410.6,430.8,410.6,430.8,410.6,430.8z"/>
<path class="st0" d="M400.1,430.8c0-0.9,0.7-1.6,1.6-1.6c0.9,0,1.6,0.7,1.6,1.6c0,0.9-0.7,1.6-1.6,1.6
	C400.8,432.4,400.1,431.7,400.1,430.8C400.1,430.8,400.1,430.8,400.1,430.8z"/>
<path class="st0" d="M412.2,418.8c-0.9,0-1.6,0.7-1.6,1.6c0,0.9,0.7,1.6,1.6,1.6c0.9,0,1.6-0.7,1.6-1.6
	C413.8,419.5,413.1,418.8,412.2,418.8C412.2,418.8,412.2,418.8,412.2,418.8z"/>
<path class="st0" d="M400.1,420.4c0-0.9,0.7-1.6,1.6-1.6c0.9,0,1.6,0.7,1.6,1.6c0,0.9-0.7,1.6-1.6,1.6
	C400.8,422,400.1,421.3,400.1,420.4z"/>
<path class="st0" d="M410.6,409.9c0-0.9,0.7-1.6,1.6-1.6c0.9,0,1.6,0.7,1.6,1.6c0,0.9-0.7,1.6-1.6,1.6
	C411.3,411.5,410.6,410.8,410.6,409.9C410.6,409.9,410.6,409.9,410.6,409.9z"/>
<path class="st0" d="M400.1,409.9c0-0.9,0.7-1.6,1.6-1.6c0.9,0,1.6,0.7,1.6,1.6c0,0.9-0.7,1.6-1.6,1.6
	C400.8,411.5,400.1,410.8,400.1,409.9C400.1,409.9,400.1,409.9,400.1,409.9z"/>
<path class="st0" d="M412.2,397.8c-0.9,0-1.6,0.7-1.6,1.6c0,0.9,0.7,1.6,1.6,1.6c0.9,0,1.6-0.7,1.6-1.6
	C413.8,398.5,413.1,397.8,412.2,397.8C412.2,397.8,412.2,397.8,412.2,397.8z"/>
<path class="st0" d="M400.1,399.4c0-0.9,0.7-1.6,1.6-1.6c0.9,0,1.6,0.7,1.6,1.6c0,0.9-0.7,1.6-1.6,1.6
	C400.8,401,400.1,400.3,400.1,399.4C400.1,399.4,400.1,399.4,400.1,399.4z"/>
<path class="st0" d="M410.6,389c0-0.9,0.7-1.6,1.6-1.6c0.9,0,1.6,0.7,1.6,1.6c0,0.9-0.7,1.6-1.6,1.6
	C411.3,390.6,410.6,389.9,410.6,389z"/>
<path class="st0" d="M400.1,389c0-0.9,0.7-1.6,1.6-1.6c0.9,0,1.6,0.7,1.6,1.6c0,0.9-0.7,1.6-1.6,1.6
	C400.8,390.6,400.1,389.9,400.1,389z"/>
<path class="st0" d="M412.2,376.9c-0.9,0-1.6,0.7-1.6,1.6c0,0.9,0.7,1.6,1.6,1.6c0.9,0,1.6-0.7,1.6-1.6
	C413.8,377.6,413.1,376.9,412.2,376.9C412.2,376.9,412.2,376.9,412.2,376.9z"/>
<path class="st0" d="M400.1,378.5c0-0.9,0.7-1.6,1.6-1.6c0.9,0,1.6,0.7,1.6,1.6c0,0.9-0.7,1.6-1.6,1.6
	C400.8,380.1,400.1,379.4,400.1,378.5z"/>
<path class="st0" d="M410.6,368c0-0.9,0.7-1.6,1.6-1.6c0.9,0,1.6,0.7,1.6,1.6c0,0.9-0.7,1.6-1.6,1.6
	C411.3,369.6,410.6,368.9,410.6,368C410.6,368,410.6,368,410.6,368z"/>
<path class="st0" d="M400.1,368c0-0.9,0.7-1.6,1.6-1.6c0.9,0,1.6,0.7,1.6,1.6c0,0.9-0.7,1.6-1.6,1.6
	C400.8,369.6,400.1,368.9,400.1,368C400.1,368,400.1,368,400.1,368z"/>
<path class="st0" d="M412.2,356c-0.9,0-1.6,0.7-1.6,1.6c0,0.9,0.7,1.6,1.6,1.6c0.9,0,1.6-0.7,1.6-1.6
	C413.8,356.7,413.1,356,412.2,356C412.2,356,412.2,356,412.2,356z"/>
<path class="st0" d="M400.1,357.5c0-0.9,0.7-1.6,1.6-1.6c0.9,0,1.6,0.7,1.6,1.6c0,0.9-0.7,1.6-1.6,1.6
	C400.8,359.1,400.1,358.4,400.1,357.5C400.1,357.5,400.1,357.5,400.1,357.5z"/>
<path class="st0" d="M410.6,347.1c0-0.9,0.7-1.6,1.6-1.6c0.9,0,1.6,0.7,1.6,1.6c0,0.9-0.7,1.6-1.6,1.6
	C411.3,348.7,410.6,348,410.6,347.1z"/>
<path class="st0" d="M400.1,347.1c0-0.9,0.7-1.6,1.6-1.6c0.9,0,1.6,0.7,1.6,1.6c0,0.9-0.7,1.6-1.6,1.6
	C400.8,348.7,400.1,348,400.1,347.1z"/>
<path class="st0" d="M412.2,335c-0.9,0-1.6,0.7-1.6,1.6c0,0.9,0.7,1.6,1.6,1.6c0.9,0,1.6-0.7,1.6-1.6
	C413.8,335.7,413.1,335,412.2,335C412.2,335,412.2,335,412.2,335z"/>
<path class="st0" d="M400.1,336.6c0-0.9,0.7-1.6,1.6-1.6c0.9,0,1.6,0.7,1.6,1.6c0,0.9-0.7,1.6-1.6,1.6
	C400.8,338.2,400.1,337.5,400.1,336.6C400.1,336.6,400.1,336.6,400.1,336.6z"/>
<path class="st0" d="M410.6,326.1c0-0.9,0.7-1.6,1.6-1.6c0.9,0,1.6,0.7,1.6,1.6c0,0.9-0.7,1.6-1.6,1.6
	C411.3,327.7,410.6,327,410.6,326.1C410.6,326.1,410.6,326.1,410.6,326.1z"/>
<path class="st0" d="M400.1,326.1c0-0.9,0.7-1.6,1.6-1.6c0.9,0,1.6,0.7,1.6,1.6c0,0.9-0.7,1.6-1.6,1.6
	C400.8,327.7,400.1,327,400.1,326.1C400.1,326.1,400.1,326.1,400.1,326.1z"/>
<path class="st0" d="M412.2,314.1c-0.9,0-1.6,0.7-1.6,1.6c0,0.9,0.7,1.6,1.6,1.6c0.9,0,1.6-0.7,1.6-1.6
	C413.8,314.8,413.1,314.1,412.2,314.1C412.2,314.1,412.2,314.1,412.2,314.1z"/>
<path class="st0" d="M400.1,315.7c0-0.9,0.7-1.6,1.6-1.6c0.9,0,1.6,0.7,1.6,1.6c0,0.9-0.7,1.6-1.6,1.6
	C400.8,317.3,400.1,316.6,400.1,315.7z"/>
<path class="st0" d="M410.6,305.2c0-0.9,0.7-1.6,1.6-1.6c0.9,0,1.6,0.7,1.6,1.6c0,0.9-0.7,1.6-1.6,1.6
	C411.3,306.8,410.6,306.1,410.6,305.2C410.6,305.2,410.6,305.2,410.6,305.2z"/>
<path class="st0" d="M400.1,305.2c0-0.9,0.7-1.6,1.6-1.6c0.9,0,1.6,0.7,1.6,1.6c0,0.9-0.7,1.6-1.6,1.6
	C400.8,306.8,400.1,306.1,400.1,305.2C400.1,305.2,400.1,305.2,400.1,305.2z"/>
<path class="st0" d="M412.2,293.2c-0.9,0-1.6,0.7-1.6,1.6c0,0.9,0.7,1.6,1.6,1.6c0.9,0,1.6-0.7,1.6-1.6
	C413.8,293.9,413.1,293.2,412.2,293.2C412.2,293.2,412.2,293.2,412.2,293.2z"/>
<path class="st0" d="M400.1,294.7c0-0.9,0.7-1.6,1.6-1.6c0.9,0,1.6,0.7,1.6,1.6c0,0.9-0.7,1.6-1.6,1.6
	C400.8,296.3,400.1,295.6,400.1,294.7C400.1,294.7,400.1,294.7,400.1,294.7z"/>
<path class="st0" d="M410.6,284.3c0-0.9,0.7-1.6,1.6-1.6c0.9,0,1.6,0.7,1.6,1.6c0,0.9-0.7,1.6-1.6,1.6
	C411.3,285.9,410.6,285.2,410.6,284.3z"/>
<path class="st0" d="M400.1,284.3c0-0.9,0.7-1.6,1.6-1.6c0.9,0,1.6,0.7,1.6,1.6c0,0.9-0.7,1.6-1.6,1.6
	C400.8,285.9,400.1,285.2,400.1,284.3z"/>
<path class="st0" d="M412.2,272.2c-0.9,0-1.6,0.7-1.6,1.6c0,0.9,0.7,1.6,1.6,1.6c0.9,0,1.6-0.7,1.6-1.6
	C413.8,272.9,413.1,272.2,412.2,272.2C412.2,272.2,412.2,272.2,412.2,272.2z"/>
<path class="st0" d="M400.1,273.8c0-0.9,0.7-1.6,1.6-1.6c0.9,0,1.6,0.7,1.6,1.6c0,0.9-0.7,1.6-1.6,1.6
	C400.8,275.4,400.1,274.7,400.1,273.8C400.1,273.8,400.1,273.8,400.1,273.8z"/>
<path class="st0" d="M410.6,263.3c0-0.9,0.7-1.6,1.6-1.6c0.9,0,1.6,0.7,1.6,1.6c0,0.9-0.7,1.6-1.6,1.6
	C411.3,264.9,410.6,264.2,410.6,263.3C410.6,263.3,410.6,263.3,410.6,263.3z"/>
<path class="st0" d="M400.1,263.3c0-0.9,0.7-1.6,1.6-1.6c0.9,0,1.6,0.7,1.6,1.6c0,0.9-0.7,1.6-1.6,1.6
	C400.8,264.9,400.1,264.2,400.1,263.3C400.1,263.3,400.1,263.3,400.1,263.3z"/>
<path class="st0" d="M412.2,251.3c-0.9,0-1.6,0.7-1.6,1.6c0,0.9,0.7,1.6,1.6,1.6c0.9,0,1.6-0.7,1.6-1.6
	C413.8,252,413.1,251.3,412.2,251.3C412.2,251.3,412.2,251.3,412.2,251.3z"/>
<path class="st0" d="M400.1,252.9c0-0.9,0.7-1.6,1.6-1.6s1.6,0.7,1.6,1.6c0,0.9-0.7,1.6-1.6,1.6
	C400.8,254.5,400.1,253.8,400.1,252.9z"/>
<path class="st0" d="M410.6,242.4c0-0.9,0.7-1.6,1.6-1.6s1.6,0.7,1.6,1.6c0,0.9-0.7,1.6-1.6,1.6C411.3,244,410.6,243.3,410.6,242.4
	C410.6,242.4,410.6,242.4,410.6,242.4z"/>
<path class="st0" d="M400.1,242.4c0-0.9,0.7-1.6,1.6-1.6s1.6,0.7,1.6,1.6c0,0.9-0.7,1.6-1.6,1.6C400.8,244,400.1,243.3,400.1,242.4
	C400.1,242.4,400.1,242.4,400.1,242.4z"/>
<path class="st0" d="M412.2,230.4c-0.9,0-1.6,0.7-1.6,1.6c0,0.9,0.7,1.6,1.6,1.6c0.9,0,1.6-0.7,1.6-1.6
	C413.8,231.1,413.1,230.4,412.2,230.4C412.2,230.4,412.2,230.4,412.2,230.4z"/>
<path class="st0" d="M400.1,231.9c0-0.9,0.7-1.6,1.6-1.6s1.6,0.7,1.6,1.6c0,0.9-0.7,1.6-1.6,1.6
	C400.8,233.5,400.1,232.8,400.1,231.9C400.1,231.9,400.1,231.9,400.1,231.9z"/>
<path class="st0" d="M410.6,221.5c0-0.9,0.7-1.6,1.6-1.6s1.6,0.7,1.6,1.6c0,0.9-0.7,1.6-1.6,1.6
	C411.3,223.1,410.6,222.4,410.6,221.5z"/>
<path class="st0" d="M400.1,221.5c0-0.9,0.7-1.6,1.6-1.6s1.6,0.7,1.6,1.6c0,0.9-0.7,1.6-1.6,1.6
	C400.8,223.1,400.1,222.4,400.1,221.5z"/>
<path class="st0" d="M412.2,209.4c-0.9,0-1.6,0.7-1.6,1.6c0,0.9,0.7,1.6,1.6,1.6c0.9,0,1.6-0.7,1.6-1.6
	C413.8,210.1,413.1,209.4,412.2,209.4C412.2,209.4,412.2,209.4,412.2,209.4z"/>
<path class="st0" d="M400.1,211c0-0.9,0.7-1.6,1.6-1.6s1.6,0.7,1.6,1.6c0,0.9-0.7,1.6-1.6,1.6C400.8,212.6,400.1,211.9,400.1,211
	C400.1,211,400.1,211,400.1,211z"/>
<path class="st0" d="M410.6,200.5c0-0.9,0.7-1.6,1.6-1.6s1.6,0.7,1.6,1.6c0,0.9-0.7,1.6-1.6,1.6
	C411.3,202.1,410.6,201.4,410.6,200.5C410.6,200.5,410.6,200.5,410.6,200.5z"/>
<path class="st0" d="M400.1,200.5c0-0.9,0.7-1.6,1.6-1.6s1.6,0.7,1.6,1.6c0,0.9-0.7,1.6-1.6,1.6
	C400.8,202.1,400.1,201.4,400.1,200.5C400.1,200.5,400.1,200.5,400.1,200.5z"/>
<path class="st0" d="M412.2,188.5c-0.9,0-1.6,0.7-1.6,1.6c0,0.9,0.7,1.6,1.6,1.6c0.9,0,1.6-0.7,1.6-1.6
	C413.8,189.2,413.1,188.5,412.2,188.5C412.2,188.5,412.2,188.5,412.2,188.5z"/>
<path class="st0" d="M400.1,190.1c0-0.9,0.7-1.6,1.6-1.6s1.6,0.7,1.6,1.6c0,0.9-0.7,1.6-1.6,1.6C400.8,191.7,400.1,191,400.1,190.1z
	"/>
<path class="st0" d="M410.6,179.6c0-0.9,0.7-1.6,1.6-1.6s1.6,0.7,1.6,1.6c0,0.9-0.7,1.6-1.6,1.6
	C411.3,181.2,410.6,180.5,410.6,179.6C410.6,179.6,410.6,179.6,410.6,179.6z"/>
<path class="st0" d="M400.1,179.6c0-0.9,0.7-1.6,1.6-1.6s1.6,0.7,1.6,1.6c0,0.9-0.7,1.6-1.6,1.6
	C400.8,181.2,400.1,180.5,400.1,179.6C400.1,179.6,400.1,179.6,400.1,179.6z"/>
<path class="st0" d="M412.2,167.6c-0.9,0-1.6,0.7-1.6,1.6c0,0.9,0.7,1.6,1.6,1.6c0.9,0,1.6-0.7,1.6-1.6
	C413.8,168.3,413.1,167.6,412.2,167.6C412.2,167.6,412.2,167.6,412.2,167.6z"/>
<path class="st0" d="M400.1,169.1c0-0.9,0.7-1.6,1.6-1.6s1.6,0.7,1.6,1.6c0,0.9-0.7,1.6-1.6,1.6C400.8,170.7,400.1,170,400.1,169.1
	C400.1,169.1,400.1,169.1,400.1,169.1z"/>
<path class="st0" d="M410.6,158.7c0-0.9,0.7-1.6,1.6-1.6s1.6,0.7,1.6,1.6c0,0.9-0.7,1.6-1.6,1.6
	C411.3,160.3,410.6,159.6,410.6,158.7z"/>
<path class="st0" d="M400.1,158.7c0-0.9,0.7-1.6,1.6-1.6s1.6,0.7,1.6,1.6c0,0.9-0.7,1.6-1.6,1.6
	C400.8,160.3,400.1,159.6,400.1,158.7z"/>
<path class="st0" d="M412.2,146.6c-0.9,0-1.6,0.7-1.6,1.6c0,0.9,0.7,1.6,1.6,1.6c0.9,0,1.6-0.7,1.6-1.6
	C413.8,147.3,413.1,146.6,412.2,146.6C412.2,146.6,412.2,146.6,412.2,146.6z"/>
<path class="st0" d="M400.1,148.2c0-0.9,0.7-1.6,1.6-1.6s1.6,0.7,1.6,1.6c0,0.9-0.7,1.6-1.6,1.6
	C400.8,149.8,400.1,149.1,400.1,148.2C400.1,148.2,400.1,148.2,400.1,148.2z"/>
<path class="st0" d="M410.6,137.7c0-0.9,0.7-1.6,1.6-1.6s1.6,0.7,1.6,1.6c0,0.9-0.7,1.6-1.6,1.6
	C411.3,139.3,410.6,138.6,410.6,137.7C410.6,137.7,410.6,137.7,410.6,137.7z"/>
<path class="st0" d="M400.1,137.7c0-0.9,0.7-1.6,1.6-1.6s1.6,0.7,1.6,1.6c0,0.9-0.7,1.6-1.6,1.6
	C400.8,139.3,400.1,138.6,400.1,137.7C400.1,137.7,400.1,137.7,400.1,137.7z"/>
<path class="st0" d="M412.2,125.7c-0.9,0-1.6,0.7-1.6,1.6c0,0.9,0.7,1.6,1.6,1.6c0.9,0,1.6-0.7,1.6-1.6
	C413.8,126.4,413.1,125.7,412.2,125.7C412.2,125.7,412.2,125.7,412.2,125.7z"/>
<path class="st0" d="M400.1,127.3c0-0.9,0.7-1.6,1.6-1.6c0.9,0,1.6,0.7,1.6,1.6c0,0.9-0.7,1.6-1.6,1.6
	C400.8,128.9,400.1,128.2,400.1,127.3z"/>
<path class="st0" d="M410.6,116.8c0-0.9,0.7-1.6,1.6-1.6c0.9,0,1.6,0.7,1.6,1.6c0,0.9-0.7,1.6-1.6,1.6
	C411.3,118.4,410.6,117.7,410.6,116.8C410.6,116.8,410.6,116.8,410.6,116.8z"/>
<path class="st0" d="M400.1,116.8c0-0.9,0.7-1.6,1.6-1.6c0.9,0,1.6,0.7,1.6,1.6c0,0.9-0.7,1.6-1.6,1.6
	C400.8,118.4,400.1,117.7,400.1,116.8C400.1,116.8,400.1,116.8,400.1,116.8z"/>
<path class="st0" d="M412.2,104.7c-0.9,0-1.6,0.7-1.6,1.6c0,0.9,0.7,1.6,1.6,1.6c0.9,0,1.6-0.7,1.6-1.6
	C413.8,105.4,413.1,104.7,412.2,104.7z"/>
<path class="st0" d="M400.1,106.3c0-0.9,0.7-1.6,1.6-1.6c0.9,0,1.6,0.7,1.6,1.6c0,0.9-0.7,1.6-1.6,1.6
	C400.8,107.9,400.1,107.2,400.1,106.3C400.1,106.3,400.1,106.3,400.1,106.3z"/>
<path class="st0" d="M410.6,95.9c0-0.9,0.7-1.6,1.6-1.6c0.9,0,1.6,0.7,1.6,1.6c0,0.9-0.7,1.6-1.6,1.6
	C411.3,97.5,410.6,96.8,410.6,95.9z"/>
<path class="st0" d="M400.1,95.9c0-0.9,0.7-1.6,1.6-1.6c0.9,0,1.6,0.7,1.6,1.6c0,0.9-0.7,1.6-1.6,1.6
	C400.8,97.5,400.1,96.8,400.1,95.9z"/>
<path class="st0" d="M412.2,83.8c-0.9,0-1.6,0.7-1.6,1.6c0,0.9,0.7,1.6,1.6,1.6c0.9,0,1.6-0.7,1.6-1.6
	C413.8,84.5,413.1,83.8,412.2,83.8C412.2,83.8,412.2,83.8,412.2,83.8z"/>
<path class="st0" d="M400.1,85.4c0-0.9,0.7-1.6,1.6-1.6c0.9,0,1.6,0.7,1.6,1.6c0,0.9-0.7,1.6-1.6,1.6
	C400.8,87,400.1,86.3,400.1,85.4C400.1,85.4,400.1,85.4,400.1,85.4z"/>
<path class="st0" d="M410.6,74.9c0-0.9,0.7-1.6,1.6-1.6c0.9,0,1.6,0.7,1.6,1.6c0,0.9-0.7,1.6-1.6,1.6
	C411.3,76.5,410.6,75.8,410.6,74.9C410.6,74.9,410.6,74.9,410.6,74.9z"/>
<path class="st0" d="M400.1,74.9c0-0.9,0.7-1.6,1.6-1.6c0.9,0,1.6,0.7,1.6,1.6c0,0.9-0.7,1.6-1.6,1.6
	C400.8,76.5,400.1,75.8,400.1,74.9C400.1,74.9,400.1,74.9,400.1,74.9z"/>
<path class="st0" d="M412.2,62.9c-0.9,0-1.6,0.7-1.6,1.6c0,0.9,0.7,1.6,1.6,1.6c0.9,0,1.6-0.7,1.6-1.6
	C413.8,63.6,413.1,62.9,412.2,62.9C412.2,62.9,412.2,62.9,412.2,62.9z"/>
<path class="st0" d="M400.1,64.4c0-0.9,0.7-1.6,1.6-1.6c0.9,0,1.6,0.7,1.6,1.6c0,0.9-0.7,1.6-1.6,1.6
	C400.8,66,400.1,65.3,400.1,64.4C400.1,64.4,400.1,64.4,400.1,64.4z"/>
<path class="st0" d="M410.6,54c0-0.9,0.7-1.6,1.6-1.6c0.9,0,1.6,0.7,1.6,1.6s-0.7,1.6-1.6,1.6C411.3,55.6,410.6,54.9,410.6,54z"/>
<path class="st0" d="M400.1,54c0-0.9,0.7-1.6,1.6-1.6c0.9,0,1.6,0.7,1.6,1.6s-0.7,1.6-1.6,1.6C400.8,55.6,400.1,54.9,400.1,54z"/>
<path class="st0" d="M412.2,41.9c-0.9,0-1.6,0.7-1.6,1.6c0,0.9,0.7,1.6,1.6,1.6c0.9,0,1.6-0.7,1.6-1.6
	C413.8,42.6,413.1,41.9,412.2,41.9C412.2,41.9,412.2,41.9,412.2,41.9z"/>
<path class="st0" d="M400.1,43.5c0-0.9,0.7-1.6,1.6-1.6c0.9,0,1.6,0.7,1.6,1.6s-0.7,1.6-1.6,1.6C400.8,45.1,400.1,44.4,400.1,43.5
	C400.1,43.5,400.1,43.5,400.1,43.5z"/>
<path class="st0" d="M410.6,33c0-0.9,0.7-1.6,1.6-1.6c0.9,0,1.6,0.7,1.6,1.6s-0.7,1.6-1.6,1.6C411.3,34.6,410.6,33.9,410.6,33
	C410.6,33,410.6,33,410.6,33z"/>
<path class="st0" d="M400.1,33c0-0.9,0.7-1.6,1.6-1.6c0.9,0,1.6,0.7,1.6,1.6s-0.7,1.6-1.6,1.6C400.8,34.6,400.1,33.9,400.1,33
	C400.1,33,400.1,33,400.1,33z"/>
<path class="st0" d="M412.2,21c-0.9,0-1.6,0.7-1.6,1.6c0,0.9,0.7,1.6,1.6,1.6c0.9,0,1.6-0.7,1.6-1.6C413.8,21.7,413.1,21,412.2,21
	C412.2,21,412.2,21,412.2,21z"/>
<path class="st0" d="M400.1,22.6c0-0.9,0.7-1.6,1.6-1.6c0.9,0,1.6,0.7,1.6,1.6c0,0.9-0.7,1.6-1.6,1.6
	C400.8,24.2,400.1,23.5,400.1,22.6z"/>
<path class="st0" d="M410.6,12.1c0-0.9,0.7-1.6,1.6-1.6c0.9,0,1.6,0.7,1.6,1.6c0,0.9-0.7,1.6-1.6,1.6
	C411.3,13.7,410.6,13,410.6,12.1C410.6,12.1,410.6,12.1,410.6,12.1z"/>
<path class="st0" d="M400.1,12.1c0-0.9,0.7-1.6,1.6-1.6c0.9,0,1.6,0.7,1.6,1.6c0,0.9-0.7,1.6-1.6,1.6
	C400.8,13.7,400.1,13,400.1,12.1C400.1,12.1,400.1,12.1,400.1,12.1z"/>
<path class="st0" d="M412.2,0.1c-0.9,0-1.6,0.7-1.6,1.6c0,0,0,0,0,0c0,0.9,0.7,1.6,1.6,1.6s1.6-0.7,1.6-1.6
	C413.8,0.8,413.1,0.1,412.2,0.1C412.2,0.1,412.2,0.1,412.2,0.1z"/>
<path class="st0" d="M400.1,1.6c0-0.9,0.7-1.6,1.6-1.6s1.6,0.7,1.6,1.6s-0.7,1.6-1.6,1.6S400.1,2.5,400.1,1.6z"/>
<path class="st0" d="M379.1,514.6c0-0.9,0.7-1.6,1.6-1.6s1.6,0.7,1.6,1.6c0,0.9-0.7,1.6-1.6,1.6c0,0,0,0,0,0
	C379.8,516.1,379.2,515.5,379.1,514.6z"/>
<path class="st0" d="M391.2,502.5c-0.9,0-1.6,0.7-1.6,1.6c0,0.9,0.7,1.6,1.6,1.6c0.9,0,1.6-0.7,1.6-1.6
	C392.8,503.2,392.1,502.5,391.2,502.5C391.2,502.5,391.2,502.5,391.2,502.5z"/>
<path class="st0" d="M389.6,493.6c0-0.9,0.7-1.6,1.6-1.6c0.9,0,1.6,0.7,1.6,1.6c0,0.9-0.7,1.6-1.6,1.6
	C390.3,495.2,389.6,494.5,389.6,493.6C389.6,493.6,389.6,493.6,389.6,493.6z"/>
<path class="st0" d="M391.2,481.6c-0.9,0-1.6,0.7-1.6,1.6c0,0.9,0.7,1.6,1.6,1.6c0.9,0,1.6-0.7,1.6-1.6
	C392.8,482.3,392.1,481.6,391.2,481.6C391.2,481.6,391.2,481.6,391.2,481.6z"/>
<path class="st0" d="M389.6,472.7c0-0.9,0.7-1.6,1.6-1.6c0.9,0,1.6,0.7,1.6,1.6c0,0.9-0.7,1.6-1.6,1.6
	C390.3,474.3,389.6,473.6,389.6,472.7C389.6,472.7,389.6,472.7,389.6,472.7z"/>
<path class="st0" d="M391.2,460.7c-0.9,0-1.6,0.7-1.6,1.6c0,0.9,0.7,1.6,1.6,1.6c0.9,0,1.6-0.7,1.6-1.6
	C392.8,461.4,392.1,460.7,391.2,460.7C391.2,460.7,391.2,460.7,391.2,460.7z"/>
<path class="st0" d="M389.6,451.8c0-0.9,0.7-1.6,1.6-1.6c0.9,0,1.6,0.7,1.6,1.6c0,0.9-0.7,1.6-1.6,1.6
	C390.3,453.3,389.7,452.7,389.6,451.8z"/>
<path class="st0" d="M391.2,439.7c-0.9,0-1.6,0.7-1.6,1.6c0,0.9,0.7,1.6,1.6,1.6c0.9,0,1.6-0.7,1.6-1.6
	C392.8,440.4,392.1,439.7,391.2,439.7C391.2,439.7,391.2,439.7,391.2,439.7z"/>
<path class="st0" d="M389.6,430.8c0-0.9,0.7-1.6,1.6-1.6c0.9,0,1.6,0.7,1.6,1.6c0,0.9-0.7,1.6-1.6,1.6
	C390.3,432.4,389.6,431.7,389.6,430.8C389.6,430.8,389.6,430.8,389.6,430.8z"/>
<path class="st0" d="M391.2,418.8c-0.9,0-1.6,0.7-1.6,1.6c0,0.9,0.7,1.6,1.6,1.6c0.9,0,1.6-0.7,1.6-1.6
	C392.8,419.5,392.1,418.8,391.2,418.8C391.2,418.8,391.2,418.8,391.2,418.8z"/>
<path class="st0" d="M389.6,409.9c0-0.9,0.7-1.6,1.6-1.6c0.9,0,1.6,0.7,1.6,1.6c0,0.9-0.7,1.6-1.6,1.6
	C390.3,411.5,389.6,410.8,389.6,409.9C389.6,409.9,389.6,409.9,389.6,409.9z"/>
<path class="st0" d="M391.2,397.8c-0.9,0-1.6,0.7-1.6,1.6c0,0.9,0.7,1.6,1.6,1.6c0.9,0,1.6-0.7,1.6-1.6
	C392.8,398.5,392.1,397.8,391.2,397.8C391.2,397.8,391.2,397.8,391.2,397.8z"/>
<path class="st0" d="M389.6,389c0-0.9,0.7-1.6,1.6-1.6c0.9,0,1.6,0.7,1.6,1.6c0,0.9-0.7,1.6-1.6,1.6
	C390.3,390.5,389.7,389.9,389.6,389z"/>
<path class="st0" d="M391.2,376.9c-0.9,0-1.6,0.7-1.6,1.6c0,0.9,0.7,1.6,1.6,1.6c0.9,0,1.6-0.7,1.6-1.6
	C392.8,377.6,392.1,376.9,391.2,376.9C391.2,376.9,391.2,376.9,391.2,376.9z"/>
<path class="st0" d="M389.6,368c0-0.9,0.7-1.6,1.6-1.6c0.9,0,1.6,0.7,1.6,1.6c0,0.9-0.7,1.6-1.6,1.6
	C390.3,369.6,389.6,368.9,389.6,368C389.6,368,389.6,368,389.6,368z"/>
<path class="st0" d="M391.2,356c-0.9,0-1.6,0.7-1.6,1.6c0,0.9,0.7,1.6,1.6,1.6c0.9,0,1.6-0.7,1.6-1.6
	C392.8,356.7,392.1,356,391.2,356C391.2,356,391.2,356,391.2,356z"/>
<path class="st0" d="M389.6,347.1c0-0.9,0.7-1.6,1.6-1.6c0.9,0,1.6,0.7,1.6,1.6c0,0.9-0.7,1.6-1.6,1.6
	C390.3,348.6,389.7,348,389.6,347.1z"/>
<path class="st0" d="M391.2,335c-0.9,0-1.6,0.7-1.6,1.6c0,0.9,0.7,1.6,1.6,1.6c0.9,0,1.6-0.7,1.6-1.6
	C392.8,335.7,392.1,335,391.2,335C391.2,335,391.2,335,391.2,335z"/>
<path class="st0" d="M389.6,326.1c0-0.9,0.7-1.6,1.6-1.6c0.9,0,1.6,0.7,1.6,1.6c0,0.9-0.7,1.6-1.6,1.6
	C390.3,327.7,389.6,327,389.6,326.1C389.6,326.1,389.6,326.1,389.6,326.1z"/>
<path class="st0" d="M391.2,314.1c-0.9,0-1.6,0.7-1.6,1.6c0,0.9,0.7,1.6,1.6,1.6c0.9,0,1.6-0.7,1.6-1.6
	C392.8,314.8,392.1,314.1,391.2,314.1C391.2,314.1,391.2,314.1,391.2,314.1z"/>
<path class="st0" d="M389.6,305.2c0-0.9,0.7-1.6,1.6-1.6c0.9,0,1.6,0.7,1.6,1.6c0,0.9-0.7,1.6-1.6,1.6
	C390.3,306.8,389.6,306.1,389.6,305.2C389.6,305.2,389.6,305.2,389.6,305.2z"/>
<path class="st0" d="M391.2,293.2c-0.9,0-1.6,0.7-1.6,1.6c0,0.9,0.7,1.6,1.6,1.6c0.9,0,1.6-0.7,1.6-1.6
	C392.8,293.9,392.1,293.2,391.2,293.2C391.2,293.2,391.2,293.2,391.2,293.2z"/>
<path class="st0" d="M389.6,284.3c0-0.9,0.7-1.6,1.6-1.6c0.9,0,1.6,0.7,1.6,1.6c0,0.9-0.7,1.6-1.6,1.6
	C390.3,285.8,389.7,285.2,389.6,284.3z"/>
<path class="st0" d="M391.2,272.2c-0.9,0-1.6,0.7-1.6,1.6c0,0.9,0.7,1.6,1.6,1.6c0.9,0,1.6-0.7,1.6-1.6
	C392.8,272.9,392.1,272.2,391.2,272.2C391.2,272.2,391.2,272.2,391.2,272.2z"/>
<path class="st0" d="M389.6,263.3c0-0.9,0.7-1.6,1.6-1.6c0.9,0,1.6,0.7,1.6,1.6c0,0.9-0.7,1.6-1.6,1.6
	C390.3,264.9,389.6,264.2,389.6,263.3C389.6,263.3,389.6,263.3,389.6,263.3z"/>
<path class="st0" d="M391.2,251.3c-0.9,0-1.6,0.7-1.6,1.6c0,0.9,0.7,1.6,1.6,1.6c0.9,0,1.6-0.7,1.6-1.6
	C392.8,252,392.1,251.3,391.2,251.3C391.2,251.3,391.2,251.3,391.2,251.3z"/>
<path class="st0" d="M389.6,242.4c0-0.9,0.7-1.6,1.6-1.6s1.6,0.7,1.6,1.6c0,0.9-0.7,1.6-1.6,1.6C390.3,244,389.6,243.3,389.6,242.4
	C389.6,242.4,389.6,242.4,389.6,242.4z"/>
<path class="st0" d="M391.2,230.4c-0.9,0-1.6,0.7-1.6,1.6c0,0.9,0.7,1.6,1.6,1.6c0.9,0,1.6-0.7,1.6-1.6
	C392.8,231.1,392.1,230.4,391.2,230.4C391.2,230.4,391.2,230.4,391.2,230.4z"/>
<path class="st0" d="M389.6,221.5c0-0.9,0.7-1.6,1.6-1.6s1.6,0.7,1.6,1.6c0,0.9-0.7,1.6-1.6,1.6C390.3,223,389.7,222.4,389.6,221.5z
	"/>
<path class="st0" d="M391.2,209.4c-0.9,0-1.6,0.7-1.6,1.6c0,0.9,0.7,1.6,1.6,1.6c0.9,0,1.6-0.7,1.6-1.6
	C392.8,210.1,392.1,209.4,391.2,209.4C391.2,209.4,391.2,209.4,391.2,209.4z"/>
<path class="st0" d="M389.6,200.5c0-0.9,0.7-1.6,1.6-1.6s1.6,0.7,1.6,1.6c0,0.9-0.7,1.6-1.6,1.6
	C390.3,202.1,389.6,201.4,389.6,200.5C389.6,200.5,389.6,200.5,389.6,200.5z"/>
<path class="st0" d="M391.2,188.5c-0.9,0-1.6,0.7-1.6,1.6c0,0.9,0.7,1.6,1.6,1.6c0.9,0,1.6-0.7,1.6-1.6
	C392.8,189.2,392.1,188.5,391.2,188.5C391.2,188.5,391.2,188.5,391.2,188.5z"/>
<path class="st0" d="M389.6,179.6c0-0.9,0.7-1.6,1.6-1.6s1.6,0.7,1.6,1.6c0,0.9-0.7,1.6-1.6,1.6
	C390.3,181.2,389.6,180.5,389.6,179.6C389.6,179.6,389.6,179.6,389.6,179.6z"/>
<path class="st0" d="M391.2,167.6c-0.9,0-1.6,0.7-1.6,1.6c0,0.9,0.7,1.6,1.6,1.6c0.9,0,1.6-0.7,1.6-1.6
	C392.8,168.3,392.1,167.6,391.2,167.6C391.2,167.6,391.2,167.6,391.2,167.6z"/>
<path class="st0" d="M389.6,158.7c0-0.9,0.7-1.6,1.6-1.6s1.6,0.7,1.6,1.6c0,0.9-0.7,1.6-1.6,1.6
	C390.3,160.2,389.7,159.6,389.6,158.7z"/>
<path class="st0" d="M391.2,146.6c-0.9,0-1.6,0.7-1.6,1.6c0,0.9,0.7,1.6,1.6,1.6c0.9,0,1.6-0.7,1.6-1.6
	C392.8,147.3,392.1,146.6,391.2,146.6C391.2,146.6,391.2,146.6,391.2,146.6z"/>
<path class="st0" d="M389.6,137.7c0-0.9,0.7-1.6,1.6-1.6s1.6,0.7,1.6,1.6c0,0.9-0.7,1.6-1.6,1.6
	C390.3,139.3,389.6,138.6,389.6,137.7C389.6,137.7,389.6,137.7,389.6,137.7z"/>
<path class="st0" d="M391.2,125.7c-0.9,0-1.6,0.7-1.6,1.6c0,0.9,0.7,1.6,1.6,1.6c0.9,0,1.6-0.7,1.6-1.6
	C392.8,126.4,392.1,125.7,391.2,125.7C391.2,125.7,391.2,125.7,391.2,125.7z"/>
<path class="st0" d="M389.6,116.8c0-0.9,0.7-1.6,1.6-1.6c0.9,0,1.6,0.7,1.6,1.6c0,0.9-0.7,1.6-1.6,1.6
	C390.3,118.4,389.6,117.7,389.6,116.8C389.6,116.8,389.6,116.8,389.6,116.8z"/>
<path class="st0" d="M391.2,104.7c-0.9,0-1.6,0.7-1.6,1.6c0,0.9,0.7,1.6,1.6,1.6c0.9,0,1.6-0.7,1.6-1.6
	C392.8,105.4,392.1,104.7,391.2,104.7z"/>
<path class="st0" d="M389.6,95.9c0-0.9,0.7-1.6,1.6-1.6c0.9,0,1.6,0.7,1.6,1.6c0,0.9-0.7,1.6-1.6,1.6
	C390.3,97.4,389.7,96.8,389.6,95.9z"/>
<path class="st0" d="M391.2,83.8c-0.9,0-1.6,0.7-1.6,1.6c0,0.9,0.7,1.6,1.6,1.6c0.9,0,1.6-0.7,1.6-1.6
	C392.8,84.5,392.1,83.8,391.2,83.8C391.2,83.8,391.2,83.8,391.2,83.8z"/>
<path class="st0" d="M389.6,74.9c0-0.9,0.7-1.6,1.6-1.6c0.9,0,1.6,0.7,1.6,1.6c0,0.9-0.7,1.6-1.6,1.6
	C390.3,76.5,389.6,75.8,389.6,74.9C389.6,74.9,389.6,74.9,389.6,74.9z"/>
<path class="st0" d="M391.2,62.9c-0.9,0-1.6,0.7-1.6,1.6c0,0.9,0.7,1.6,1.6,1.6c0.9,0,1.6-0.7,1.6-1.6
	C392.8,63.6,392.1,62.9,391.2,62.9C391.2,62.9,391.2,62.9,391.2,62.9z"/>
<path class="st0" d="M389.6,54c0-0.9,0.7-1.6,1.6-1.6c0.9,0,1.6,0.7,1.6,1.6s-0.7,1.6-1.6,1.6C390.3,55.6,389.6,54.9,389.6,54z"/>
<path class="st0" d="M391.2,41.9c-0.9,0-1.6,0.7-1.6,1.6c0,0.9,0.7,1.6,1.6,1.6c0.9,0,1.6-0.7,1.6-1.6
	C392.8,42.6,392.1,41.9,391.2,41.9C391.2,41.9,391.2,41.9,391.2,41.9z"/>
<path class="st0" d="M389.6,33c0-0.9,0.7-1.6,1.6-1.6c0.9,0,1.6,0.7,1.6,1.6s-0.7,1.6-1.6,1.6C390.3,34.6,389.6,33.9,389.6,33
	C389.6,33,389.6,33,389.6,33z"/>
<path class="st0" d="M391.2,21c-0.9,0-1.6,0.7-1.6,1.6c0,0.9,0.7,1.6,1.6,1.6c0.9,0,1.6-0.7,1.6-1.6C392.8,21.7,392.1,21,391.2,21
	C391.2,21,391.2,21,391.2,21z"/>
<path class="st0" d="M389.6,12.1c0-0.9,0.7-1.6,1.6-1.6c0.9,0,1.6,0.7,1.6,1.6c0,0.9-0.7,1.6-1.6,1.6
	C390.3,13.7,389.6,13,389.6,12.1C389.6,12.1,389.6,12.1,389.6,12.1z"/>
<path class="st0" d="M391.2,0.1c-0.9,0-1.6,0.7-1.6,1.6c0,0,0,0,0,0c0,0.9,0.7,1.6,1.6,1.6s1.6-0.7,1.6-1.6
	C392.8,0.8,392.1,0.1,391.2,0.1C391.2,0.1,391.2,0.1,391.2,0.1z"/>
<path class="st0" d="M368.6,514.6c0-0.9,0.7-1.6,1.6-1.6s1.6,0.7,1.6,1.6c0,0.9-0.7,1.6-1.6,1.6c0,0,0,0,0,0
	C369.3,516.1,368.7,515.5,368.6,514.6z"/>
<path class="st0" d="M358.1,514.6c0-0.9,0.7-1.6,1.6-1.6s1.6,0.7,1.6,1.6c0,0.9-0.7,1.6-1.6,1.6c0,0,0,0,0,0
	C358.8,516.1,358.2,515.5,358.1,514.6z"/>
<path class="st0" d="M347.6,514.6c0-0.9,0.7-1.6,1.6-1.6s1.6,0.7,1.6,1.6c0,0.9-0.7,1.6-1.6,1.6c0,0,0,0,0,0
	C348.3,516.1,347.7,515.5,347.6,514.6z"/>
<path class="st0" d="M337,514.6c0-0.9,0.7-1.6,1.6-1.6s1.6,0.7,1.6,1.6c0,0.9-0.7,1.6-1.6,1.6c0,0,0,0,0,0
	C337.7,516.1,337.1,515.5,337,514.6z"/>
<path class="st0" d="M326.5,514.6c0-0.9,0.7-1.6,1.6-1.6s1.6,0.7,1.6,1.6c0,0.9-0.7,1.6-1.6,1.6c0,0,0,0,0,0
	C327.2,516.1,326.6,515.5,326.5,514.6z"/>
<path class="st0" d="M316,514.6c0-0.9,0.7-1.6,1.6-1.6s1.6,0.7,1.6,1.6c0,0.9-0.7,1.6-1.6,1.6c0,0,0,0,0,0
	C316.7,516.2,316,515.5,316,514.6z"/>
<path class="st0" d="M305.5,514.6c0-0.9,0.7-1.6,1.6-1.6s1.6,0.7,1.6,1.6c0,0.9-0.7,1.6-1.6,1.6c0,0,0,0,0,0
	C306.2,516.1,305.6,515.5,305.5,514.6z"/>
<path class="st0" d="M295,514.6c0-0.9,0.7-1.6,1.6-1.6s1.6,0.7,1.6,1.6c0,0.9-0.7,1.6-1.6,1.6c0,0,0,0,0,0
	C295.7,516.2,295,515.5,295,514.6z"/>
<path class="st0" d="M284.5,514.6c0-0.9,0.7-1.6,1.6-1.6s1.6,0.7,1.6,1.6c0,0.9-0.7,1.6-1.6,1.6c0,0,0,0,0,0
	C285.2,516.2,284.5,515.5,284.5,514.6z"/>
<path class="st0" d="M274,514.6c0-0.9,0.7-1.6,1.6-1.6s1.6,0.7,1.6,1.6c0,0.9-0.7,1.6-1.6,1.6c0,0,0,0,0,0
	C274.7,516.2,274,515.5,274,514.6z"/>
<path class="st0" d="M263.5,514.6c0-0.9,0.7-1.6,1.6-1.6s1.6,0.7,1.6,1.6c0,0.9-0.7,1.6-1.6,1.6c0,0,0,0,0,0
	C264.2,516.2,263.5,515.5,263.5,514.6z"/>
<path class="st0" d="M252.9,514.6c0-0.9,0.7-1.6,1.6-1.6s1.6,0.7,1.6,1.6c0,0.9-0.7,1.6-1.6,1.6h0
	C253.6,516.2,252.9,515.5,252.9,514.6z"/>
<path class="st0" d="M242.4,514.6c0-0.9,0.7-1.6,1.6-1.6s1.6,0.7,1.6,1.6s-0.7,1.6-1.6,1.6h0C243.1,516.2,242.4,515.5,242.4,514.6z"
	/>
<path class="st0" d="M231.9,514.6c0-0.9,0.7-1.6,1.6-1.6s1.6,0.7,1.6,1.6s-0.7,1.6-1.6,1.6h0C232.6,516.2,231.9,515.5,231.9,514.6z"
	/>
<path class="st0" d="M221.4,514.6c0-0.9,0.7-1.6,1.6-1.6s1.6,0.7,1.6,1.6s-0.7,1.6-1.6,1.6h0C222.1,516.1,221.5,515.5,221.4,514.6z"
	/>
<path class="st0" d="M210.9,514.6c0-0.9,0.7-1.6,1.6-1.6s1.6,0.7,1.6,1.6s-0.7,1.6-1.6,1.6h0C211.6,516.2,210.9,515.5,210.9,514.6z"
	/>
<path class="st0" d="M200.4,514.6c0-0.9,0.7-1.6,1.6-1.6s1.6,0.7,1.6,1.6s-0.7,1.6-1.6,1.6h0C201.1,516.1,200.5,515.5,200.4,514.6z"
	/>
<path class="st0" d="M189.9,514.6c0-0.9,0.7-1.6,1.6-1.6s1.6,0.7,1.6,1.6s-0.7,1.6-1.6,1.6h0C190.6,516.1,190,515.5,189.9,514.6z"/>
<path class="st0" d="M179.4,514.6c0-0.9,0.7-1.6,1.6-1.6s1.6,0.7,1.6,1.6s-0.7,1.6-1.6,1.6h0C180.1,516.1,179.5,515.5,179.4,514.6z"
	/>
<path class="st0" d="M168.9,514.6c0-0.9,0.7-1.6,1.6-1.6s1.6,0.7,1.6,1.6s-0.7,1.6-1.6,1.6h0C169.6,516.1,169,515.5,168.9,514.6z"/>
<path class="st0" d="M158.3,514.6c0-0.9,0.7-1.6,1.6-1.6s1.6,0.7,1.6,1.6s-0.7,1.6-1.6,1.6h0C159,516.1,158.4,515.5,158.3,514.6z"/>
<path class="st0" d="M147.8,514.6c0-0.9,0.7-1.6,1.6-1.6s1.6,0.7,1.6,1.6s-0.7,1.6-1.6,1.6h0C148.5,516.1,147.9,515.5,147.8,514.6z"
	/>
<path class="st0" d="M137.3,514.6c0-0.9,0.7-1.6,1.6-1.6s1.6,0.7,1.6,1.6s-0.7,1.6-1.6,1.6h0C138,516.1,137.4,515.5,137.3,514.6z"/>
<path class="st0" d="M126.8,514.6c0-0.9,0.7-1.6,1.6-1.6c0.9,0,1.6,0.7,1.6,1.6s-0.7,1.6-1.6,1.6c0,0,0,0,0,0
	C127.5,516.1,126.9,515.5,126.8,514.6z"/>
<path class="st0" d="M116.3,514.6c0-0.9,0.7-1.6,1.6-1.6s1.6,0.7,1.6,1.6c0,0.9-0.7,1.6-1.6,1.6c0,0,0,0,0,0
	C117,516.1,116.4,515.5,116.3,514.6z"/>
<path class="st0" d="M105.8,514.6c0-0.9,0.7-1.6,1.6-1.6s1.6,0.7,1.6,1.6c0,0.9-0.7,1.6-1.6,1.6c0,0,0,0,0,0
	C106.5,516.1,105.9,515.5,105.8,514.6z"/>
<path class="st0" d="M94.6,535.5c0-0.9,0.7-1.6,1.6-1.6s1.6,0.7,1.6,1.6c0,0.9-0.7,1.6-1.6,1.6c0,0,0,0,0,0
	C95.3,537.1,94.6,536.4,94.6,535.5C94.6,535.5,94.6,535.5,94.6,535.5z"/>
<path class="st0" d="M84.1,535.5c0-0.9,0.7-1.6,1.6-1.6s1.6,0.7,1.6,1.6c0,0.9-0.7,1.6-1.6,1.6c0,0,0,0,0,0
	C84.8,537.1,84.1,536.4,84.1,535.5C84.1,535.5,84.1,535.5,84.1,535.5z"/>
<path class="st0" d="M96.2,523.5c-0.9,0-1.6,0.7-1.6,1.6c0,0.9,0.7,1.6,1.6,1.6c0.9,0,1.6-0.7,1.6-1.6l0,0
	C97.8,524.2,97.1,523.5,96.2,523.5C96.2,523.5,96.2,523.5,96.2,523.5z"/>
<path class="st0" d="M84.1,525c0-0.9,0.7-1.6,1.6-1.6s1.6,0.7,1.6,1.6c0,0.9-0.7,1.6-1.6,1.6c0,0,0,0,0,0
	C84.8,526.6,84.1,525.9,84.1,525C84.1,525,84.1,525,84.1,525z"/>
<path class="st0" d="M73.6,535.5c0-0.9,0.7-1.6,1.6-1.6s1.6,0.7,1.6,1.6c0,0.9-0.7,1.6-1.6,1.6c0,0,0,0,0,0
	C74.3,537.1,73.6,536.4,73.6,535.5C73.6,535.5,73.6,535.5,73.6,535.5z"/>
<path class="st0" d="M63.1,535.5c0-0.9,0.7-1.6,1.6-1.6c0.9,0,1.6,0.7,1.6,1.6s-0.7,1.6-1.6,1.6c0,0,0,0,0,0
	C63.8,537.1,63.1,536.4,63.1,535.5C63.1,535.5,63.1,535.5,63.1,535.5z"/>
<path class="st0" d="M75.2,523.5c-0.9,0-1.6,0.7-1.6,1.6c0,0.9,0.7,1.6,1.6,1.6c0.9,0,1.6-0.7,1.6-1.6l0,0
	C76.8,524.2,76.1,523.5,75.2,523.5C75.2,523.5,75.2,523.5,75.2,523.5z"/>
<path class="st0" d="M63.1,525c0-0.9,0.7-1.6,1.6-1.6c0.9,0,1.6,0.7,1.6,1.6s-0.7,1.6-1.6,1.6c0,0,0,0,0,0
	C63.8,526.6,63.1,525.9,63.1,525C63.1,525,63.1,525,63.1,525z"/>
<path class="st0" d="M52.6,535.5c0-0.9,0.7-1.6,1.6-1.6s1.6,0.7,1.6,1.6c0,0.9-0.7,1.6-1.6,1.6c0,0,0,0,0,0
	C53.3,537.1,52.6,536.4,52.6,535.5C52.6,535.5,52.6,535.5,52.6,535.5z"/>
<path class="st0" d="M42.1,535.5c0-0.9,0.7-1.6,1.6-1.6s1.6,0.7,1.6,1.6c0,0.9-0.7,1.6-1.6,1.6c0,0,0,0,0,0
	C42.8,537.1,42.1,536.4,42.1,535.5C42.1,535.5,42.1,535.5,42.1,535.5z"/>
<path class="st0" d="M54.2,523.5c-0.9,0-1.6,0.7-1.6,1.6c0,0.9,0.7,1.6,1.6,1.6s1.6-0.7,1.6-1.6l0,0
	C55.8,524.2,55.1,523.5,54.2,523.5z"/>
<path class="st0" d="M42.1,525c0-0.9,0.7-1.6,1.6-1.6s1.6,0.7,1.6,1.6c0,0.9-0.7,1.6-1.6,1.6c0,0,0,0,0,0
	C42.8,526.6,42.1,525.9,42.1,525C42.1,525,42.1,525,42.1,525z"/>
<path class="st0" d="M31.6,535.5c0-0.9,0.7-1.6,1.6-1.6s1.6,0.7,1.6,1.6c0,0.9-0.7,1.6-1.6,1.6c0,0,0,0,0,0
	C32.3,537.1,31.6,536.4,31.6,535.5C31.6,535.5,31.6,535.5,31.6,535.5z"/>
<path class="st0" d="M21,535.5c0-0.9,0.7-1.6,1.6-1.6s1.6,0.7,1.6,1.6s-0.7,1.6-1.6,1.6c0,0,0,0,0,0C21.7,537.1,21,536.4,21,535.5
	C21,535.5,21,535.5,21,535.5z"/>
<path class="st0" d="M33.1,523.5c-0.9,0-1.6,0.7-1.6,1.6c0,0.9,0.7,1.6,1.6,1.6s1.6-0.7,1.6-1.6l0,0C34.7,524.2,34,523.5,33.1,523.5
	C33.1,523.5,33.1,523.5,33.1,523.5z"/>
<path class="st0" d="M21,525c0-0.9,0.7-1.6,1.6-1.6s1.6,0.7,1.6,1.6s-0.7,1.6-1.6,1.6c0,0,0,0,0,0C21.7,526.6,21,525.9,21,525
	C21,525,21,525,21,525z"/>
<path class="st0" d="M10.5,535.5c0-0.9,0.7-1.6,1.6-1.6s1.6,0.7,1.6,1.6s-0.7,1.6-1.6,1.6c0,0,0,0,0,0
	C11.2,537.1,10.5,536.4,10.5,535.5C10.5,535.5,10.5,535.5,10.5,535.5z"/>
<path class="st0" d="M0,535.5c0-0.9,0.7-1.6,1.6-1.6c0,0,0,0,0,0c0.9,0,1.6,0.7,1.6,1.6c0,0.9-0.7,1.6-1.6,1.6
	C0.7,537.1,0,536.4,0,535.5C0,535.5,0,535.5,0,535.5z"/>
<path class="st0" d="M12.1,523.5c-0.9,0-1.6,0.7-1.6,1.6c0,0.9,0.7,1.6,1.6,1.6s1.6-0.7,1.6-1.6l0,0C13.7,524.2,13,523.5,12.1,523.5
	C12.1,523.5,12.1,523.5,12.1,523.5z"/>
<path class="st0" d="M0,525c0-0.9,0.7-1.6,1.6-1.6c0,0,0,0,0,0c0.9,0,1.6,0.7,1.6,1.6c0,0.9-0.7,1.6-1.6,1.6
	C0.7,526.6,0,525.9,0,525C0,525,0,525,0,525z"/>
<path class="st0" d="M94.6,514.6c0-0.9,0.7-1.6,1.6-1.6s1.6,0.7,1.6,1.6c0,0.9-0.7,1.6-1.6,1.6c0,0,0,0,0,0
	C95.3,516.1,94.7,515.5,94.6,514.6z"/>
<path class="st0" d="M84.1,514.6c0-0.9,0.7-1.6,1.6-1.6s1.6,0.7,1.6,1.6c0,0.9-0.7,1.6-1.6,1.6c0,0,0,0,0,0
	C84.8,516.1,84.2,515.5,84.1,514.6z"/>
<path class="st0" d="M63.1,514.6c0-0.9,0.7-1.6,1.6-1.6c0.9,0,1.6,0.7,1.6,1.6s-0.7,1.6-1.6,1.6c0,0,0,0,0,0
	C63.8,516.1,63.2,515.5,63.1,514.6z"/>
<path class="st0" d="M73.6,514.6c0-0.9,0.7-1.6,1.6-1.6s1.6,0.7,1.6,1.6c0,0.9-0.7,1.6-1.6,1.6c0,0,0,0,0,0
	C74.3,516.1,73.7,515.5,73.6,514.6z"/>
<path class="st0" d="M52.6,514.6c0-0.9,0.7-1.6,1.6-1.6s1.6,0.7,1.6,1.6c0,0.9-0.7,1.6-1.6,1.6c0,0,0,0,0,0
	C53.3,516.1,52.7,515.5,52.6,514.6z"/>
<path class="st0" d="M42.1,514.6c0-0.9,0.7-1.6,1.6-1.6s1.6,0.7,1.6,1.6c0,0.9-0.7,1.6-1.6,1.6c0,0,0,0,0,0
	C42.8,516.1,42.2,515.5,42.1,514.6z"/>
<path class="st0" d="M31.6,514.6c0-0.9,0.7-1.6,1.6-1.6s1.6,0.7,1.6,1.6c0,0.9-0.7,1.6-1.6,1.6c0,0,0,0,0,0
	C32.3,516.1,31.7,515.5,31.6,514.6z"/>
<path class="st0" d="M21,514.6c0-0.9,0.7-1.6,1.6-1.6s1.6,0.7,1.6,1.6s-0.7,1.6-1.6,1.6c0,0,0,0,0,0C21.7,516.2,21,515.5,21,514.6z"
	/>
<path class="st0" d="M10.5,514.6c0-0.9,0.7-1.6,1.6-1.6s1.6,0.7,1.6,1.6s-0.7,1.6-1.6,1.6c0,0,0,0,0,0
	C11.2,516.1,10.6,515.5,10.5,514.6z"/>
<path class="st0" d="M0,514.6c0-0.9,0.7-1.6,1.6-1.6c0,0,0,0,0,0c0.9,0,1.6,0.7,1.6,1.6c0,0.9-0.7,1.6-1.6,1.6
	C0.7,516.1,0.1,515.5,0,514.6z"/>
</svg>
