<svg width="31" height="31" viewBox="0 0 31 31" fill="none" xmlns="http://www.w3.org/2000/svg">
<path d="M9.91942 2.28854C10.2524 2.28854 10.5224 2.01856 10.5224 1.68553C10.5224 1.3525 10.2524 1.08252 9.91942 1.08252C9.58638 1.08252 9.31641 1.3525 9.31641 1.68553C9.31641 2.01856 9.58638 2.28854 9.91942 2.28854Z" fill="#FFBA0A"/>
<path d="M7.33348 3.64401C7.66651 3.64401 7.93649 3.37403 7.93649 3.041C7.93649 2.70796 7.66651 2.43799 7.33348 2.43799C7.00045 2.43799 6.73047 2.70796 6.73047 3.041C6.73047 3.37403 7.00045 3.64401 7.33348 3.64401Z" fill="#FFBA0A"/>
<path d="M5.05613 5.47848C5.38917 5.47848 5.65914 5.2085 5.65914 4.87547C5.65914 4.54244 5.38917 4.27246 5.05613 4.27246C4.7231 4.27246 4.45312 4.54244 4.45312 4.87547C4.45312 5.2085 4.7231 5.47848 5.05613 5.47848Z" fill="#FFBA0A"/>
<path d="M3.18504 7.71578C3.51807 7.71578 3.78805 7.44581 3.78805 7.11278C3.78805 6.77974 3.51807 6.50977 3.18504 6.50977C2.85201 6.50977 2.58203 6.77974 2.58203 7.11278C2.58203 7.44581 2.85201 7.71578 3.18504 7.71578Z" fill="#FFBA0A"/>
<path d="M1.7827 10.2837C2.11573 10.2837 2.38571 10.0137 2.38571 9.68065C2.38571 9.34761 2.11573 9.07764 1.7827 9.07764C1.44966 9.07764 1.17969 9.34761 1.17969 9.68065C1.17969 10.0137 1.44966 10.2837 1.7827 10.2837Z" fill="#FFBA0A"/>
<path d="M0.915509 13.0717C1.24854 13.0717 1.51852 12.8018 1.51852 12.4687C1.51852 12.1357 1.24854 11.8657 0.915509 11.8657C0.582476 11.8657 0.3125 12.1357 0.3125 12.4687C0.3125 12.8018 0.582476 13.0717 0.915509 13.0717Z" fill="#FFBA0A"/>
<path d="M0.603009 15.9765C0.936042 15.9765 1.20602 15.7065 1.20602 15.3735C1.20602 15.0405 0.936042 14.7705 0.603009 14.7705C0.269977 14.7705 0 15.0405 0 15.3735C0 15.7065 0.269977 15.9765 0.603009 15.9765Z" fill="#FFBA0A"/>
<path d="M0.860822 18.8813C1.19385 18.8813 1.46383 18.6113 1.46383 18.2783C1.46383 17.9453 1.19385 17.6753 0.860822 17.6753C0.527789 17.6753 0.257812 17.9453 0.257812 18.2783C0.257812 18.6113 0.527789 18.8813 0.860822 18.8813Z" fill="#FFBA0A"/>
<path d="M1.68504 21.6826C2.01807 21.6826 2.28805 21.4126 2.28805 21.0796C2.28805 20.7465 2.01807 20.4766 1.68504 20.4766C1.35201 20.4766 1.08203 20.7465 1.08203 21.0796C1.08203 21.4126 1.35201 21.6826 1.68504 21.6826Z" fill="#FFBA0A"/>
<path d="M3.04051 24.2763C3.37354 24.2763 3.64352 24.0064 3.64352 23.6733C3.64352 23.3403 3.37354 23.0703 3.04051 23.0703C2.70748 23.0703 2.4375 23.3403 2.4375 23.6733C2.4375 24.0064 2.70748 24.2763 3.04051 24.2763Z" fill="#FFBA0A"/>
<path d="M4.87645 26.5454C5.20948 26.5454 5.47946 26.2754 5.47946 25.9424C5.47946 25.6093 5.20948 25.3394 4.87645 25.3394C4.54341 25.3394 4.27344 25.6093 4.27344 25.9424C4.27344 26.2754 4.54341 26.5454 4.87645 26.5454Z" fill="#FFBA0A"/>
<path d="M7.11473 28.4194C7.44776 28.4194 7.71774 28.1494 7.71774 27.8164C7.71774 27.4834 7.44776 27.2134 7.11473 27.2134C6.7817 27.2134 6.51172 27.4834 6.51172 27.8164C6.51172 28.1494 6.7817 28.4194 7.11473 28.4194Z" fill="#FFBA0A"/>
<path d="M9.68113 29.8198C10.0142 29.8198 10.2841 29.5498 10.2841 29.2168C10.2841 28.8837 10.0142 28.6138 9.68113 28.6138C9.3481 28.6138 9.07812 28.8837 9.07812 29.2168C9.07812 29.5498 9.3481 29.8198 9.68113 29.8198Z" fill="#FFBA0A"/>
<path d="M12.4702 30.6889C12.8032 30.6889 13.0732 30.419 13.0732 30.0859C13.0732 29.7529 12.8032 29.4829 12.4702 29.4829C12.1372 29.4829 11.8672 29.7529 11.8672 30.0859C11.8672 30.419 12.1372 30.6889 12.4702 30.6889Z" fill="#FFBA0A"/>
<path d="M15.3725 31C15.7056 31 15.9755 30.73 15.9755 30.397C15.9755 30.0639 15.7056 29.7939 15.3725 29.7939C15.0395 29.7939 14.7695 30.0639 14.7695 30.397C14.7695 30.73 15.0395 31 15.3725 31Z" fill="#FFBA0A"/>
<path d="M18.2788 30.7402C18.6118 30.7402 18.8818 30.4702 18.8818 30.1372C18.8818 29.8042 18.6118 29.5342 18.2788 29.5342C17.9458 29.5342 17.6758 29.8042 17.6758 30.1372C17.6758 30.4702 17.9458 30.7402 18.2788 30.7402Z" fill="#FFBA0A"/>
<path d="M21.0796 29.9165C21.4126 29.9165 21.6826 29.6465 21.6826 29.3135C21.6826 28.9804 21.4126 28.7104 21.0796 28.7104C20.7465 28.7104 20.4766 28.9804 20.4766 29.3135C20.4766 29.6465 20.7465 29.9165 21.0796 29.9165Z" fill="#FFBA0A"/>
<path d="M23.6733 28.562C24.0064 28.562 24.2763 28.292 24.2763 27.959C24.2763 27.6259 24.0064 27.356 23.6733 27.356C23.3403 27.356 23.0703 27.6259 23.0703 27.959C23.0703 28.292 23.3403 28.562 23.6733 28.562Z" fill="#FFBA0A"/>
<path d="M25.9429 26.7265C26.2759 26.7265 26.5459 26.4566 26.5459 26.1235C26.5459 25.7905 26.2759 25.5205 25.9429 25.5205C25.6098 25.5205 25.3398 25.7905 25.3398 26.1235C25.3398 26.4566 25.6098 26.7265 25.9429 26.7265Z" fill="#FFBA0A"/>
<path d="M27.8179 24.4902C28.1509 24.4902 28.4209 24.2202 28.4209 23.8872C28.4209 23.5542 28.1509 23.2842 27.8179 23.2842C27.4848 23.2842 27.2148 23.5542 27.2148 23.8872C27.2148 24.2202 27.4848 24.4902 27.8179 24.4902Z" fill="#FFBA0A"/>
<path d="M29.2163 21.9223C29.5493 21.9223 29.8193 21.6524 29.8193 21.3193C29.8193 20.9863 29.5493 20.7163 29.2163 20.7163C28.8833 20.7163 28.6133 20.9863 28.6133 21.3193C28.6133 21.6524 28.8833 21.9223 29.2163 21.9223Z" fill="#FFBA0A"/>
<path d="M30.0874 19.1342C30.4204 19.1342 30.6904 18.8643 30.6904 18.5312C30.6904 18.1982 30.4204 17.9282 30.0874 17.9282C29.7544 17.9282 29.4844 18.1982 29.4844 18.5312C29.4844 18.8643 29.7544 19.1342 30.0874 19.1342Z" fill="#FFBA0A"/>
<path d="M30.396 16.2358C30.729 16.2358 30.999 15.9658 30.999 15.6328C30.999 15.2998 30.729 15.0298 30.396 15.0298C30.0629 15.0298 29.793 15.2998 29.793 15.6328C29.793 15.9658 30.0629 16.2358 30.396 16.2358Z" fill="#FFBA0A"/>
<path d="M30.1382 13.3247C30.4712 13.3247 30.7412 13.0547 30.7412 12.7217C30.7412 12.3886 30.4712 12.1187 30.1382 12.1187C29.8051 12.1187 29.5352 12.3886 29.5352 12.7217C29.5352 13.0547 29.8051 13.3247 30.1382 13.3247Z" fill="#FFBA0A"/>
<path d="M29.3139 10.5239C29.647 10.5239 29.917 10.2539 29.917 9.92088C29.917 9.58785 29.647 9.31787 29.3139 9.31787C28.9809 9.31787 28.7109 9.58785 28.7109 9.92088C28.7109 10.2539 28.9809 10.5239 29.3139 10.5239Z" fill="#FFBA0A"/>
<path d="M27.9585 7.936C28.2915 7.936 28.5615 7.66602 28.5615 7.33299C28.5615 6.99996 28.2915 6.72998 27.9585 6.72998C27.6254 6.72998 27.3555 6.99996 27.3555 7.33299C27.3555 7.66602 27.6254 7.936 27.9585 7.936Z" fill="#FFBA0A"/>
<path d="M26.1225 5.66061C26.4556 5.66061 26.7256 5.39063 26.7256 5.0576C26.7256 4.72457 26.4556 4.45459 26.1225 4.45459C25.7895 4.45459 25.5195 4.72457 25.5195 5.0576C25.5195 5.39063 25.7895 5.66061 26.1225 5.66061Z" fill="#FFBA0A"/>
<path d="M23.8882 3.78659C24.2212 3.78659 24.4912 3.51661 24.4912 3.18358C24.4912 2.85054 24.2212 2.58057 23.8882 2.58057C23.5551 2.58057 23.2852 2.85054 23.2852 3.18358C23.2852 3.51661 23.5551 3.78659 23.8882 3.78659Z" fill="#FFBA0A"/>
<path d="M21.3179 2.38619C21.6509 2.38619 21.9209 2.11622 21.9209 1.78319C21.9209 1.45015 21.6509 1.18018 21.3179 1.18018C20.9848 1.18018 20.7148 1.45015 20.7148 1.78319C20.7148 2.11622 20.9848 2.38619 21.3179 2.38619Z" fill="#FFBA0A"/>
<path d="M18.5327 1.51754C18.8657 1.51754 19.1357 1.24757 19.1357 0.914533C19.1357 0.5815 18.8657 0.311523 18.5327 0.311523C18.1997 0.311523 17.9297 0.5815 17.9297 0.914533C17.9297 1.24757 18.1997 1.51754 18.5327 1.51754Z" fill="#FFBA0A"/>
<path d="M15.6343 1.20602C15.9673 1.20602 16.2373 0.936042 16.2373 0.603009C16.2373 0.269977 15.9673 0 15.6343 0C15.3012 0 15.0312 0.269977 15.0312 0.603009C15.0312 0.936042 15.3012 1.20602 15.6343 1.20602Z" fill="#FFBA0A"/>
<path d="M12.7202 1.4653C13.0532 1.4653 13.3232 1.19532 13.3232 0.862287C13.3232 0.529254 13.0532 0.259277 12.7202 0.259277C12.3872 0.259277 12.1172 0.529254 12.1172 0.862287C12.1172 1.19532 12.3872 1.4653 12.7202 1.4653Z" fill="#FFBA0A"/>
<path d="M13.8898 20.2882C13.7666 20.2882 13.6434 20.2428 13.5526 20.1585L8.98143 16.0023C8.77394 15.8143 8.76097 15.4965 8.94901 15.2891C9.13704 15.0816 9.45475 15.0686 9.66224 15.2566L13.8768 19.0822L22.2152 10.6076C22.4097 10.4066 22.7339 10.4066 22.9285 10.6011C23.1295 10.7957 23.1295 11.1199 22.9349 11.3144L14.2594 20.1326C14.1492 20.2363 14.0195 20.2882 13.8898 20.2882Z" fill="black"/>
</svg>
