<svg width="191" height="239" viewBox="0 0 191 239" fill="none" xmlns="http://www.w3.org/2000/svg">
<path d="M112.822 123.571C112.701 123.472 112.592 123.374 112.471 123.264C112.471 123.264 112.471 129.074 93.224 131.044C73.9766 133.014 70.0812 124.741 70.0812 124.741C69.9827 124.807 69.8733 124.873 69.7529 124.927C69.2496 125.212 68.7134 125.464 68.1772 125.682C67.094 126.12 65.9341 126.426 64.7742 126.591C63.5925 126.766 62.4107 126.798 61.218 126.689C60.7037 126.645 60.1675 126.569 59.6642 126.47C59.3688 126.591 59.0624 126.711 58.756 126.82C57.4648 127.28 56.108 127.63 54.7183 127.772C53.3287 127.915 51.928 127.827 50.5712 127.477C49.9147 127.291 49.2581 127.05 48.6563 126.733C48.3499 126.58 48.0545 126.394 47.7809 126.197C47.6387 126.098 47.5074 125.989 47.3761 125.89C47.2338 125.781 47.1135 125.671 46.9931 125.551C47.2776 125.573 47.573 125.628 47.8575 125.639C48.0107 125.65 48.142 125.671 48.2952 125.671L48.722 125.693C49.3019 125.704 49.86 125.693 50.429 125.628C51.5451 125.507 52.6283 125.223 53.635 124.763C53.9633 124.621 54.2587 124.468 54.5542 124.304C54.5432 124.293 54.5323 124.282 54.5214 124.271C53.5366 123.603 52.6393 122.837 51.8077 122.017C50.9761 121.185 50.2101 120.299 49.5317 119.358C49.1816 118.887 48.8752 118.406 48.5907 117.902C48.2952 117.399 48.0217 116.885 47.8028 116.36C49.6411 117.957 51.6436 119.248 53.7992 120.167C55.2107 120.769 56.666 121.218 58.1432 121.491C58.3949 121.24 58.6466 120.977 58.8982 120.715C59.2703 120.299 59.6533 119.872 59.9925 119.434C60.3536 118.986 60.6818 118.537 61.021 118.078C61.3712 117.563 61.7213 117.049 62.0496 116.524C61.4478 116.732 60.835 116.918 60.2113 117.06C59.2265 117.29 58.2198 117.432 57.2022 117.465C56.9505 117.476 56.6989 117.465 56.4362 117.465L56.0423 117.454C55.911 117.443 55.7907 117.432 55.6593 117.421L55.2764 117.388C55.1451 117.377 55.0247 117.366 54.8934 117.344L54.1274 117.224C52.136 116.83 50.1992 116.042 48.5469 114.871C46.9384 113.766 45.5816 112.311 44.6515 110.648C44.4436 110.571 44.2247 110.495 44.0168 110.407C43.0758 110.035 42.1676 109.586 41.2922 109.072C39.5633 108.043 37.9767 106.73 36.7074 105.144C35.4491 103.568 34.508 101.708 34.1032 99.7384C33.8953 98.7536 33.8077 97.7578 33.8624 96.7621C33.9062 95.7663 34.1141 94.7925 34.4533 93.8733C34.6612 94.5517 34.9238 95.2083 35.2849 95.7992C35.646 96.39 36.0618 96.9371 36.5433 97.4077C37.5281 98.3487 38.7208 99.0052 40.001 99.432H40.012C39.257 98.9833 38.5676 98.4472 37.9439 97.8454C36.9591 96.8824 36.1384 95.7554 35.646 94.497C35.4272 94.322 35.2302 94.1469 35.0223 93.9609C36.401 94.4314 37.725 94.7925 39.06 94.9785C39.1694 94.9894 39.2679 95.0113 39.3664 95.0223C38.7646 94.88 38.1846 94.7049 37.6266 94.508C35.6132 93.7858 33.7749 92.6369 32.2321 91.1925C30.7111 89.7481 29.4637 88.0192 28.643 86.1262C28.7415 86.2466 28.84 86.356 28.9384 86.4654C30.164 87.8004 31.7287 88.7742 33.4029 89.3432C35.2302 89.9669 37.1779 90.1639 39.0709 89.9232C39.3117 89.9013 39.5415 89.8575 39.7712 89.8138C40.001 89.77 40.2418 89.7262 40.4606 89.6606C40.9202 89.5511 41.3688 89.4089 41.8174 89.2448C42.277 89.0697 42.7256 88.8618 43.1633 88.6211C42.66 88.5007 42.1457 88.3584 41.6533 88.1943C39.7494 87.5597 37.9329 86.5639 36.4448 85.1524C34.9567 83.7299 33.8734 81.8916 33.3372 79.8782C33.0855 78.8715 32.9652 77.8211 33.0418 76.7597C33.0965 75.8515 33.2934 74.9323 33.6545 74.0788C33.7093 73.9475 33.7749 73.8162 33.8296 73.6849L34.2126 72.8861C33.5779 72.7329 32.9433 72.5688 32.3086 72.3937L31.7615 72.2296L31.488 72.1421C31.4004 72.1092 31.302 72.0764 31.2144 72.0436C30.8314 71.9013 30.4594 71.7263 30.0983 71.5074C29.7372 71.2776 29.3871 70.9931 29.0697 70.6102C28.7852 70.2162 28.5664 69.691 28.5664 69.1548C28.5664 68.6077 28.7415 68.1482 28.9166 67.7652C29.0041 67.5682 29.1026 67.4041 29.2011 67.229C29.2886 67.0649 29.3871 66.8898 29.4856 66.7257C29.8904 66.0691 30.3281 65.4454 30.7877 64.8436C31.2582 64.2527 31.7506 63.6728 32.243 63.1147C33.2278 61.9986 34.2345 60.9372 35.1646 59.8321C36.0728 58.7269 36.9044 57.5451 37.55 56.254C37.8016 55.7397 38.0205 55.2145 38.1956 54.6564C38.1956 54.6455 38.1846 54.6345 38.1846 54.6236C37.9767 53.1135 38.0314 51.5488 38.4472 50.1044C38.0643 49.2619 37.736 48.3974 37.4624 47.5002C37.1779 46.5263 36.97 45.5196 36.8825 44.4911C36.795 43.4625 36.8278 42.4339 37.0029 41.4054C37.0466 41.1537 37.0904 40.902 37.1561 40.6394L37.3749 39.8953C37.4624 39.6546 37.5609 39.4139 37.6485 39.1732C37.6922 39.0528 37.7469 38.9324 37.8126 38.8121L37.9767 38.4619C38.4472 37.5428 39.0819 36.7002 39.8041 35.978C41.2484 34.5227 43.0211 33.4613 44.925 32.8157C45.8879 32.4984 46.8618 32.2796 47.8575 32.1482C48.8423 32.0169 49.8271 31.9622 50.8229 31.9951C51.4575 32.006 52.0812 32.0498 52.7159 32.1154C52.694 31.8966 52.6831 31.6777 52.6721 31.4589C52.6502 30.8461 52.6502 30.2443 52.6612 29.6315C52.2673 28.3622 52.0046 27.0492 51.8515 25.7252C51.7749 24.9483 51.7311 24.1604 51.7311 23.3835C51.7311 22.5957 51.7639 21.8188 51.8624 21.0309C52.0265 19.4662 52.3767 17.9234 52.891 16.4243C53.8977 13.4261 55.6375 10.6577 57.9463 8.4474C58.5262 7.90028 59.128 7.37506 59.7736 6.90454C60.4083 6.43403 61.0648 5.97445 61.7542 5.58053C63.1329 4.77081 64.5773 4.12522 66.0982 3.62188C67.6192 3.12948 69.1839 2.80121 70.7706 2.64802C70.8581 2.63708 70.9566 2.63708 71.0441 2.62613C71.3286 2.44012 71.6131 2.24316 71.9195 2.08996C72.0836 2.00243 72.2259 1.90395 72.39 1.82735L72.8933 1.59756L73.1341 1.48814C73.2216 1.45532 73.3092 1.42249 73.3857 1.38966L73.9 1.1927C75.2897 0.700302 76.756 0.437689 78.2113 0.328267C79.6775 0.218844 81.1547 0.273556 82.61 0.437689C84.0654 0.601822 85.5097 0.875378 86.9213 1.2693C87.5122 1.43343 88.0921 1.60851 88.6502 1.81641C89.3614 1.81641 90.0726 1.893 90.7729 2.00243C91.8015 2.16656 92.7973 2.44012 93.7711 2.7465C94.2526 2.89969 94.745 3.06382 95.2155 3.2389C95.686 3.41397 96.1565 3.58905 96.6489 3.77507C97.1194 3.96108 97.6118 4.16899 98.0823 4.39877C98.5529 4.6395 99.0234 4.90212 99.472 5.21944C99.7018 5.38357 99.9316 5.56959 100.15 5.75561C100.643 5.30698 101.19 4.91306 101.759 4.54102C102.361 4.13616 102.995 3.77507 103.641 3.43586C104.287 3.09665 104.943 2.80121 105.611 2.51671C106.278 2.23221 106.946 1.9696 107.635 1.71793C108.313 1.46626 109.014 1.23647 109.714 1.02857C110.403 0.820667 111.125 0.645591 111.837 0.4924C113.27 0.186018 114.747 0 116.235 0C116.586 0 116.925 0.0109422 117.275 0.0328267H117.341C117.724 0.0656533 118.096 0.0875378 118.457 0.142249C119.201 0.229787 119.934 0.382978 120.645 0.568996C121.017 0.656533 121.356 0.776898 121.718 0.88632C122.079 1.00668 122.418 1.12705 122.768 1.28024C123.118 1.41155 123.446 1.57568 123.797 1.72887C124.136 1.90395 124.464 2.05714 124.792 2.24316C125.438 2.59331 126.073 2.99817 126.674 3.43586C126.981 3.64376 127.276 3.87355 127.572 4.10333C127.856 4.34406 128.152 4.57385 128.425 4.81458C128.983 5.30698 129.508 5.82126 130.001 6.36837C130.504 6.90454 130.986 7.48448 131.434 8.07536C131.883 8.66624 132.299 9.279 132.682 9.91365C133.076 10.5483 133.415 11.1939 133.743 11.8614C135.012 14.5422 135.691 17.4638 135.899 20.3854L135.942 21.4796C135.953 21.6656 135.953 21.8516 135.953 22.0267V22.5738L135.942 23.1209L135.921 23.668C135.91 23.7227 135.91 23.7665 135.91 23.8212C136.183 24.0401 136.457 24.2808 136.708 24.5215C137.015 24.806 137.299 25.1124 137.584 25.4188C137.846 25.7361 138.12 26.0534 138.372 26.3926C138.864 27.0492 139.313 27.7495 139.717 28.4717C140.538 29.9051 141.162 31.437 141.654 33.0127C142.136 34.5884 142.497 36.2078 142.65 37.8382C142.759 38.823 142.803 39.8078 142.781 40.7926C142.792 40.8473 142.803 40.913 142.814 40.9677C143.044 40.9896 143.263 41.0224 143.493 41.0552C144.729 41.2522 145.976 41.668 147.082 42.3792C147.629 42.7294 148.143 43.1561 148.592 43.6376C149.04 44.119 149.423 44.6552 149.762 45.2023C150.113 45.7494 150.386 46.3294 150.649 46.8984C150.89 47.4783 151.119 48.0582 151.327 48.6601C152.115 51.0455 152.465 53.5841 152.345 56.0898C152.312 56.7245 152.257 57.3701 152.159 58.0047L152.498 58.3439L154.971 60.8059C155.803 61.6375 156.623 62.491 157.378 63.4321C158.133 64.3621 158.834 65.3579 159.348 66.4631C160.551 68.8703 160.967 71.584 160.65 74.1773C160.924 75.2715 161.11 76.3877 161.208 77.5038C161.372 79.4952 161.241 81.5305 160.77 83.4892C160.311 85.4478 159.479 87.3518 158.232 88.9712C157.608 89.7809 156.886 90.5141 156.087 91.1487C155.277 91.7834 154.402 92.3086 153.494 92.7353C152.586 93.1621 151.645 93.5122 150.703 93.7967C149.762 94.0812 148.81 94.311 147.869 94.5189C147.596 94.5846 147.322 94.6393 147.06 94.694L147.093 94.7049C147.268 94.7378 147.443 94.7706 147.629 94.8034C149.314 95.0879 150.999 95.0989 152.454 94.7596C152.586 94.7268 152.695 94.7049 152.815 94.6721C151.601 95.4928 150.047 96.0508 148.274 96.3353C146.513 96.6198 144.521 96.6198 142.497 96.2916C142.223 96.2478 141.95 96.204 141.676 96.1493L141.567 96.1931C142.683 96.4995 143.832 96.7402 145.024 96.9481C144.795 96.9919 144.554 97.0137 144.324 97.0356C143.558 97.5937 142.541 97.9657 141.392 98.1627C140.669 98.283 139.893 98.3487 139.094 98.3268H139.105C140.396 98.5457 141.665 98.6113 142.803 98.4143C143.372 98.3159 143.886 98.1517 144.357 97.9329C144.817 97.7031 145.232 97.4186 145.593 97.0903C145.681 97.7578 145.637 98.4143 145.44 99.0271C145.254 99.6399 144.937 100.198 144.51 100.701C143.657 101.719 142.344 102.474 140.79 102.933C139.553 103.306 138.175 103.502 136.719 103.546C137.124 104.695 137.66 105.789 138.59 106.719C137.934 106.501 137.332 106.096 136.84 105.592C136.336 105.089 135.942 104.498 135.592 103.885C135.538 103.776 135.472 103.656 135.417 103.546C135.242 103.535 135.078 103.535 134.925 103.524C134.848 104.422 134.947 105.341 135.264 106.194C135.57 107.081 136.161 107.879 136.949 108.448C136.347 108.219 135.745 107.978 135.166 107.704C134.564 107.431 133.984 107.135 133.426 106.807C132.922 106.512 132.419 106.183 131.949 105.822C132.036 106.512 132.178 107.179 132.375 107.836C132.616 108.612 132.911 109.346 133.338 110.035C133.546 110.363 133.776 110.681 134.049 110.976C134.717 111.271 135.428 111.49 136.15 111.654C137.365 111.928 138.623 111.972 139.958 111.753C139.893 111.895 139.816 112.048 139.75 112.191C139.674 112.333 139.575 112.464 139.499 112.606C139.411 112.738 139.302 112.869 139.203 113C139.094 113.132 138.984 113.252 138.875 113.372C138.415 113.854 137.857 114.248 137.277 114.576C136.107 115.233 134.815 115.626 133.524 115.867C132.233 116.108 130.931 116.217 129.596 116.206C128.272 116.195 126.937 116.031 125.635 115.703L125.153 115.572C124.989 115.528 124.825 115.473 124.672 115.419C124.366 115.32 124.048 115.189 123.731 115.068C123.578 115.003 123.435 114.926 123.271 114.861L123.052 114.751C122.976 114.718 122.888 114.674 122.823 114.631L122.374 114.39L121.947 114.127L121.728 113.996L121.521 113.843L121.105 113.547L120.7 113.219C120.645 113.164 120.569 113.11 120.503 113.055L120.317 112.88C119.825 112.42 119.387 111.906 118.982 111.37C118.555 110.779 118.183 110.155 117.899 109.499C118.03 110.221 118.194 110.932 118.446 111.633C119.223 113.985 120.634 116.075 122.473 117.695C123.392 118.504 124.409 119.194 125.504 119.73C126.598 120.277 127.801 120.671 129.027 120.999C129.64 121.163 130.263 121.316 130.887 121.47C131.511 121.623 132.124 121.765 132.747 121.853C133.371 121.951 133.995 121.995 134.618 121.951C134.783 121.94 134.925 121.918 135.089 121.896C135.242 121.864 135.395 121.842 135.549 121.798H135.559C135.855 121.699 136.161 121.59 136.446 121.47C136.063 121.798 135.614 122.05 135.133 122.236C134.257 122.662 133.316 122.991 132.364 123.231C131.642 123.417 130.898 123.549 130.143 123.625C129.41 123.713 128.644 123.746 127.889 123.735C126.543 123.713 125.175 123.571 123.851 123.264C124.114 123.8 124.355 124.336 124.617 124.862C124.902 125.474 125.208 126.076 125.536 126.766C124.125 126.536 122.79 125.934 121.586 125.135C120.394 124.326 119.332 123.308 118.468 122.148C117.91 121.415 117.45 120.616 117.067 119.785C117.187 120.561 117.33 121.305 117.538 122.039C117.746 122.794 118.019 123.538 118.38 124.26C118.73 124.993 119.157 125.682 119.682 126.426C118.468 126.219 117.319 125.89 116.17 125.442C115.623 125.223 115.097 124.982 114.594 124.698C114.736 125.245 114.868 125.792 115.032 126.35C115.262 127.192 115.524 128.046 115.754 128.965C114.988 128.374 114.419 127.619 113.938 126.809C113.467 125.989 113.117 125.102 112.909 124.183C112.909 124.052 112.854 123.811 112.822 123.571Z" fill="#E45F30"/>
<path d="M109.966 108.536C108.008 127.521 117.33 134.546 120.952 135.848L123.469 136.833L128.721 147.961L112.811 182.232L93.4763 193.251L66.9414 140.236C80.3237 142.096 78.2666 117.454 78.8028 110.254C77.238 94.9019 111.137 97.1013 109.966 108.536Z" fill="#E2AC88"/>
<path d="M166.274 163.991C164.796 173.883 162.663 188.359 160.332 204.313C159.489 210.145 158.614 216.174 157.739 222.247C157.706 222.455 157.673 222.674 157.64 222.882C157.345 223.046 157.049 223.21 156.754 223.352C155.802 223.878 154.839 224.381 153.865 224.862C147.858 227.893 141.577 230.476 135.077 232.566C122.166 236.746 108.389 239 94.0769 239C80.5632 239 67.5091 236.986 55.221 233.244C48.2946 231.132 41.6089 228.484 35.2187 225.311C35.1968 225.322 35.1749 225.311 35.153 225.289L35.1421 225.278C34.8138 225.125 34.4746 224.961 34.1463 224.786C34.1135 224.578 34.0807 224.37 34.0478 224.162C34.026 223.976 34.0041 223.801 33.9712 223.626V223.615C33.0193 217.006 32.0673 210.452 31.1591 204.127C30.426 199.115 29.7147 194.257 29.0363 189.639C27.5591 179.616 26.246 170.731 25.2393 163.991C24.1123 156.277 28.719 148.88 36.1378 146.527L43.0423 144.339L75.8581 133.933H95.7182L95.762 134.141V133.933H115.655L119.43 135.125H119.441L119.463 135.136L153.034 145.794L155.353 146.527C162.783 148.88 167.401 156.277 166.274 163.991Z" fill="#E2AC88"/>
<path d="M190.751 189.694C190.948 194.596 189.022 199.334 185.455 202.704C178.036 209.707 169.797 215.879 160.912 221.043C160.2 221.459 159.489 221.864 158.767 222.247C158.395 222.477 158.012 222.685 157.629 222.882C157.334 223.046 157.038 223.21 156.743 223.352C155.791 223.878 154.828 224.381 153.854 224.862C147.847 227.893 141.566 230.476 135.066 232.566C122.154 236.746 108.378 239 94.0657 239C80.552 239 67.498 236.986 55.2098 233.244C48.2834 231.132 41.5977 228.484 35.2075 225.311C35.1856 225.322 35.1637 225.311 35.1418 225.289L35.1309 225.278C34.8026 225.125 34.4634 224.961 34.1351 224.786C33.5442 224.49 32.9424 224.184 32.3625 223.878C31.1698 223.265 29.999 222.619 28.8391 221.963C20.4902 217.279 12.7103 211.71 5.60876 205.385C1.76804 201.96 -0.267217 196.949 0.0282228 191.806L1.12244 172.887C1.61484 162.47 8.782 153.541 18.8707 150.762C26.0598 148.792 34.6713 146.461 43.0202 144.306C43.0311 144.317 43.0311 144.317 43.0311 144.328C52.2883 156.714 65.9551 164.461 80.6177 167.613C94.0766 170.501 108.389 169.538 120.907 164.768C131.587 160.697 140.975 153.869 147.431 144.306L153.022 145.783L173.2 151.101C182.796 153.639 189.624 162.109 190.029 172L190.751 189.694Z" fill="#F69471"/>
<path d="M35.217 225.312C35.1951 225.323 35.1732 225.312 35.1513 225.29L35.1404 225.279C34.8121 225.126 34.4729 224.961 34.1447 224.786C33.5538 224.491 32.9519 224.185 32.372 223.878L32.0547 221.569C32.6565 222.499 33.324 223.364 34.0462 224.163C34.3744 224.513 34.7136 224.852 35.0529 225.169C35.1076 225.224 35.1623 225.279 35.217 225.312Z" fill="#E38463"/>
<path d="M135.075 232.566C122.163 236.746 108.387 239 94.0746 239C80.5609 239 67.5069 236.986 55.2188 233.244C73.8424 235.64 95.4642 230.498 95.4642 230.498L95.508 230.508V230.498C95.508 230.498 116.605 235.06 135.075 232.566Z" fill="#F69471"/>
<path d="M159.008 220.497L158.778 222.247C158.406 222.477 158.023 222.685 157.64 222.882C157.345 223.046 157.049 223.21 156.754 223.353C157.104 222.991 157.432 222.63 157.739 222.247C158.187 221.689 158.614 221.109 159.008 220.497Z" fill="#E38463"/>
<path d="M160.921 221.044C160.21 221.459 159.499 221.864 158.776 222.247C158.404 222.477 158.021 222.685 157.638 222.882C157.343 223.046 157.047 223.21 156.752 223.352C155.8 223.878 154.837 224.381 153.863 224.863C158.076 219.304 160.374 208.58 154.323 185.952C156.139 182.943 159.4 177.789 159.4 177.789L160.33 204.313L160.921 221.044Z" fill="#E38463"/>
<path d="M35.1394 225.278C34.8112 225.125 34.472 224.961 34.1437 224.786C33.5528 224.49 32.951 224.184 32.3711 223.878C31.1783 223.265 30.0075 222.619 28.8477 221.963L29.0337 189.639L29.0993 177.789C29.0993 177.789 32.8963 182.954 34.7674 185.963C32.7869 193.152 31.6489 199.126 31.1565 204.127C30.1717 213.756 31.5832 219.742 33.9686 223.615V223.626C34.3188 224.184 34.6799 224.698 35.0519 225.169C35.0847 225.202 35.1175 225.235 35.1394 225.278Z" fill="#E38463"/>
<path d="M98.8936 81.7493C97.1648 79.0904 97.6572 69.4722 98.1058 66.2442C98.3684 64.3293 99.2 62.0643 97.9526 60.6418C96.4645 58.9348 92.4158 60.1603 91.8359 62.5567C91.4748 64.012 92.197 64.4387 92.6784 65.6643C93.3897 67.4697 93.4991 75.2278 93.4991 75.2278C93.6414 76.4971 93.6304 77.7883 93.4553 79.156C93.4444 79.2655 93.4335 79.3639 93.4225 79.4624C93.3569 79.4843 92.569 80.8192 92.0766 81.3226C91.5842 81.8259 90.9605 82.1433 90.9386 83.0843C90.8949 84.5177 92.1313 85.0101 92.952 84.5068C93.0177 84.5505 93.0833 84.5943 93.1271 84.649C93.6742 85.2946 93.8055 86.7718 94.5496 87.2752C96.3003 88.5007 97.2195 86.1262 97.8103 84.3755C98.4559 84.649 99.8675 84.66 100.086 83.4235C100.338 81.9572 99.386 82.5044 98.8936 81.7493Z" fill="url(#paint0_linear_1286_173)"/>
<path d="M122.863 65.3145C122.557 65.216 122.229 65.1722 121.89 65.1613C121.868 63.9795 121.835 62.8087 121.758 61.6269C121.463 56.9874 120.73 52.3151 119.329 47.8616C110.521 25.441 85.3536 16.7857 69.3123 36.055C64.2022 42.1936 61.4667 50.0391 60.7664 57.8738C60.3943 61.988 60.7007 65.5005 61.6308 68.8269C60.2849 69.2318 59.0922 70.1291 58.8734 71.4312C58.5451 73.368 58.37 75.3813 59.0375 77.2853C59.5409 78.7078 60.4819 80.0318 61.587 81.1807C62.4405 83.8725 66.0296 85.5138 68.9183 84.0804C71.1506 89.8469 72.2229 96.2262 74.8928 101.752C78.7116 109.62 86.2946 116.929 95.3985 116.59C100.662 116.393 105.542 113.624 109.033 109.882C112.523 106.14 114.755 101.5 116.528 96.7952C118.29 92.0791 119.614 87.2208 120.511 82.2968C121.715 82.4172 122.995 82.1217 124.012 81.684C126.256 80.7211 127.941 78.292 128.302 75.8847C130.282 71.5515 127.897 66.8902 122.863 65.3145Z" fill="#E5BC95"/>
<path fill-rule="evenodd" clip-rule="evenodd" d="M105.555 29.883C104.8 31.0538 105.161 32.1481 105.04 33.5049C104.821 36.0216 103.771 38.4398 102.469 40.6392C99.8974 44.9724 96.1443 49.7979 91.5266 52.238C93.923 47.8502 95.0282 43.1012 97.0853 38.6259C94.9734 43.8234 88.3972 45.8477 83.7577 48.3097C78.3632 51.1657 71.1522 55.1377 64.9918 55.6957C67.4975 62.4033 65.4076 70.7851 67.4866 77.7115C68.5042 81.0707 69.8392 82.8653 72.1151 85.4695C67.8477 84.1127 65.3529 78.937 63.7006 75.2276C61.8076 70.9382 60.5492 65.6532 59.258 61.0902C57.5839 55.258 57.0587 49.4149 57.7699 43.3639C58.8641 34.0083 63.3833 22.0812 71.1303 15.8551C74.8288 12.9007 79.4464 11.6861 84.1078 11.1828C90.2574 10.5044 99.0549 9.62898 104.865 11.9925C109.986 14.0606 115.195 17.8904 113.531 23.7882C124.288 29.1937 124.966 44.469 124.134 54.6343C123.336 64.5918 121.727 73.7723 116.705 82.537C120.239 75.9388 121.465 66.0471 119.331 58.7596C118.313 55.2909 116.365 52.3255 114.812 49.1304C112.689 44.7535 112.875 39.4137 112.284 34.6976C112.12 36.8313 104.745 47.9924 102.37 46.5699C106.397 42.6854 109.209 35.0149 105.555 29.883Z" fill="#E45F30"/>
<path d="M84.0102 90.0762C83.9227 91.4111 84.7543 92.7023 85.9142 93.5667C87.0959 94.4421 88.5841 94.9455 90.0832 95.2847C94.46 96.2695 99.2199 95.9631 103.378 94.4093C104.396 94.0263 105.402 93.5667 106.135 92.8446C106.858 92.1333 107.284 91.1266 106.978 90.2075C99.5591 92.5819 91.3196 92.6585 84.0102 90.0762Z" fill="#DDDDDD"/>
<path d="M104.779 93.5341C105.227 93.3043 105.654 93.0417 106.026 92.7134C106.836 92.0022 107.306 90.9846 106.956 90.0654C106.3 90.2624 105.632 90.4265 104.943 90.5907C104.801 91.5755 104.746 92.5603 104.779 93.5341Z" fill="#AB3F37"/>
<path d="M85.0712 90.4263C84.7101 90.3169 84.3599 90.1965 83.9989 90.0762C83.9551 90.9406 84.4365 91.7832 85.1478 92.385C85.1587 91.7503 85.104 91.1047 85.0712 90.4263Z" fill="#AB3F37"/>
<path d="M85.848 54.0659C83.2219 52.5121 79.9064 53.2015 77.138 54.1425C74.9824 54.8757 71.9186 55.8933 71.3167 58.1474C71.1417 58.7602 72.1702 59.2088 72.5751 58.6726C73.7459 57.1298 76.1204 56.714 77.9915 56.1997C80.4754 55.5213 82.4012 55.6744 84.9179 55.9042C85.9356 56.0027 86.8985 54.6787 85.848 54.0659Z" fill="#E45F30"/>
<path d="M113.75 55.8383C110.38 51.2535 103.76 51.2317 99.4264 53.3544C98.737 53.6937 98.934 55.1161 99.6562 55.1818C101.812 55.3459 103.935 54.7332 106.101 54.8645C108.519 55.0067 110.434 55.9806 112.459 57.5781C113.323 58.2566 114.527 56.8888 113.75 55.8383Z" fill="#E45F30"/>
<path d="M85.0702 64.8983C83.5602 63.8916 81.4265 63.3445 79.1614 63.5852C77.345 63.7822 75.1894 64.6138 74.7627 65.7737C74.7517 65.8174 74.8392 65.8612 74.9049 65.8174C76.1085 65.0296 76.962 64.2855 78.7784 63.9901C80.9997 63.629 83.1663 64.1323 84.6763 65.139C84.917 65.3031 85.3219 65.0624 85.0702 64.8983Z" fill="#1E1415"/>
<path d="M112.756 63.0821C110.053 60.5325 104.779 60.5544 102.47 63.4213C102.427 63.4869 102.547 63.5635 102.613 63.4979C105.14 61.1453 109.648 60.8827 112.231 63.3775C112.515 63.6839 113.062 63.3775 112.756 63.0821Z" fill="#1E1415"/>
<defs>
<linearGradient id="paint0_linear_1286_173" x1="95.5243" y1="71.4238" x2="95.5243" y2="112.429" gradientUnits="userSpaceOnUse">
<stop stop-color="#E1AC88"/>
<stop offset="0.0027027" stop-color="#E1AC88"/>
<stop offset="1" stop-color="#E64433"/>
</linearGradient>
</defs>
</svg>
